<?xml version="1.0" encoding="utf-8"?>
<!-- Generator: Adobe Illustrator 26.0.0, SVG Export Plug-In . SVG Version: 6.00 Build 0)  -->
<svg version="1.1" id="Layer_1" xmlns="http://www.w3.org/2000/svg" xmlns:xlink="http://www.w3.org/1999/xlink" x="0px" y="0px"
	 viewBox="0 0 1377 761" style="enable-background:new 0 0 1377 761;" xml:space="preserve">
<style type="text/css">
	.st0{fill:#323232;}
	.st1{fill:#FFFFFF;}
</style>
<g>
	<path class="st0" d="M1150,68.1c2.2,5.7,2.8,12.3,4.6,18c0.1,2.5,0.1,5.1,1,7.5c0.1,4.4,0.8,8.7,1,13.1c3.3,0.2,6.3-0.5,9.5-0.5
		c1.2-0.1,1.9-1.6,2.7-2.3c4.2-4.6,9.3-8.3,15.3-10c4.9-2.4,11.8-1.6,17-0.3c9.7,2,16.9,12.9,14.5,22.6c0,4.5-2.2,8.3-4.5,12
		c-4.9,5.9-10.3,11-18,12.9c-4.3,1-8.1-0.5-12.5-1.4c-3.7-2.1-6.5-5.4-7.8-9.4c-2.9-6.3-2.9-15.2,1.7-20.8c1.1-1.4-1.2-1.9-1.9-0.8
		c-2.4,3.7-4.2,8.1-4.5,12.5c-0.3,2.1,0.9,3.6,0.6,5.6c-3.2-3.6-6.8-9.8-4.4-14.6c0-1.3,1.2-2.6,0.7-3.8c-2.1,0.6-6.5-0.4-7.4,1.7
		c0.3,3.7-0.5,8.2,1,11.5c0,5.8,0.7,11.7,0.4,17.5c0,1.7-1.1,3.7-2.8,4.2c-2.3,0.2-5.1-1.1-6.6-2.8c1.4-0.4,2.2,1.2,3.5,0.5
		c0.5-1.4,0.1-3.3-0.2-4.8c-0.6-1.9,0.2-4.4-0.9-6c-1-2.8,0.7-7.1-1.3-9.6c-0.2-3,0.4-6.7-0.5-9.5c-1.6-1-4.2,0.4-6,0.5
		c-6.3,2-13.4,3.8-18.7,7.9c-1.8,1.4-2.8,3.3-2.4,5.7c0.8,2.5,3,3.8,5.1,5.3c1.2,0.1,1.9,0.3,2.6,1.3c-3.1,0.1-6.6-2.3-8.8-4.3
		c-2-1.7-2.2-4.3-1.1-6.5c2-3.9,6.6-6,10.3-8c5.8-2.4,11.8-3.9,18-5.1c1.7-0.4,0.7-1.6,0.6-2.7c-0.1-4.2,0.1-8.9-1-13
		c-0.1-2.8,0-5.8-0.9-8.5c-0.3-5.1-0.3-10.6-1.5-15.5C1146.1,65.7,1149.6,66.5,1150,68.1z"/>
	<path class="st0" d="M985.4,72.3c1.1-0.8,3,0,4.3,0.1c1.5,6.6,2.5,13.9,3.9,20.6c0.5,4,0.9,8.1,1.9,12c0.1,2.2,0,4.8,0.8,6.9
		c0.9,6.2,0.7,13,2.2,19.1c0,5.1,0.7,10.5,0.1,15.6c-3-5.4-5-12.2-6.1-18.2c-0.7,4-1.8,7.8-3.3,11.6c-2.1,3.5-4.1,7.5-8.2,8.9
		c-5,1.1-10.5-1.4-13.8-5.2c-4.2-4.7-6.2-11.6-6.8-17.8c-0.5-7.1,0.1-13.7,3.7-20c2-3.5,5.8-6,9.9-5.5c5,0.2,8.5,3.1,11.8,6.6
		c0.7,0.7,1.9,3.3,3,2.9c0.8-9.2-2.3-19.6-3.1-28.9C985.9,78.4,984,74.6,985.4,72.3z"/>
	<path class="st1" d="M1193.1,95.9c4-0.7,7.6,1.1,10.4,3.8c5.4,4.6,7.8,13,5.1,19.4c-0.9,6.5-7.1,12.7-12.5,16.1
		c-2.8,1.5-6.8,3.7-10,2.8c-4.9-2.5-8.4-8.1-9.6-13.3c-1.5-2.4-1.4-5.6-1.6-8.5c-0.1-2.5,0.3-4.4,1.6-6.5c0.6-1.9-1.4-2.1-1.9-3.5
		C1178.6,100.4,1186.5,96.9,1193.1,95.9z"/>
	<path class="st0" d="M1033.1,100.9c1.4,0.2,2.7,0.6,4,1.1l0.4,1c-0.1,5.8-0.7,11.7-1,17.5c-1.5,4.1-0.8,9.2-0.7,13.5
		c1.8,3-0.3,7.5,1.7,10.5c0.2,2.1,0,4.4,0.5,6.5c1.5,6.8,1.7,13,3.5,19c0,6.6,1.1,12.9,0,19.5c-1.4,3.9-4.3,7.1-8.5,7.9
		c-7.5,0.6-14.1-1.8-21.1-4.2c-6.2-2.8-13.3-5.2-19-9c-2.1-1.2-4.7-3-5.7-5.2c-1.4-4.8,2.8-7.9,5.7-11c0.4-0.5,0.9-0.7,1.6-0.6
		c-2.2,3.2-4.2,6.8-1.4,10.4c3.8,4.2,9.7,7,14.7,9.4c5.9,2.7,11.8,5.1,18,6.8c2.7,0.5,6.6-0.5,7.8-3.1c1.3-1.9,0-4,1.7-5.8
		c-0.2-2.2,0.6-4.7-0.9-6.5c-0.2-3.7,0.5-8.3-1.1-11.5c0.4-4.1-1.5-6.9-1.2-11c-1.3-1.9-0.6-3.8-1-6c-1.4-1.9-0.5-3.8-0.9-6
		c-0.5-0.9-1-1.8-1.4-2.8c-1.3-0.2-2.1,2-3.3,2.5c-3.6,3.2-8.4,2.1-12.1-0.4c-4.3-3.5-6.1-10.1-7.1-15.4c-0.1-4.1-0.8-8.5-0.1-12.5
		c0.9-0.6,1.6-0.7,2.2-0.2c0.5,3.8,0.6,7.9,1.6,11.6c0.8,5.4,2.8,12,7.1,15.7c2.4,1.9,4.9,0.2,6.7-1.6c1.7-2,3.6-4.4,4.3-7.1
		c0.1-8.4-0.4-17.2,0.2-25.6c0.7-1.7,0.9-3.1,1-5C1030.7,102.3,1031.4,100.9,1033.1,100.9z"/>
	<path class="st1" d="M972.2,102.1c4.8-1.2,8.5,2.2,11.9,5.1c2,2.3,5.4,4.6,5.2,7.9c-0.3,4.2-0.1,8.9-1.1,13
		c-0.3,3.6-1.7,7-2.6,10.5c-1.5,3-3.7,8-7.5,8.6c-3.2,0.2-6.5-3.5-8.4-5.8c-5.9-8.4-7.1-20-5.1-29.9
		C965.8,107.7,968,103.2,972.2,102.1z"/>
	<path class="st0" d="M930.6,111.6c3.1-0.8,6-0.4,9,0c5.6,1.9,10.6,6.8,12.4,12.4c0.5,2.4,1,7.2-1.5,8.6c0.1-3.4,0.5-6.6-1.1-9.8
		c-2.1-4.2-5.9-7.9-10.3-9.7c-5.4-1.5-10.8,1.8-14.2,5.7c-3.7,4.5-5.9,10.5-7.1,16.1c-1.2,6.2-0.2,13.5,3.8,18.6
		c1.6,1.6,2.9,3.8,5.5,3.1c6.7-2.2,9.9-9.4,11.6-15.7c0.6-3.6,0.6-7.3,0.8-11c0.2-3,5.1-2.4,6.2-0.6c0.5,8.4,2.2,16.2,4.9,24.2
		c0.5,1.4,1.2,1.3,2.1,2c-3.8,1.4-7.8-1.6-9-5.1c-0.5-0.7-1.2-3.5-2.3-3.3c-2.1,4.8-5.9,9.2-10.7,11.4c-3.2,1.1-5.5,0-8.6-0.5
		c-4.7-1.6-7.2-6.7-8.5-11.1c-1-5.7-0.3-11,1-16.5C917.5,122.5,922.2,114.6,930.6,111.6z"/>
	<path class="st0" d="M849,121.3c1.9,3.1,1.4,6.2,2.4,9.5c2.2-1.5,4.3-5.7,7.7-6.4c2.2-0.3,4.5,0.5,6.6,1.1c1.6,2.2,2.6,5.6,2,8.2
		c-1.3-1.8-2.1-3.6-3.9-5.3c-1.3-1.4-2.6-0.4-3.7,0.6c-5.4,6.8-8.2,15.4-7.2,24c0,7.7,0.6,15.3,0.8,23c-0.4,2.5-4.4,0.9-6,0.5
		c-1.4-2.1-0.9-4.2-1.2-6.5c-1.3-1.9-0.6-3.7-0.8-6c-0.3-6.2-0.1-12.3,0.1-18.5c1.3-2.1,0.5-4.3,1.5-6.5c-0.1-5.7-0.6-11.4-0.6-17
		C847,121,847.8,120.8,849,121.3z"/>
	<path class="st0" d="M897.1,127c4.7,1.9,7.1,6.4,8.4,11c2.3,7.5-3,16-10.4,18c-6.4,1-13.5-1.5-16.5-7.4l-1-0.1
		c0.8,1.7,0.8,3.3,1.1,5.1c1.2,1.5,1.9,3.3,3.1,4.8c3.6,5.2,9.9,8.5,16.3,7.8c3.7,0,7.2-2,10.6-2.8c-3.8,3.7-9.3,5.3-14.6,4.7
		c-5.7-0.8-12.2-2.4-16.2-6.9c-2.6-2.5-3.6-5.6-5.2-8.7c-0.7-4.5-0.6-8.5,0-13c2.3-5.5,5.7-10.3,11.2-12.9
		C888.2,124.8,892.9,125.7,897.1,127z"/>
	<path class="st1" d="M892.2,128.1c4.7,1.3,7.5,7,8.5,11.4c1.1,4.8-0.9,9.4-4.5,12.5c-2.1,1.6-4.3,2.6-6.9,1.7
		c-5.2-2-8.8-7.5-10.4-12.7c-0.5-1.6,0.4-2.8,1.9-1.4c0.1-1.4-0.2-2.3-0.6-3.6C882.2,131.7,887.2,127.9,892.2,128.1z"/>
	<path class="st0" d="M1127.2,204.2c0.8-0.3,1.6-0.2,2.5,0.2c2,4.1,2.7,9.1,3.3,13.6c1.3,5.6,1.4,11.5,2.6,17c0.1,3.3,0.2,6.8,1,10
		c0.1,8.5,1.2,17,1.1,25.5c0.3,0.4,0.6,0.7,1,1.1c1.5-4.7,5.5-10.3,10.5-11.6c4.3-0.4,9.4,0.2,12.6,3.5c4,4.3,5.3,9.3,6.9,14.6
		c0.1,5.7,1.7,11.2,0,17c0,2.6-0.2,5.7-1.7,7.9c-0.8,1.3-2.1,1.3-3.4,0.7c-1.8-6.9-0.3-14.4-1.2-21.6c-1.3-2.1-0.3-4.3-1.7-6.4
		c-0.7-4.6-3.3-9.1-6.7-12.3c-1.8-1.4-4.4,0.5-5.9,1.6c-2.9,2.9-4.7,7.3-5.6,11.2c-1.7,4.3-1.5,9.4-2.3,13.9
		c-0.5,5.1,0.2,10.5-0.5,15.5c-1.2,1.1-5.3,0.6-6.1-1c-0.6-3.5-0.1-7-0.5-10.6c-0.3-17-1.1-32.1-1.9-49c-0.5-5.4-0.3-10.7-1.5-16
		c0.1-4.2-1.1-7.9-1.2-12C1128.2,213.3,1126.3,207.8,1127.2,204.2z"/>
	<path class="st0" d="M1247.1,241.2c5.3-0.4,11-0.2,14.3,4.5c2.6,3.1,0.8,6.9,0.9,10c1.7,0.8,3.4,0,4.4,1.6
		c1.8,3.8,1.4,7.7,0.9,11.7c-0.6,2.9-2.3,4.9-1.4,8c1.9,8.6,7,16.8,8.3,25.5c3.9,6.5,3.5,13.7,2.9,21c-2.3,2-3,4.6-6,6
		c-6.6,3.1-13.6,1-20.4,0.1c-11.6-2.7-23.2-6.8-34.3-11.2c-1.9-0.8-1.6-2.2,0.3-2.8c2.3,0.6,5,0.3,7,1.7
		c10.9,3.8,21.6,8.2,33.1,10.3c3.9,0.3,7.4,0.4,10.8-1.8c2.3-1.5,2.7-4.3,3.4-6.8c0.7-3.5-1.1-5.6-0.9-9c-1-1.3-0.9-2.5-1-4
		c-1-1.3-0.9-2.5-1.2-4c-2.3-4.6-2.7-8.7-5.6-13.5c0.1-2.4-1-4.1-1.9-6.2c-1.3-0.3-2.5,1.3-3.7,1.8c-5,2.9-10.9,1.7-16-0.2
		c-6.1-2.5-9.8-8.5-10.7-14.9c-0.3-5.1-0.2-10.9,2.2-15.6C1235.1,247.3,1240.5,242.5,1247.1,241.2z"/>
	<path class="st1" d="M1256.4,244.8c5,3.6,4,12.4-0.8,15.7c1.1,0.1,1.7,0.6,1.8,1.5c0.4,2.8,0.2,5.7,0.4,8.5
		c1.3,1.8,0.7,4.3,1.2,6.4c-2.1,4.1-7.2,6.6-11.8,6.1c-7.6-2.3-11.6-10.6-11.5-18.1c-0.3-8,2.8-17.1,10.5-20.7
		C1249.2,243.2,1253.8,242,1256.4,244.8z"/>
	<path class="st0" d="M1208.4,245.2c1.2-1.2,3.9,0.2,5.5,0.2l0.8,1.1c0.6,4.2,0.3,8.3,0.4,12.5c0.5,6.1,4.6,11.8,5.3,18
		c0.1,1.5-0.1,2.8-1.5,3.6c-0.9,0.1-1.7-1.6-2.1-2.2c-1.2-1.6-2.3-3.1-3.1-5l-1,0c-1.4,6.8-5.9,13.9-12.4,16.9
		c-4.3,1.8-8.4,0.1-12.6-0.8c-3.5-1.6-6.3-4.3-8.1-7.7c-0.5-1.2-0.9-2.3-1.8-3.2c0-1.2-0.3-2.2-1-3c-0.2-1.8-0.2-3.4-1-5
		c-0.1-4-0.2-8,0-12c0.9-2.1,0.7-5.5,4-4.1c1.7,6.7,1.2,14.5,3.9,21c1.3,5,4.6,9.3,9,12c2.8,1.1,6.4-1.9,8.6-3.5
		c3-3.9,5.1-8.3,6.3-13c0.4-3.2,2.1-6.6,0.5-9.9c-0.9-1.9,0.5-3.8-1.2-5.6c-0.1-3,0-6-0.1-9C1207.3,246.3,1207.9,245.9,1208.4,245.2
		z"/>
</g>
<g>
	<path class="st0" d="M626,83.4c2.2,0.6,5.2,1.1,6.8,2.8c1.1,2.9,1,6-2.2,7.4c-3,2.2-5.8,3.2-9.6,2.8c-1,0.4-3.4,1.4-3,2.7
		c2.1,1.2,5.3-0.1,7.6,0.4c-0.2,2.6,4,1.7,5.5,2.4c2.3,1.2,3.8,0.1,5.9-0.7c1.4-1.9,3.6-2.1,5.5-3.5c1.2,0.1,2.2-0.3,3-1
		c1.2,0.1,2.2-0.2,3-1c4-0.3,7-2.1,10.5-3.6c4.5-0.3,9.6-1,14.1-0.2c10,1.7,19.2,8.4,24.2,17.2c0.7,1.1,1.2,3.8,0.2,4.6
		c-0.4-1.6-1.1-2.8-2-4.2c-0.1,0.8-0.1,1.7,0,2.6c3.4,6.6,2.6,15.3,0,22c0.3,0.8,0.6,1.4,0.8,2c-0.8,1.4-2,2.4-2.6,3.9
		c-1.2,2.7-3.4,4.4-5.4,6.5c-0.1,0.6,0,1.1,0.4,1.7c1.5,2.3,2.5,5,3.7,7.5c3.7,5.1,6.7,10.5,10.1,15.9c1.8,0.7,2.4,1.3,4.5,1.1
		c1.9,1.7,4.5,0.5,5.5,2.9c2.9,0,5.6,2.8,8.5,3.2c4,2.6,7.2,5.7,11,8.4c2.6,0.2,2.5,2.8,5.5,2.4c1.8,1.4,3.4,4.4,6,4
		c0.6,2.9,2.9,2.3,4.7,4.4c1.4,0.6,2.9,1.4,4.5,1.6c3.7,2.4,7.5,4.2,9.4,8.6c1.5,3.7,3.7,6.8,6,10c1.3,1.7,3.6,2.9,3.8,5
		c2.2,2.5,6.4,5,6.7,8.5c1,1.4,2.5,2.1,3.8,3.2c2.5,3.4,6.3,5,6.2,9.8c0.9,1.1,2.5,2,2.9,3.4c0.8,2.4,3.4,2.5,4.1,4.6
		c1.5,1.8,1.8,3.8,4.3,4.4c0.4,3.5,0.6,7.1,1.7,10.5c0.1,5,1,8.8,2,13.5c0.4,3.7,0.3,8.3,2.1,11.5c0-3.6-0.3-7.7,0.8-11.1
		c0.9,0.1,0.8,2.9,1,3.6c0.4,8.3-0.4,16.3,1.2,24.5c2.5,3.3,4,7,6.9,10c2.8,1.8,5.4,4.6,8.5,5.6c6.9,0,14,3.8,20,6.9
		c10.3,5.8,20.7,13.7,27.5,23.5c3.7,5.4,6.7,10.7,5.3,17.5c0.3,2.4,2.6,4.6,3.3,7c0.4,1,1.5,3.7,2.7,1.9c0.9-2.7-2.5-6-3.4-8.5
		c1.6-0.2,1.2,1.1,2.3,1.8c6.4,6.6,13.3,12.8,20.4,18.6c2,2.1,4.6,3.2,6.2,5.8c7.7,11.5,18.4,20.4,28.2,29.8l1.1,0.1
		c-3.1-2.8-5.1-6.3-8.2-9c-4.4-5.1-9-10.5-13.3-15.6c-2.4-2.6-4.6-6.5-7.6-8.4c-1.2-0.2-1.6-0.7-1.3-1.4c3.3-1.4,6.6,3,9,4.6
		c14.7,14.3,27.7,30,42.9,44c1.6,1,2.4,2.6,4.5,2.7c1.6,1.3,2.8,2.9,4.9,3c0.6,1.6,2,1.7,3.1,2.9c14.8,11.7,32.2,19.1,49.5,26.3
		c5.2,2.4,10,3.8,14.5,7.6c2.6,1.3,4.8,3.1,7,5c1.2,1.3,1.1,2.7-0.1,4c-3,3.3-7.5,5.3-12,4.1c2.6-0.5,2.9-1,5.2-2.1
		c-6.8-0.7-13.3,0.5-20,0c0,3.5-3.2,2.1-5.6,3.1c-7.9,0.9-16.1,1.4-24,0.2c-8.4-1.7-16.1-4.8-24-8c-12.1-5.7-26.1-12.6-37.9-19
		c-1.3-0.9-3.1-2.4-4.7-2.3c4.3,3.6,9.2,8.4,13.2,11.2c1-2.5,4.8-0.6,6,0.9c-1.2,0.1-1.6,0.5-1.4,1.2c10.2,9.9,21.1,20.6,33.6,27.5
		c9.4,5.9,19.5,8.5,29.8,12.1c-0.2,1.4-1.3,1.8-2.6,1.5c-3-0.1-5.6-1.2-8.6-1.4c1-0.3,1.5-0.7,1.4-1.2c-4.1-1.2-8.3-3.1-12.3-3.9
		c2.3,1.7,4.8,3.6,7.5,4.9c0.3,0.7-0.2,1.1-1.5,1.2c2,2,5.1,3.4,7.6,4.6c3.5-0.7,5.2,0.1,7.1,2.9c0.8,1.6,4.7,1.6,4.6,3.7
		c-4.7,1.2-8.8,2.8-13.7,2c-5.1-0.9-10.2-2.6-15.1-4.4c-5.9,2.1-12.4-3.6-17.8-3c0,0.5,0.1,0.9,0.5,1.3c-2,0-3.4-1.7-5.6-1.4
		c-9.4,0-19-0.9-28-3.7c-3.6-0.5-7.1-1.5-10.5-2.9c-3.8-1-7.8-2.6-11-5c-2.4-0.8-4.1-2.4-6-4c-1.5-0.8-3.3-2-3.9-3.6
		c0-2.3,4-1.1,2-3.5c-9.6-5.5-16.9-13-25.5-19.6c-0.8,0.5-1.3,0.8-1.8,0.9c-1.1-0.8-2.1-2.5-0.2-2.9c3.7-0.3,7.3,2.9,10.3,4.8
		c3.4,3.1,7.2,5.3,10.6,8.4c0.4,0.4,0.9,0.6,1.6,0.5c-1.5-1.2-1.3-2.5-2-4.1c-7.2-4.2-13.6-9-20.5-13.7c-1.5-0.3-2.9,0.2-4.2-0.4
		c-1.9-0.6-0.4-2.4-2.5-2c-2.8,2-5.9,3.6-9,5.1c-1.5,1.2,0.3,2.3,1.3,3c3.5,2,7.4,5.1,8.9,9.1c1,3.2,4.4,5.1,6,8
		c3.3,3.6,6.7,7.5,9.5,11.5c7.2,8.5,14.2,18.1,20.8,27.1c3.9,4.1,8.3,7.8,12,12c1.7,1.8,1.5,3.6,1.4,5.8c2.1,2.9,6,4.7,8.8,6.9
		c3.3,2.5,6.5,3.3,8.4,6.8c1,1.1,2,1.3,3.2,2c-1.6,0.3-2.8-0.7-4.2,0.8c1.4,1.3,4.2,3.4,4.5,5.6c-0.1,1.7-2,1.5-2.1,3
		c1.4,1.6,2.1,2.3,1.8,4.6c-0.9,0.2-1.7,0.3-2.6,0.2c-9.5-3.1-18-6.6-26.9-11.1c-1.2-0.5-2.5-1.6-3.8-1.5l0,0.4
		c3.3,3,6.5,6.2,9.8,9.3l-0.1,1l-1,0.3c-2.9-1.5-4.9-4.8-7.7-6.6c-2.9-2.8-5.8-5.5-8.7-8.3c-3-2.9-7.2-4.2-10.2-6.8
		c-3.4-1.8-7.4-4.2-11.1-5.2c3.1,2.3,5.7,5.1,8.6,7.7c2.6,0.3,2.3,2.5,4.5,3.4c1.9,2.1,4.4,2.8,6.1,5c-1.4,0.2-1.6-0.8-2.7-1.4
		c-4.5-2.3-7.8-4.2-11.8-7.4c-5-4.4-10.4-8.2-15.1-12.9c-4.7-2.9-9.5-5.7-13.9-9.1c-6-4.3-10.7-9.9-16.8-14.1
		c-9.1-7.6-17.7-15.9-25.6-24.7l0.2-0.9c1.3-0.9,4.6,2.1,4.6,3.4c0.9,0.1,1.6,0.4,2,1c2,2.1,4.1,4,6,6.1c0.2-2.1-3.2-2.7-3.2-5
		c-1.2-1.6-3.8-2.9-4-5c-1.2-0.9-2.3-3.3-3.9-3c-1.7-3-2.3-5.9-4.7-8.3c-0.7-1-2.2-1.9-1.7-3.3c1.6-1.4,1.9,0.9,3.5,0.6
		c-0.7-0.6-1-1.4-1-2.3c-0.9-1.1-1.9-1-3.2-0.9c1.3,0.5,1.8,1,1.5,1.6l-0.9,0.2c-5.2-1.5-9.6-3.7-14.6-5.7l0-1.1
		c6.2,0.5,10.6-3.2,16.6-3.3c2.2-1.2,5.5-1,7.6,0.3c-0.9,0-1.8,0-2.6-0.1c-2.3,0.6-2.8,4.6-1.8,6.4c0.8,0.3,1.4,0.1,2-0.6
		c1.9-2.1,4.3-1.8,6.8-1.3c2.5-1.5,5.2-2.6,7.5-4.5c1.8-1,4.1,0.3,6.1,0c2,1.1,3.3,2.6,4.8,4.2c1.8,0.3,2.6-1.6,3.3-2.9
		c1.1-1.8,3-4.5,5.3-4.5c3.3-0.5,4.5,2.8,8,2c3.8-1.8,7.5-3.9,11-6.4l0.5-0.8c-0.8-1.8-3.8-3.7-4.2-5.8c0.5-0.6,0.9-0.9,1.3-0.9
		c0.8,0.9,1.9,3.3,3.2,3.4c1.7-3,0.6-7.4,3.3-9.6c5.3-5.5,9.3-11.3,12.7-18.2c3-3.5,8.5-2.3,12.1-4v-0.7c-2.5-1.5-5.3-2.6-7.9-4.2
		c-0.7-0.2-0.9-0.8-0.6-1.8c2.2-0.6,4.9,3.4,7.2,2.4c-0.8-1.2-1.7-2.4-2.4-3.7c-0.5-1.2-1.3-2.8-2.7-1.4c-0.4,0.8-0.9,1.2-1.3,1.2
		c-0.6-1.9,1.6-3.6,2.3-5.2c1.2-3.1,3-6.3,4-9.5c-0.1-2.1,1.1-4,1.5-6c0.7-2.7,0.4-5.4,1.3-8c0.9-0.3,1.4,0.6,1.3,2.5h0.1
		c0.3-2.1-1-3.5,1-5.1c-0.8,0.1-1.6,0.2-2.4,0.5c-0.4-2.4-1.2-4.6-1.8-6.9c0.7-2.1-2-1.8-1.1-3.7c2.1,0,3.7,0.9,5.3,1.2
		c0.1-1.2-0.8-2-1.1-3.1c-0.2,1.3-0.6,1.8-1.2,1.6c-0.6-2.4-1.2-5-4.3-4.8c-0.4,0.6-0.4,1.5-0.2,2.6c-1.3,0.1-1.9-2.3-2.2-3.3
		c-2-1-1.2-2.9-2.8-4.2c-8.8-12-19.9-19.8-32-28.1c-0.8,0.4-1.6,0.5-2.3,0.4c0.4-2.8-0.8-2.3-2.5-3.6c-1.5-2.2-3.2-0.4-5-2.2
		c-2.8-1.5-5.3-3.2-8-4.8c-2.9-2.7-5.1-5.6-9-7.1c-2.1-0.8-2.7-2.9-5-3.2c-0.7-0.1-1.3-0.4-1.9-1c-4.2-3.9-8.6-7.9-10.7-13.4
		c-1-1.8-3-1.2-4.1-2.9c-1.2-1.5-2.6-2.7-3.9-4.1c0-5.4-4-10.7-6.1-15.6c-0.6-3-2.9-4.7-1.9-7.5c1.7-1,3.3-1.9,4.8-3.2
		c1.3-0.8,0.6-3,0.4-4.2c-0.7-3.4-1.1-6.8-2.2-10.1c0.8-2.4,2.8-5.1,4.5-7c0.5-0.4,0.7-0.9,0.6-1.6c-1.4,0.8-2.9,3.2-4.5,1.6
		c-1.3-2.8-3.3-5.4-4.9-8.1c-0.8-1.5-3.3-3.2-3-5c1.2-0.3,1.5,1.1,2.4,1.6l-0.1-1.1c-2.2-2.2-3.5-5-5.8-7.2
		c-1.1-1.2-2.1-4.4-4.2-2.8c-1.7-2.2-5.6-0.2-5.1,2.2c2.3,2,4.5,4.1,6.4,6.6c1.9,3.3,4.1,6.4,2.8,10.4c-1-0.7-1.1-1.5-1.4-2.6
		c-2.4-4-6.2-7.4-9.5-10.7c-1.4-0.2-1.8,1.3-2.3,2.3c-0.4-2.1,1.5-3.5-0.2-4.8c-1.8-2.1-3.5-0.9-5.7-0.3c-5.4,2.7-10.9,4.9-16,8
		c-0.3,1.6-1.5,3.6,0.1,4.8c2.9,2.6,5.1,5.7,6.8,9.1c0.3,0.7,0.4,1.4,0.1,2.1c-2.8-2.7-6-6.1-9.2-8.2c-1.5,3.2-2.4,6.6-3,10.1
		c-0.7,1.8-1,3.1-1,5c-0.3,0.4-0.6,0.7-1,1.1c0.1-6.4,0-12.3,1.4-18.6c-0.2-1.4-2-2.6-3.2-1.3c-1.2,1.2-2.7,0.9-3.2,2.8
		c-2.1,0.9-4,2-6.1,2.9c0.1,1-0.1,1.8-0.5,2.4c-2.1,1.2-4.9,2.6-6.5,4.3c-1,2.3-3.2,3-4.4,5c0.4,1.7,3.2,2.5,4.5,3.7
		c1.8,1.6,4.5,3.5,5.2,5.9c-2.3-0.4-4.1-3.1-6.5-3.6c-2-0.6-3.8-2.6-5.8-2.8c-1.1,5.6,0.4,12-0.5,17.5l-0.4,0
		c-1.4-3-1.8-6.5-2.6-9.7l-0.8-0.1c-3.1,3.2-1.6,8.9-4.4,12.7c-1.1-1-1.6-2.1-3.1-3.1c-2.4-1.2-1.3-5.6,1-6c1.3-0.7,0.8-2,2-2.9
		c1.5-1.2,2.4-3,4-4c1.7-0.7,1.6-3,1.2-4.4c-1.4-0.2-2.7,2.1-3.8,2.9c-1.5,2.1-3.7,3.2-3.2,6c-0.3,2.4-1.9,1.1-3.5,2.7l-0.3-1.6
		c-1.5-0.3-1.6,1.2-2.7,1.5c-0.2-1.5,1.9-2.5,2.6-3.6c3.4-3.8,7.1-5.8,9.5-10c-0.7-1.6-3.2-1.9-4.6-2.7c-1.8-1.3-3.8-0.4-5.6-1.5
		c-0.1-0.6,0.5-1,1.7-1.2c3.2-1.4,6.4-1.3,9.8-1.2c-0.4,1-4.9-0.2-3.5,2.2c1.3,0.4,3,1.5,4.4,1.2c1.1-1.2,0.5-2.3,1-3.8
		c1.6-4.3,2.9-9.1,5.3-13c0.8-1.2,1.8-2.9,3.5-2.6l-0.1,1.1c-2.3,2.9-3.1,7.1-4.5,10.5l0.2,0.8c1.1,0.2,2.2-1,3.2-1.4
		c1.6-1.8,3.8-2.7,5.5-4.4c0.4-0.5,0.9-0.6,1.6-0.6c-0.7,1.1-4.3,3.1-2.6,4.4l0.9-0.1c3.4-2.6,6.8-5.2,10.2-7.8l0.3-0.9
		c-2.2-2.5-5.8-4.4-8.9-5.5c-0.3-0.9-0.2-1.4,0.5-1.4c2.6,0,5.2,1.5,7.5,2.4c2.3,0.9,4.4,3.4,6.9,3.1c-1.1-0.2-1.6-0.7-1.5-1.6
		c1.2-0.5,2.3-0.5,2.7-2c1-2.9,2.7-5.5,4.4-7.9c1.4-1.4,2.2-3.4,4.6-2.7c0.4,1.5-1.5,2-1.9,3.6c-0.5,1.5-1.9,3.4-1.6,4.9l0.8,0.2
		c2.1-1.4,4.2-2.6,6.5-3.6c1.9-1,2.6-2.4,5-2c0.2,2.4,2.1,1.1,3.3,0.4c-1.1-2.4-5-5.3-6.2-7.9c0.8-2,2.2-0.8,2.8,0.6
		c2.7,2.6,5.9,5.1,9.1,6.9c0.3-1.9,4-4.7,2.7-7.6c-1.8-2.7-3.9-4.8-6.1-7.1c-0.9-1.9-2.8-3.3-4.2-4.9c-0.6-2.1-2.3-2.9-3.5-4.5
		c-0.2,1.9,2.6,2.7,3,4.5c0.5,1.6,2.5,2.5,3.1,4c-1.1,2.6-2-1.1-4.1,0.5c0.6-3.2-4-3.8-6-5.1c-1.5-1.4-2.9-0.3-4-1.9
		c0.6-1,1.7-1.2,2.1-2.5c-2.1-3.1-5.6-5.6-8.4-8.2c-0.7-0.8-1.6-1.2-2.6-1.4c-0.2-0.8-0.6-1.4-1.2-1.8c-3.1-2.6-6.1-5.4-9.3-7.8
		c-2.9-2.5-6-4.2-8.5-7.3c-2.9-1.3-5.6-3.7-8.3-5.5c-2.4-2.2-5.8-5-9.3-4.9c-0.8-2.8-3.3-5.7-3.5-8.6c-1.3-1.5-0.2-2.9-1.9-4.1
		c0.5,2.2,1.9,4.8,2.2,7.1c1.8,1.6,0.2,3.2,1.4,4.5c1.4,5.3,4,11.3,4.4,17c0.2,0.9-0.1,1.7-1,2.4c0,1.9,0.1,3.3-1.1,4.8
		c-1.6,2-0.8,4-1.7,6.3c-0.3,1.9-1.4,3.1-1.1,5.1c2.4-4.7,4.8-9.4,6.8-14.3l0.5,0l0.3,0.7c-1.6,7.5-5.3,14.9-10,21
		c-7.9,11-18.2,17.7-29.1,25.2l0,0.7c0.8,0.2,1.8,0.3,2.7,0.3l0,0.5c-3.1,1.5-6,3.2-8.7,5.4c-6.8,4.4-14.2,6-22,7.6
		c-10.4,1.8-22.5,4.4-32.9,3l0-0.7c3-1.1,5.8-0.8,8.9-1c2-1.1,3.8-0.6,6-0.8c2.9-2.1,6-0.2,8.9-0.7c0.3-0.2-0.2-0.6-1.5-1.2
		c1.9-0.1,3.7,0.2,5.6-0.2c1.9,1,3.1-0.2,5-0.2c3-0.2,5.4-1.4,7.5-3.5c1-1,4.3-2,4.3-3.4l-0.8-0.2c-9.3,2.1-19.6,4.4-28.8,6.6
		l-0.6-0.5l0.3-0.8c1.5-0.1,2.2-0.5,2-1.1c-1.4-0.4-3.9-0.2-4.3,1.6c-1.3,0.5-2.3,0.7-3.2,1.8c-2.5,0.8-4.9,0.1-7.4,0.6
		c-3.5,1.1-7.3,1.9-11,2c-1.7,0.8-3.7-0.3-4.2,1.9c-2,5.8-2.9,12.1-4.5,18.1c-1.6,2.5-1.4,5-2.7,7.5c0-1.7-0.1-3.1,0.8-4.6
		c1.2-7.6,2.4-14.6,4.6-22l-0.8-0.4c-4.6,0.2-9.6,0.2-14-0.7c-1.9-0.2-4.5-0.5-5-2.7c-6.5-0.5-12.8-0.7-19.1-2.9
		c-10.8-2.3-20.5-6.1-29-13.2c-1.2-1.1-0.4-1.8,0.8-2.2c-0.5-1.8-4.1-2.4-5.1-4.6c-3.8-1.2-6.7-4.4-10.6-5.4
		c-1.3-1.8-1.7-4.2-3.6-5.4c-0.8-6.4-1.3-13.1-0.7-19.5c0.5-1.1,1.2-1.4,2-1c0.5,2.6-0.2,5.4,0.4,8l0.8,0c1.9-3.6,1.1-7.1,1.4-11
		c-0.1-0.7,0.2-0.9,1.1-0.8c0,0.8,0,1.5-0.1,2.3c-1.3,1.6-0.6,3.5-0.8,5.5c-0.4,3.4,0.4,6.6,0.2,10c-0.4,1.7,1.4,2.2,1.1,4
		c0,0.9-0.5,1.4-1.6,1.5c-0.6,3.2,2.6,6.2,5.3,7.2c-0.1-2.1-3.5-3.6-3.3-6.2c2.5-0.1,2.8,0.2,3.6,2.6c2.8,0.5,2.6,2.8,4.5,4.5
		c2.6,1.5,4,3,7,2c-0.1,1.8-0.2,2.8,1.9,3.1c0.5,1.8,2.5,4.2,4.6,4.1c1.1,0.7,4,1.6,3,3.4c-1.3,1.1-3.6-1.3-5.1-1.6
		c-1.6-1.1-3.2-1.2-5-1.9c-2.2,0.8,0.1,2.1,1,2.7c7,4.8,14.7,8.4,23,10.3c2.7-2.2,7.9-1.6,11-0.4c3.2,0.4,6.7,1.6,9.2,3.7
		c1.4,0.6,3.2,0.4,4.8,0.6c9.5,0.4,19.1,0.1,28.6,0v0.2c-1.9,0.2-3.4-0.4-5,0.9c-7.2,0.2-14.2,0.6-21.5,0.2l-0.9,0.4v0.7
		c11.1,1.5,22.9,0.8,33.7-2.2c4.7-2,9-3.7,14.1-4.2c1,0.7,2,1,3.1,0.9c0.9,0.3,2.4,0.9,3-0.2c0.6-1.4,2.2-0.7,3.3-0.5
		c8.8-1.8,15.4-3.7,23.3-5c5.1-3.2,10-6.8,15.1-9.9c1.6-1.1,2.8-2.6,4.4-3.7c6.2-4.5,11.3-10,16.1-15.9c3.1-0.2,0.4,2.7-0.7,3.6
		c1.1,0.1,1.8-0.6,2.1-1.6c0.3-1.7,2.2-1.8,2-3.5c-0.4,0.5-1,0.7-1.7,0.6c-0.4-0.8-0.2-1.6,0.6-2.6c2.3-2.4,4-5.1,4-8.6
		c-0.6-1.2-1.9-1.7-0.6-3c0.8-2,2.6-3.7,1-5.9c-1.6-1.2,0.2-3.4,0-5c0.6-2.3-2.7-4.1-2-5.9c1.8,0,2.5-0.7,2-2.1
		c-1.2-3.8-2.9-7.5-3.6-11.5c-0.9-1.1-0.7-2.1-2-2.9c-0.5-2.5-1.5-4.1-2.8-6.2c0-2.6-2.3-5.1-3-7.5c0.2-1.6-1.3-2.3-1.3-4
		c-0.6-1.5-3-3.3-2.2-5c0.6,0.1,1.2,0.5,2,1.1c1.9-0.1-0.2-2.8-0.5-3.6l-0.1,0.1c-0.7,0.6-1.2,1.4-1.4,2.5c-1.1,0.7-2.2,0.7-3.1,0.1
		c0.3-1.8,1.1-2.7,0.7-4.8c-2.4-0.6-2.8,1.1-4.7,1.9c-0.6-0.4-0.9-1.3-0.9-3c-1.2-0.2-2.4-0.5-3.5-0.7c0.1-3-2.2-5.4-2.8-8.4
		c-0.5-1.8-3.8-0.5-3.4-2.6c0.5,0.1,1,0.4,1.6,0.6c1.2-0.6,4-1.8,4.6-2.8c-1.3-0.9-3.9,1.3-4-1.3c0.5-1.2,0.3-2-0.6-2.4
		c-1.8-0.6-2.9,1.2-4.2-0.5c-0.9-1.6-2.5-0.7-3.1-2.2c1.6-3.7,1.2-8.1,3.4-12l1-0.1c1,2.2-0.8,6.1-0.7,8.5c0.7-3.1,4.2-2.7,3.5-6.5
		c-0.4-0.8-2.5-2.5-0.3-2.6c1.2,0.9,2.4,2,2.5,3.6c-0.3,2.1-1.7,3.9-2,6c0.4,1.8-1.7,2.4-1.1,4c2.4,1,4,0.6,4.3,3.8
		c1.1,0.2,2.2,0.4,3.3,0.6c0.6,2.6-4,3.3-3.3,5.5c1.5,2.3,2.9,4.4,4,7c2.7,1.1,5,0.1,5.2-3c-1.4-1.6-0.3-3-1.8-4.5
		c-0.3-1.9,0.5-3.4-1-5c-0.1-1.3,0-2.7-0.1-4c1.2,0,1.9-0.6,2.1-1.5c-0.9-1.1-1.2-2.4-2-3.5c-0.5-2.1-2.8-3.5-4.2-5
		c2.2,0.3,5,2.1,5.5,4.5c1.1,0.9,1.6,1.6,2,3c2.4,0.8,1.8-3.7,0.6-4.5c0.2-1.9-1-2.8-1.6-4.4c-4-6.9-8.1-13-15.5-16.6
		c-1.7-1.3-3.3-1.2-4.5,0.7c-1.4,3.2-4.3,6.1-5.9,9.1c-2,1.5-2.3,1.9-2.4,4.5c-0.4,0-0.7-0.4-0.8-1.4c-1.2-0.1-0.9,2-2.8,1.5
		c-1.4-0.8-2.1-2.6-4-2.2c-3.3,0.6-4.8-2.4-8-1.9c-1.1,0.1-2-1.1-3-1.5c-5-1.2-10.7-2.8-15.5-4.7c-1.7,0-3.3,0-5,0
		c-2.5,1.6-4.9,0.8-6,3.9c-1.9,1.3-1.5-1.9-3.5-0.4c-0.9,2,0,5.7,0.1,7.9c1.1,1,3,0.2,4.4,0.5c1.1,0.6,2.2,0.6,3,1
		c-2.3,0.6-5.3,0.2-7.4,1.4c-0.5,2.8-0.3,7,0,9.9c2.5,0.9,5,1.3,7.4,2.7c-2.1,0.5-5.6-1.9-7.4-0.6c0.6,4.8-0.2,10.2,0.9,14.8
		c1,0.6,2.6,1.1,3.5,1.8c-1.3,0.4-2.1-0.3-3.3-0.4c-0.6,3.5-0.3,7.9,0,11.5c0.7,0.4,2.2,1,2.3,1.9c-0.8-0.1-1.6-0.2-2.4-0.4
		c-0.3,0.8-0.5,1.7-0.6,2.6c-0.8-0.1,0.1-3.4-1.4-2.8c-0.4,2.4,0,5.2,0.1,7.6c2.9,1.2,5.6,2.1,7.2,4.9c-2.3,0.1-4.3-2.5-6.6-2.4
		c-0.5,0.9-0.7,2-0.5,3.4c-0.3,0.4-0.6,0.7-1,1.1c0-1.8,0-3.7-0.7-5.4c-2-1.2-5-0.7-6.6-2.5c0.3-1.1,0.3-2.1-0.1-2.8
		c-0.8-0.1-1.7,0.1-2.9,0.8c-0.7-2.3,0.8-4.3,0.7-6.8l1.6-0.4c0.1-1,0.1-2,0-3c-0.7,3.9-4.5-0.3-3.5-2.4c0.8-2.1-1.5-3-3.1-2.9
		c0.1-2.8,0.8-6.8,1.3-9.8c0.8-0.3,1.6-0.6,2.4-0.9c1.4,1.6,2.7,4.4,2.5,6.6c1.1,0.7,4.5,0.5,5.7,0l0.3-1c-0.4-4.5,0.2-9.5-0.4-13.9
		c-1-0.4-2.2-0.6-3.4-0.6c1.2-1.8,2.1-0.3,3.6-1.5l0.4-1.9c1.1,0.4-0.3,3.3,2.3,2.6c0.3-3,0.3-6.6,0-9.5c-2.2-0.5-4.4,0.7-6.6,0.5
		c-0.1-0.9,0.2-1.4,0.8-1.4c1.9-0.4,4-0.8,5.8-1.5c0.4-2,0.9-5.9,0.2-7.8l-1-0.4c-2.9,1.5-6.5,2.6-9.9,2.1c0.1-0.4,0.4-0.8,0.6-1.4
		c-1-0.1-2.1-0.1-3.2,0.2c-0.2,1.1-0.2,2.2-0.2,3.2c0.6,0.7,0.7,1.4,0.4,2c-2,0.6-4.5-1.3-6.3-1.3c0.3,0.5,0.4,1.1,0.4,1.6
		c-1.1,1.1-3.2,0.2-4.3-0.5c-0.7-1-1.9-3.9-3.5-3.5c-1.8,2.5-5.8,2.4-8.5,3.4c-1.8,0.6-4.1,0.3-5.6,1.4c-1.8,1-4.9,1.2-3.7-1.9
		c-1.6-2.8-3.9-5.8-5.9-8.3c-3.4-1-4.8-4.2-8.1-4.4c0.2,0.4,0.4,0.9,0.6,1.4c-1.6,0.2-2.2-1.4-3.8-1.9c-3.8-1.1-9.6-2.5-13-0.1
		c-3.1,1.2-8.2,2.3-10.6,4.8c1.6,0.2,2.8-1.5,4.6-1.4c3.6,0.3,6.4-2.1,10-1.8c2.8,0.2,5.2-0.4,7.7,1c3,1.8,6.1,2.6,8.5,5.5
		c1.3,0.7,2.6,1.1,3.4,2.5c1.5,3.3,3.3,6.5,2.9,10.2c-0.4-0.5-0.9-0.7-1.5-0.8c-1.4,1.2-2.2,1.5-4,1.6c-2.2-0.1-4,2.1-3.5,4.2
		c-0.9,0-1.7,0.1-2.4,0.5c-0.2,3.5-4.9,2.6-7,1.8c-1.1-1.2-2.4-1.3-3.6-2.3c-1.6-0.5-2.8,1.7-2.1,3.1c2.1,0.3,0.8-1.9,2.7-1.6
		c0.5,0.6,0.6,1.5,0.4,2.5c1.8-0.1,7.2-2.7,7.7,0.4c-3.2,2.3-1.8,5.4-4.6,7.6c-1.1,5.6-4.5,9.8-6.7,14.5c-3.1,1.2-5.4,2.9-8.9,2.5
		c-1.3-0.2-3.3,1-3,2.5c1,1.7,3.9,0.8,5.4,1.5c0.3,2.1,0.7,3.2,2.3,4.7c-0.4,1.5-2.2,3.1-3,4.7c-3.7-0.4-4.8,4.2-5.2,7.1l-0.6,0
		c-0.9-1.6,1.1-5,1.4-6.9c0.2-2,2.8-3.1,2.9-5c-1.7-1.8-3.7-4.2-6-5.4c-3.2-5.2-8.2-7.6-11.6-12.3c-1.8-0.8-1.2-2.2-2.1-3.8
		c-0.2-3.6-0.9-6.9-0.2-10.5c0.3-4.9-1.2-10.8,0.1-15.6c4-9.9,12.4-15.7,21.7-20.1c2.2-0.9,4.8,0,6.8-1.6c2.6-0.9,5.3-1.9,8.1-2.1
		c2.6,0.3,4.5,2.2,7,2.4c1.9,0.4,4.6,0.4,6.1,1.9c2.7,3.2,4.3,7,7.3,10.1c-0.1,2.4,0.8,3.8,1.9,5.8l0.8,0.2c1.3-1.1,4.5-1.8,4.3-3.7
		c5-1.5,9.9-3,14.7-5c2.6-0.7,5-0.3,4.5-3.9c-0.2,0.6-0.4,1.1-0.5,1.6c-1.4,0.6-1.8-2.6-2.5-3.5c0.2-3.1-1.8-4.8,0.3-7.6
		c2-3.4,6.4-2.8,9.4-1.3c2.5,1.6,4.7,5.3,5,8.2c1.4,1.1,3.1,0.8,4.2-0.5c3.7-3,6.3-6.9,10-9.9c1.3-0.3,2.1,1.1,3.5,0.2
		C618.2,83.8,621.7,82.2,626,83.4z"/>
	<path class="st1" d="M621.6,85.4C621,86,619,87.6,618,87C617.4,85.8,620.8,84.7,621.6,85.4z"/>
	<path class="st1" d="M623.3,85.3l0.4,0C623.6,86.2,623.5,86.2,623.3,85.3z"/>
	<path class="st1" d="M627,84.9c1,0.4,3,0.8,3.1,2.1c-0.3,1.7-0.1,4.2-2.2,4.7c-1.9,0.3-3.3,1.3-5,2.1c-1.9,0.3-3.9,0.8-5.8,0.9
		c-2.4-1.6-6.6,0.7-9.2,1.3c-1.9,0.3-3.9,2.4-5.8,1.8c1.1-2.5,4.9-5.5,6.7-7.9c0.1-2,2.9-3.6,4.7-3.5c-0.7,1.2-3.6,1.9-3.5,3.4
		c2.9,0.4,6-2.7,8.9-2c1.7,0.1,3.1-1.2,5-1C625.5,86.8,625.6,85.1,627,84.9z"/>
	<path class="st1" d="M584.5,88.5c2.8-1.7,4.6,0.9,6.9,2.1c1.8,2.4,1.1,4.2,1,7c-0.5,2-3.6,1.8-4.9,1c-0.1-2.2-0.3-4.4-0.7-6.5
		c-0.7-0.2-1.5-0.4-2.4-0.4C584.4,90.5,584.4,89.5,584.5,88.5z"/>
	<path class="st1" d="M671,93.1c0.9,0,4.3,0.3,3.9,1.8c-2.2,1.5-2.9-1.3-5.5-0.6c3.7,2,6.1,2.5,9.6,5.3c3.8,2.8,5.9,8.7,6.4,13.3
		c-0.1,1.2,0.8,4.6-1.4,4c-1.9-4.2-4.2-9.2-7.4-12.5c-1.1-0.9-0.7-2.2-2-2.9c-1.7-0.4-2.3-1.6-3.5-2.6c-3.8-2.4-7.4-3.6-12-4l0-0.6
		C663,92.8,666.9,93.8,671,93.1z"/>
	<path class="st1" d="M656,95.6c1,0.1,5.3-0.5,4.9,1.1c-2.3,1.4-4.5,2.9-6.6,4.6c-1,0.5-2.1,2.4-3.2,1.7c0-0.6,0.1-1.2,0.5-1.7
		c-1.5-0.3-1.8,1.6-2.8,2.4c-0.7,0.8-1.8,3.3,0.3,3c3.1-1.6,5.7-4.3,8.2-6.6l0.7,0c1.3,1.6-2.8,3.8-3,5.7c-2.3,0.8-3.8,2.4-5.9,3.5
		c-1.5-0.8-3.9-2.5-3.5-4.4c-0.4-2.2,2.6-3.3,3.8-4.8C652.2,98.9,652.5,95.9,656,95.6z"/>
	<path class="st1" d="M683,97.1c3,2,6.2,4.6,8.6,7.3c0.6,3.2,1.8,6.4,2.2,9.6c0.2,2-1.7,5.6,1.7,5.6c0.3,3.6-0.6,6.5-1.1,10
		c-0.3,0.4-0.6,0.7-1,1.1c0.1-2.3,1-4.1,0.8-6.6c0-1.1,1-4.7-1.1-4c-0.8,4.1-1.1,8.8-1.7,13c-0.8,3.2-2.1,6.1-3.8,8.8l-0.8,0.1
		c-1-1.2-0.3-3.5-0.1-4.9c1.3-3.1,1.7-6.8,2.8-10c0.4-5.8,0.2-11.7-0.1-17.5c-1.3-1.3-2-2.8-2.7-4.5c-1.4-3.4-4-5.8-6.8-8
		C679.9,95.2,682.3,96.6,683,97.1z"/>
	<path class="st1" d="M645,98.9c0.1,1.7-2.9,3.3-4,4.4c-0.8-0.7-3.3-0.9-2.9-2.3c1.1-0.6,2.4-1.2,3.5-1.7
		C642.9,98.4,644,98.2,645,98.9z"/>
	<path class="st1" d="M541.5,104.5c3.2,1.3,2.9,4.4,7,4c1,2,2.5,3.3,2.9,5.5c-2.3,1.9-3.3,3.6-6.4,4.5c-0.7-0.4-1.2-1-1.5-2
		c-2.3-0.9-3-3.6-5.5-3.6c-1.8-0.1-4.2-0.9-5.5,0.6c-0.7,2.5-0.5,4,1.1,6.1c-2.5,1.3-6.6,3.5-7.2,6.4c0.4,3.9,6.1,4.9,9.2,4.4
		c-0.8,1.8-2.9,2.7-3.5,4.6c-1.8,3.6-2.8,7.8-3.5,11.6c-2.2,0.9-5.3,1.4-7.6,0.6c-2.2-1.6-5.7-3-7.1-5.2c-0.4-1.5-2.9-1.9-3.4-0.4
		c1.1,1.6,1.3,3.3,2.1,5c-1.2,0-2-0.7-3-1.2c-1.1-1.7-3-2.2-3.7-4.3c-4.1-4.4-2.9-11.5-3.2-16.7c-1.5-4.5,0.8-6.9,2-10.9
		c2.3-3,5-5.7,8-7.9c1-0.4,2.1-1.5,3.2-1.3c-1.1,2-4.9,4.2-6.7,5.8c-1.4,1-1.4,1.9,0,2.9c1.9,0.1,3.2-5.7,5.5-3.4
		c1.1-1,1.3-2.5,2.6-3.4c2.3-1.1,4.6-2.2,6.8-3.4c2.4-1.6,4.8-0.5,7.5-1.4C535.2,100.2,539.2,101.5,541.5,104.5z"/>
	<path class="st1" d="M587.5,107.4C587.6,107.6,587.6,107.6,587.5,107.4z"/>
	<path class="st0" d="M508.1,114.1l0.7-0.1l0,0.8l-0.7,0L508.1,114.1z"/>
	<path class="st0" d="M651.4,114.4l0.2,0.1c1.8,2.8,4,5.5,7.3,6.8c0.9,0.7,2.3,1.3,2.2,2.7c-2.1,1-4.5-1.6-6.3-2.6
		C653.1,119.8,650,116.8,651.4,114.4z"/>
	<path class="st0" d="M699.5,120.4l1.1,0c1,3.9-0.9,9-2.7,12.5l-0.7,0l-0.4-1C698.6,128.6,699.4,124.4,699.5,120.4z"/>
	<path class="st1" d="M685.9,123.1c1.1,1.9-0.1,3.9-1,5.6C682.3,128.8,684.3,122.7,685.9,123.1z"/>
	<path class="st1" d="M602,127.2l0.8,0c0.4,4.7,0.4,10,0.6,14.8c-0.6,1.1-1,1-1.3,0c-0.6-4.7-0.5-9.4-0.6-14.1L602,127.2z"/>
	<path class="st0" d="M588.5,132.5l0.1-0.1c0.2,1.4-1.1,2.1-0.9,3.6c0.2,2.2-1.6,3.1-2.3,5.2c-0.7,1.4-0.2,3-2.3,2.7
		c-1-1.5,2-3.6,1.6-5.4c-1.7,1.2-1.7,4.2-3.6,5.1c-2.2-0.6,0.5-2.7-0.3-4.1c-2.5,1.3-1.4,5.4-5.4,4.9c-0.5,1.3-1.3,1.8-2.3,1.6
		c-0.4-0.7-0.5-1.5-0.3-2.5c-1.1,0.4-2.3,2.4-3,3.3c-3.4-0.3-2.5,1.3-4.7,2.8c-1-0.1-1.4-0.8-1.4-2.1c-1.5,0.8-1.2,2.9-2,4.2
		c-0.8,0.2-1.6,0.4-2.3,0.6c-1.1,1.3-0.9,3.6-3.2,2.6c-0.3-0.7-0.5-1.5-0.5-2.4c-1.6,1.8-0.5,4.6-3.3,4.9c-0.6,1.2,0.1,4.6-2.2,3.8
		c-0.4-0.5-0.9-0.7-1.6-0.7c0.4,2.1-2,3.5-2.5,5.6c0.9,2.7,1.1,5.4,2,8c-1.8,1.3-2.4-1.8-3.7-1.7c-0.7,1-1.3,1.5-2,1.5
		c-1.2-4.1,0.1-8.4,1.2-12.4c0.8-1.5,2.2-0.8,2.9-2.1c1.1-1.6,1.5-2.1,3.4-2.6c1-1.8,0.5-4.8,2.8-5.3c1.6-0.6,1.5-3.3,3.5-3.2
		c2.6,0.3,2.6-1.8,4.9-2.5c1.4-0.8,1.6-3.3,3.1-3.9c1.5-0.6,2.1,1.3,3.5,0.6c1.4-1.2,3.5,0.1,4.3-1.5c0.9-1.9,3-1.1,4.2-3
		c1.1-1.3,1.8,0.1,3,0.4c0.8-0.7,1.6-1.3,2.5-1.9c0.5,0.2,1.1,0.4,1.6,0.7c1.4-0.2,1.5-1.9,3-2.2
		C587.3,134.9,587.3,133.2,588.5,132.5z"/>
	<path class="st0" d="M632.8,134.2c0.4,1.3-0.3,2.9,1.3,3.6c1.8,0.3,3.9-1,5.9-0.6c0.2,1-2.5,0.8-2.6,2.5c1.1,0.2,2.3-0.5,3.3-1
		c0.1-1.4,0.5-2,1.4-1.8c1.2,0.8-0.3,1.4,0.4,2.6c2.4,0.2,4.8-0.1,7.3,0.7c0.2,1.1,0.9,1.8,2.1,1.9c1.2,1.7,3,0,4.7,1.3
		c0.1,1.7,0.5,3.1,2.5,3c1.4-0.1,2.3,0.3,3.5,1c0.6,1.8,0,3.6,0,5.5c0.4,1.1,0.6,2,0.5,2.8c-1.8,0.2-2.9,1.5-2.9,3.2
		c1.9,0.8,5.1,0,4-2.8c4-1-0.4,5.8,1.8,6.1c1.5-0.5,2.1-0.2,1.9,0.7c-1,2.2,1.2,2.2,1.3,4c-0.6,1.7,0.4,3.3-0.2,5
		c-0.7,1.7-2.4,3-1.8,5c0.8,0.2,1.6,0.3,2.4,0.4c-0.5,0.7-0.8,1.4-0.9,2.3c-2.5,1.1-5,2.4-7.4,3.6c-1,0.6-1.5,1.4-2.8,1.3
		c1.2-1.5,2.8-2.7,4.1-4c1-0.8,2.7-0.9,2.5-2.5c-1.4-3.1,0.4-5.8-0.1-9c-0.5-1.7,0.7-3.4,0.1-4.8c-0.6,0.1-1.2,0.2-1.6,0.3
		c-0.7-2-2.5-1.1-2.5-3.4c0.1-1.1-0.5-1.4-1.9-1.1c-2.3-0.4,0.1-2.7-0.1-3.9c-0.4-0.5-1-0.9-1.6-1.2c0.2-2.6-1-2.2-2.8-3.3
		c0-0.8,0.2-1.5,0.3-2.3c-1.1-0.6-3.5,0.4-3.8-1.2c0.3-0.9,0.5-1.8,0.7-2.6c-1.9-0.4-3.9,0-5.7-0.5c-0.3-0.7-0.4-1.5-0.4-2.3
		c-0.8-0.1-1.5-0.4-2-1c-0.8-0.3-3.4,0.9-1.6,1.7l0,0.6c-1,0.5-2,0.5-2.8,0c-0.1-0.9-0.2-1.8-0.3-2.6L638,141c-2.3,1.5-4-0.5-6,0.7
		c-1,0.4-1.9,0.4-2.7,0c-0.2-0.8-0.3-1.6-0.3-2.5c-2.5-0.3-4.6,3.4-6.8,2.6c-1.2-1.3,2.1-5.7,3.5-4.5c-0.2,0.5-0.4,1.1-0.5,1.6
		C627.5,138.8,629.8,133.6,632.8,134.2z"/>
	<path class="st0" d="M619,135.6c1.4,0.5,2.2,1.3,2.3,2.4c-2,2.2-0.7,5.9-2.3,8c0.4,3.6-1.7,8.4-0.8,11.9c1.4,2.1-2.3,4.9,0.5,6.4
		c-0.2,1.5-0.8,4.5-2.2,5.2c-3.7-2.9,0.8-6.8-0.9-11.1c-0.4,1.3-0.9,1.8-1.6,1.6c-0.5-2.7-0.1-5.2,1.5-7.5c-1.4-1.2-0.2-3.8-0.4-5.5
		c-0.9-3.8,2-5.3,2.5-9C617.7,136.7,618.2,135.9,619,135.6z"/>
	<path class="st1" d="M630,136.2l0.7-0.1l0,0.6l-0.6,0L630,136.2z"/>
	<path class="st1" d="M598,144.1c1.1-0.6,1.9-0.3,2.4,0.9c-0.4,3.4,1.5,8.9-1.3,10.8c1.6,0.1,2.2,0.9,2,2.3c-0.1,1.7,1,4.4-0.1,5.9
		c-0.9,0.3-1.8,0.2-2.7-0.2c-0.3-2.8,0.2-6-0.3-8.6c-1.4-1.3-1.2-3.3-0.7-5C597.9,148.2,597,145.7,598,144.1z"/>
	<path class="st1" d="M602.2,144.2c1-0.1,1.5,0.1,1.4,0.8c0.1,3.2,0.5,6.7,0.2,9.9l-0.6,0C602.5,151.5,602,147.6,602.2,144.2z"/>
	<path class="st1" d="M655.2,145.8c0.8,0.7,1,1.3,0.8,1.9c-1.1,0.5-2,0.5-2.9,0C652.8,147,654.4,144.1,655.2,145.8z"/>
	<path class="st1" d="M686.4,147.5L686.4,147.5c0.4,0.7,2.5,3.4,0.6,3.6c-0.7-0.6-1.4-0.9-2-1.1
		C685.2,148.9,685.7,148.1,686.4,147.5z"/>
	<path class="st1" d="M660.8,148.1c0.3,0.9,0.3,1.9,0,3c-1,0.7-2.3,0.7-3.9,0C656.3,149.1,658.7,146.3,660.8,148.1z"/>
	<path class="st0" d="M633,154c4.4-0.3,8.7,3.4,7.8,8c-0.9,2.5-2.4,5.6-4.8,6.8c-1.9,0.9-4.2,0.5-6-0.6c-4.6,0.1-5.4-8.4-2.7-10.9
		C629.5,156.2,630.5,153.6,633,154z"/>
	<path class="st0" d="M581.5,158.6c2.3,0.3,4,2.6,5.3,4.4c1.4,1.9,0.4,4-1,5.6c-1.9,3-5.8,2.6-8.8,2.3c-4.1-0.7-7-4.8-4.8-8.8
		C573.8,159.4,578.7,156.1,581.5,158.6z"/>
	<path class="st0" d="M638,162c0.4,2-2.1,3.4-3.3,4.7c-1.7,0.4-4.4,0.7-5.5-1c-1.7-1.1-1.4-3.8-1-5.5c1-1.5,2-1,3.5-1.5
		C634.2,156.6,638.2,159,638,162z"/>
	<path class="st0" d="M578,160c2.5-0.4,5,0.5,6.7,2.2c0.4,1.4,0.4,4.1,0,5.5c-2.2,0.4-3.7,3-5.7,1.3c-0.6,0.4-1.2,0.6-1.8,0.7
		C573.8,167.7,574,161.3,578,160z"/>
	<path class="st1" d="M663.8,160.2c0.4,1.5-0.1,2-1.4,1.4C662.7,160.6,663.1,160.1,663.8,160.2z"/>
	<path class="st0" d="M631.2,161.2c1.2-0.4,2.3-0.4,3.5,0c0.3,0.8,0.3,1.7,0,2.5C633.2,164.7,630.3,163.2,631.2,161.2z"/>
	<path class="st0" d="M581.8,163.2c0.7,1.1-0.9,2.3-1,3.5c-0.8,0.4-1.6,0.4-2.5,0C577.2,164.4,579.4,162.2,581.8,163.2z"/>
	<path class="st0" d="M660.5,171.5l1-0.1c0.1,0.7,0.5,1.4,1.1,2.1c-2.3,2.1-4.8,4.3-7.5,5.7c0.7,2.9,3.7-0.7,5.5,0.2
		c-1.8,0.6-2.5,1.4-4.6,1.1c-2.8,1.8-6.2,1.7-9,3.2c-1.2,0.5-2.1,1.2-3.6,0.7c0.6-0.9,1.5-1.3,2.5-1.8c0.4-3.1,5.8-3.3,8-4.9
		C656.1,175.7,658.3,173.7,660.5,171.5z"/>
	<path class="st0" d="M614,175.5c2.7,0.1,4.2,2,5.5,4c3.9,2.5,7.2,5.7,7.8,10.5c0.1,4.3-1,8-1.9,12.1c-1.2,4.5-3.6,8.4-4.3,12.9
		c-0.2,1.8-2.2,2.6-3.5,3.5c-3.9,1.3-8.6-0.7-12.5,0c-1.6,0.2-2.6-0.4-3.6,1.1c4.4-0.7,7.5,1.1,11.6,1.4c2.3-0.8,4.3,0.1,6.5-1.4
		c4.6-0.8,9.1-2,13.5-3.5c1.5-0.3,3.7-1.2,5.1-0.1c0.2,0.7-0.3,1.3-1.7,1.7c2,0.4,2.5-0.6,4.2-1.1c-1.3-0.1-1.9-0.5-1.6-1.2
		c2-0.6,3.9-1.2,6-1.3c1.2-0.1,2.5-1.3,3.7-0.6c0.4,1.7,0.4,3.2,1.3,4.7c0.6,3.1,0.3,6.4,0.5,9.5c1.5,1.5,4.4,1.1,6-0.1
		c1.4-2.1,2.4-4.5,3-7c0.8-1.3,2-1.1,3-1.9c1.7-3,1-7.2,1.5-10.6c0.5-1,1.7-1.6,2.4-2.5c1.6-1.2,4.3-0.5,6.2-0.9
		c1.3-1.1,2-1.9,3.8-2.2c1.6-1,3.6-1.8,5.1-0.1c-0.9,2.8-2.9,4.4-4.3,6.9c-1.3,2.1-2.5,4.2-3.9,6.1c-3.5,5.2-6.4,10.6-11,15
		c-1,2.9-3,5.4-6.3,5.1c-2.3-0.2-3.8,1.7-5.5,3c-0.7,0.1-1.4,0.1-2.1,0.1c-0.5-4.2-1.5-9.3-6-11.1c-0.9-1.8-1.5-4.3-4.1-4.1
		c-3.2,1.5-3.2,6.7-4.3,9.6c-1.1,2.6-0.3,6-1.5,8.5c-5.5,1-8.2,5.6-13.5,5.7c-3,0-5,1.7-8,1c-3.6-0.6-7.4,0.1-11-0.7
		c-1.7-0.3-2.7,0.5-1.5,2c-2.7-0.5-6.1,0.6-8.5-0.8c-1.2-0.5-3.1,0.6-2.6-1.4c2.3,0.2,5.8,0.4,7.6,1.8c1.3-0.2,2.6-1.4,1.5-2.7
		c-3.1-0.2-6.5-0.8-9.4-1.6c-1.1-4.1-2.3-8.4-5.4-11.6c-1.5-1.7-2.3-5-4.7-5.5c-1.8-0.2-2.7,1.4-3.5,2.7c-0.1,4-0.4,8.1-1,12.1
		l-0.5,0.5c-4.9,1.7-8.6-2.2-14.1-1.7c-1.9-1.7-3.8-3-6.5-2.9c-1.5-1.4-3.1-2.9-4.2-4.6c-1.5-3.2-4.8-3.4-6.8-6.4
		c1.2,0,1.6-0.5,1.3-1.3c-2.1-3.7-4.2-7.2-5.5-11.2c-2-3.1-1.4-6.1-0.8-9.4c2-0.2,4.6,0.8,6.3,1.8c1.8,1.9,3.6,3,6.1,3.9
		c0.8,3.6,1.6,7.3,3.4,10.7c1.5,2.7,2.1,5.4,4.3,7.6c1.2,0.5,2.8,0.2,4.1,0c4.5-3.4,4.9-8.4,6.8-13.1c1.2-0.1,2.4,0.7,3.6,0.6
		c2.2-0.1,3.9,1.3,5.5-0.4c3.2,0,6.3-0.1,9.5-0.1c1.4-1.3,2.4-0.6,3.9-1.5l0.1-1c-3.1-4.1-0.8-8.2-3.9-12c-2.2-1.8-2.7-5.3-4.5-7.5
		c0.1-1.4-0.1-2-1.1-3c1.9-1.2,1.8-3.1,1-5c1.5-3.3,4.1-5.3,7.3-6.7c3.6-2.7,8.6,0.1,12.7-2.1c3.2-0.1,6.3-0.3,9.5-0.3
		C611.6,177,612.4,175.6,614,175.5z"/>
	<path class="st0" d="M513,177l-0.5,1.5c-0.6,2,1.4,0.5,1.8,2.5c-0.4,1-1.2,1.4-2.2,1.3c-1.5,0-2.2,2.1-1.6,3.3
		c1.4-2.4,1.9-1.7,4.2-2.4c0.5,2,0.3,4.9-1.6,6.2c-1.2-0.1-2.1,0.3-2.7,1.1c1,1.1,0.6,1.5,0,2.6c-1.6,2.3-1.1,5.8-1.7,8.6
		c-0.9-0.6-1.9-1.6-2.3-2.6c-0.3-2.5,0.9-5.1,0.3-7.6c-2.2,1.9-3.4,4.2-6.5,4.5c-3.2,0.3-4.7,2.3-7,4.2c-4.2,2.5-8.6,6.4-12,10
		c-0.9,2.2-0.8,2.1-3,2.9c-2.4,2.4-3.7,5.5-6.1,8.1c-2,3.9-2.9,8.6-3.7,12.9c1.3,0.6,3.3-1.1,4.7-1.2c2.5-1.3,5.1-1.9,7.5-3.2
		c1.5-0.5,1.9,1.2,0.5,1.7c-3.1,1.5-6.2,3.6-9.5,4.4c-1,1.4,2.3,2.9,3.2,3.8c0.5,3.2,3.4,4.2,5.4,6.7c0.4,0.6,0.9,0.8,1.7,0.7
		c2.1-4.1,4.6-7.9,8-11c2-1.9,4-3.5,6.9-2.3c-2.8,3.7-7,6.7-9.1,11.1c-0.8,2.2-2.6,2.6-2.1,5.1c3.7-0.2,9.5,0.1,12.2,2.9
		c-3.9-0.9-7.2-2.4-11.4-1.2c-0.7,1.3,1.4,3.4,2.8,2.4c1.5,0.4,3.7,2.9,4.4,4.2c-1.5,1.7-0.2,3.3-1.9,4.5c1-0.3,1.8-0.1,2.4,0.4
		c1.6,2.4,3.1,5,4.6,7.6l1,0c2.9-2.9,6-6.5,9.9-8.1c1.7-0.8,3.3-0.1,5.1,0.1c1.3,1.3-0.7,2.5-1.6,3.3c-1.6,0.8-2.9,2-4.6,2.5l0,0.5
		c4.2,0.7,9.2-0.7,13.4,0.6l-0.1,1.2c-2.9,0.8-6.1,0.8-9,1.1c-2.8,1-5.6,1.1-8.5,1.6c-1.5,0.7-2.6,2.4-1.1,3.8
		c2.1,1.5,1.4,4.4,3.6,5.5c0,2.1,0.7,3.9,0.1,6c-0.6-0.9-0.1-2.5-1.6-3.1c-2.4,0.9-0.5,2.8-2.4,4.2c-2.1,4.6-2.3,8.9-4.1,13.4
		c-0.4,6.4-2.5,12.8-3.1,19.2c-1.8,3.6,0.4,8.6-1.8,11.8c0.1,6.3-0.7,12.9,0.6,19c0.1,1,0.2,2.4,1.4,2.7c-0.1-7.8,1.1-15,1.2-22.7
		c1-2.7,0.7-5.1,0.9-8c1.1-1.2,0.8-2.5,0.9-4c0.9-0.6,0.9-3.3,2.2-2.8c0.6,0.3,0.9,0.9,0.8,1.8c-1.4,7.3-1.4,14.7-2.3,22
		c-0.3,2.6,0.8,6.3-0.9,8.4c-0.4,6.1,0.5,11.6-1.2,17.6c0,5,0.2,10-0.2,15c1.3,4.1-0.3,8.8,0.9,13c0.8,2.2-0.6,3.9,0.1,6
		c0.4,5.5,0.4,11,0.5,16.5c2.3,3.3,2.8,8.1,2.9,12c1.5,0.4,1.3-1.5,1.9-2.5c0.3-2.6-0.6-5.7,0.6-8c0-1,0.1-1.9,0.2-2.9
		c0.8,0.8,2.5,4.4,2.4,5.9c1.4,2,1.9,4.6,1.1,6.9c-1.4,6,2,9.4,2.8,15c0.7,2.3,2.2,5,5.1,4.5c0.3,1.8-1.7,1.8-1.9,3.5
		c1.1,1.4,1,3,1.9,4.6c1.9,1.5,2,4.6,4,6c1,4.1,4,8.1,6.4,11.6c1.9,1.4,3.1,3.8,5.7,3.5c1.4,1.3,2.7,3.1,4.5,3.9
		c1.7-0.3,2,0.8,3.5,1.1c0.4,2.6,5.1,1.6,6.2,4.1c-2.4,0-4.8,0-7.2-0.2c-1-1-1.8-1.1-2.4-0.5c-0.1,2.6,4.9,3.5,5.5,6
		c0,1.5,1.7,2.1,1.1,3.6c-2.4-0.6-4.7-2.3-7.2-2.2c-1.5-1.5-3-3-4.5-4.5c-2-0.6-3.4-2-4-4c-3.4-0.6-2.1-3.9-5.5-4.6
		c-1.7-0.5-2.7-5.7-4-2.5c0.2,2.2,1.9,4.6,3.6,6c1.9,3.8,6.1,6.8,9.1,10c4.3,2,8.7,6.7,13.4,7.6c6.5,3.7,14.6,5.9,21.7,8.2
		c1.9,1.3,4,0,5.8,1.7c2,0.1,3.4-0.3,5,1c1.9,0.1,3.4-0.3,5,0.9c2.9-0.2,6.4,0.5,9.1-0.3c0.9-2.2-1.7-3.8-3.8-3.4
		c-0.2-1.1,1.2-2,0.2-3.1c-2.9-1.3-6.8-1-9.5-2.8c-3,0.3-4.7-2-7.5-2.2c-2.7-1.5-5.1-2.4-7-4.9c-0.1-0.7-0.1-1.4,0-2
		c2.9-1.8,5.7-0.9,9-1c1.5,1.1,2.9,0.7,4.5,0.2c-1.6-4.2-4.6-8.2-6.5-12.3c-0.8-2.1-1.7-4.3-2.8-6.3c-2.1-0.8-4.4,1.2-6.8,0.4
		c-0.6,0.1-0.8-0.3-0.7-1.2c2.1-1.3,4.2-0.7,6.4-1.6c-0.5-3.8-2.8-7.5-3.1-11.7c-0.2-1.1-2-5.8,0.3-5.1c0.2,0.9,0.3,1.9,0.4,2.9
		c1.6-1.6-1-4.7-0.9-6.5c0.1,1.9-0.3,2.8-1.2,2.5c-0.9-2.4-0.1-3.3,0.3-5.4c-0.8-0.4-4.9-0.1-4.4-1.4c1.2,0,2-0.4,2.4-1.1
		c0.1-3.2-1.2-6-1.1-9c-0.3-1.6,0.1-4-2.4-3.5c-12.2,0.1-24.4,0-36.5,0c12-0.2,24.4,0,36.6-0.1l1.1-0.4l0.5-1
		c-0.2-4.9-0.8-9.7-1.1-14.6c-3.1-1.1-6.8,0.6-10.1,0.1l0-1.1c3-0.8,6.7-0.6,9.4-1.5c0.4-1.7,0.2-3.8-0.3-5.5
		c-0.3-6.7-0.3-13.4-0.1-20.1l0.1,0c0,4.5,0.2,9,0.2,13.5c0.2,1,0.8,1.2,1.7,0.5c-0.5-6.6,2.2-15.3,0.5-21.3
		c-2.1-0.5-4.4-0.4-6.5-0.7c-0.4-0.3-0.8-0.6-1.1-1c2.6,0.1,5.1-0.1,7.6,0.4c0.4-1,1-1.9,1.5-2.8c-0.1-3.9,1-9.9,0.3-13.8
		c-3.1-1-8,0.1-10.4-1.8c3.5-0.9,7.7,0.6,11.1,0.1c0.2-4.7,0.6-9.4,1-14.1c1.5-4.1,1-8.4,2.3-12.5c0.2-1.8,1.1-3.5-1.6-3.4
		c-0.4-2.1,3.3-2.5,3.5-4.7c0.7-3.8,2.5-7.2,3.1-11c0.5-1.7,1.7-4.2,1.1-5.9c-1.6-0.9-3.2,0.2-4.8-0.2c0.4-2.7,5.1,0,6.3-2.3
		c1.4-3.5,2.8-7.1,4.5-10.5l-0.1-1c-1.8-1.1-4.8,1-6.7,0.8l0-0.6c2.2-1.5,5.3-1.8,7.8-2.2c1.4-0.1,1-2.2,2.7-1.8
		c0.5,1.1,1.3,1.5,2.3,1.3c3.9-0.4,7.7-0.1,11.5,0v0.1c-2.2,0.1-4.4,0.1-6.6,0.3c-2.4,1.4-6,0-8.5,1.7c-1.4,2.8-2.4,5.6-3.7,8.4
		c-0.5,1.2-1.2,2.8-0.7,4.1c1.8,1.2,4-0.2,5.9,1.2c2.2,0.1,4.4,0.1,6.5,0.2l0,0.1c-2.2,0.1-4.4,0.1-6.6,0.2c-2,1.7-3-0.7-4.9,1.4
		c-4,3.8-5.7,10.3-6.7,15.5c4.2,0.2,9.4-1.9,14.2-1.2l0,0.1c-1.5,0.1-2.7-0.1-4.1,0.9c-3.3,0.5-6.8,1.3-10,2
		c-2.5,4.8-2.2,10.9-3.8,16.1c-0.4,5.7-1.4,10.9-2.1,16.5c0.5,1.7,2.3,1.1,3.6,1.7c1.7,0.6,3.6,0.3,5.4,0.8c0.8,0.7,1.8,1,3,0.9v0.1
		c-1.8,0.1-3,0-4.5-0.8c-2.4,0.8-5.8-0.9-7.8,0.3c-0.3,5.1-0.6,10.7,0,15.8c4.2,1.6,8.7,1.7,12.8,3.4c1.8,0.2,2.6,1.4,4.5,1.3l0,0.1
		c-1.1,0.1-2.1,0.1-3-0.1c-3.4-1.6-7-1.4-10.5-2.4c-1.6,0.6-1.2,0.6-2.8,0.2c-1.6,1.1-1.1,3.1-1.2,4.8c0,4.7,0.5,9.4,0.6,14.1
		c-2,1.9-0.2,3.9-2.2,5.5c-1.1,3.5-0.6,6.9-1.2,10.4c0.5,8.9,2.1,18.9,4.2,27.6c1,0.5,2.8,0.5,2.1-1.1c-1.9-6.8-2.5-13.5-3.5-20.5
		c-0.8-2.7-0.2-5.4-1.5-8c0.4-1.3,0.4-2.7,0.1-4.1c1.9-2.3,0.1-5.4,1.4-8h0.9c0.5,2.3,0.5,4.7,0.7,7.1c-1.3,1.5-1,2.5-1.1,4.4
		c0.2-1.1,0.6-1.6,1.3-1.4l0.7,1.5c4.6,0.5,10,0.9,14.1,3.1c-1.5,0.2-2.3-0.2-3.6-0.7c-3.6,0.2-6.7-1.4-10-0.7c-1,1.7,0.4,4.8,0,6.8
		c1.2,3,0.3,6.2,0.1,9c0.8,2.8,0.9,5.7,1.5,8.5c0.6,1.6,0.4,3.5,2.4,4c5.9-0.5,11.7-0.8,17.6-0.1v0.1c-2.1,0.2-4.1,0-6,0.9
		c-4,0.3-8.1,0.4-12.1,1c-0.3,1.8,0.6,3.2,1.1,5c1.6,5.8,3.7,11.5,5.9,17.1c1.4,0.7,2.6,0.3,4,0c3-0.2,6-0.1,9.1,0
		c0.4,0.3,0.7,0.6,1.1,1c-4-0.1-8.7-0.1-12.4,1.5c0,2.7,2.5,6,3.4,8.7l-1.3,0.3c0.2,2,2.3,3.9,3.2,5.6c1.3,1.5,2.3,4,4.6,3.6
		c1.8-1,3.6-0.8,5.5-0.8c-2.5,0.4-3,1-6.3,1.7c-0.2,1.4,1.8,1.9,1.5,3.5c-1.7-0.5-2-3.6-4.6-2.4c-0.9,2.5,2.8,3.6,3.2,5.7
		c0.1,1.5,2.6,2.5,1.7,4c-2.1,0.1-3.5-3.7-4.6-4.5c0.1,1.2-0.3,1.7-1.2,1.4c-0.7-0.9-1.1-2.5-2.2-3c-2.8-0.9-6.8-0.2-9-2.3
		c-1.7,0.2-5.1-0.9-5.6,1.4c1.5,2.9,4,3.4,6.6,4.9c1.5,1.2,3.6,0.7,3.4-1.5c1.3,2,3.1,1.8,4.5,3.6c1.8,0.5,4.5,2.5,4.2-1
		c2.1-0.1,4,4.3,5.4,5.6c0.4-1.3-2.7-3.5,0.2-3.5c1.7,2.4,4.4,1.5,6.5,0.3c0.8-0.5,3-1,2.6-2.3c-3.5-1.6-8-2.5-11.8-3.5
		c-0.2-0.7,0.5-1,1.9-0.9c4.3,1.4,8.6,2.3,13,3.4c0.7-0.3,1.2-0.5,1.6-0.5c0.2,2.1,1.9,1.6,3.4,1.9c3.1,1,6.4,1.2,9.6,2
		c-0.5,2.7-4.8,1-6.6,0.7c-2.2-1.5-4.7-1.3-7-2.3c-1.9-0.4-5.7,2.4-6.6,3.9c4,1,7.8,0.2,11.6,1.6c2.5,0.1,5.1-0.1,7.6,0.2l0,1.1
		c-4,0.1-8.1-0.1-12.1-0.1c-2.7-1.7-6.5-0.3-9.5-1.4c-0.5,0.6-0.3,1.5,0.6,2.5l-1-0.1c-0.2-1.6-2.9-3-2.5-0.6
		c1.8,2.2,3.6,5.6,5.9,7.1c7.5,0.2,15-0.5,22.5-0.6c2.9-0.8,6-0.8,9-1c3.4-1.1,7-0.3,10.4-1.7c4.6-0.6,9-1.8,13.6-2.3
		c8.7-3,17.2-4.6,25.1-9.8c2.1-1.6,5-2.4,7-4.2c-3.2-0.4-5.9,3.1-9.1,3.1c-1.3,1.8-3.2,1.8-5,2.9c-2.7,1.5-6.1,1.5-9,3
		c-3.5,0.3-7.2,1-10.6,2c-3.5,0-7,0.2-10.5,0.1v-0.1c4.4-0.6,8.6-3.2,12.5-5.4c8-3.3,16-7.8,22-14.1c3.8-3.8,7.9-7.8,10.5-12.5
		c2.7-1.3,4.9-2.9,6.9-5.1c1.1-0.9,0.9-2.2,2.2-3c0.2,1.3-0.8,1.8-1.2,3.1c-2.1,2.6-3.2,5.9-5.4,8.5c-6.4,8.4-14.3,16.6-23.9,21.2
		l0,0.5c0.8,0.2,1.6,0.1,2.4-0.3c8.8-3.5,17.2-8,25.7-12.2c2.2-0.8,2.7-3.8,4.8-4.2c3.7-0.5,6.5-2.5,9.1-4.9
		c2.3-0.6,0.2,2.1,2.5,1.5c1.8-1.2,1.3-1.5,0.7-3.2c2.2-1.6,3.4-3.9,5.3-5.6c0.2-3.6,2.6-4.9,4-7.8c0.6-1.7-0.8-4.6-1.8-6
		c-1.6-0.3-2.6-1.3-3.9-2.2c-1.3-0.8-2.7,0.4-3.3-1.7c-1.5-5.6-3.2-11.4-4.5-17.1c-0.5-0.8-0.3-1.5,0.4-2.4c1.9-2.6-1-4.2-1.1-7.6
		c-2-4.3-2.5-8.8-4.7-13c-0.7-2.3,0.1-4.7-0.8-7c0.2-2.7-2.5-5.8-1.3-8.2c0.4-3.9-2-8.2-3.5-11.8c-0.2-0.9-0.8-1.4-1.7-1.5
		c-2.2-5-2.9-10.1-3.6-15.5c0.2-5.6-1.4-10.5-1.4-16c-1.2-8.5-0.8-16.5-1-25c0.2-5.5,0.8-11.1,0.9-16.6l1.1,0
		c0.7,3.7-0.4,8,0.5,11.6h0.6c0.5-3.9,1.2-8,2.5-11.7c1.3,0.8,3.5,2.4,3.3,4.3c1.2,1.5,1.9,3.3,3.1,4.8c-0.3,6.7-2.5,13.8-1.3,20.7
		c0,3.3,1.2,6.2,1.2,9.5c1.1,1.3,0.8,2.5,0.9,4.1l0.1,0c0-2.8,0.2-5.9-0.5-8.5c0-6.4-0.1-12.5,1.3-18.8c0.6-0.1,0.8,0.5,0.8,1.7
		c-0.2,7.3-0.3,14.7,0.3,22c0.2,5.7,1.8,11.5,2.9,16.9c1.2,6.8,4.6,16.3,7.2,22.5c0.1-1,0.5-1.5,1.2-1.4c2.5,4.4,0.4,11,1.5,15.9
		c1.8,5.3,4.5,10,6.8,15.1c1.5,2.4,2.5,5.7,4.5,7.6c0.9-1.7-0.4-2.9-0.8-4.6c-0.9-2.7-3-5.8-3.3-8.6c2.1,2.5,3.5,6.2,5,9.2
		c2.1,0.9,1.5-3.8,3.5-3.5c0.3,0.8,0.4,1.7,0.4,2.6c2.2,0.8,0.8-3,1.2-4.2c-2.6-0.2-0.4-3-0.2-4.3c1-2.1,1.3-5.3,3.2-6.8
		c-1.4,5.4-0.2,11.3-1.6,16.6c0,2.8-1.2,6.2,0.3,8.7c1.1-0.8,2-1,2.8-0.8c1,1.6-1.1,2-0.6,3.6c0.8,0.5,1.4,1.2,2,2
		c1.7-1,1.3-3.7,2.9-5.2c1.2-0.3,2.2-0.1,2.8,0.7c1.2,2.7-1.2,6.4-0.9,9c1.4,1.9,5.2,2,7.3,2.5c2,1.9,3.3,4,6,5
		c3,1.9,6.4,0.9,9.4,1.7c1.6,0.8,3.6-0.2,5.2,0.7c1,1.7-1.7,4.2-2.7,5.5c-1.2,0.7-2.1,3.4-3.7,1.8c-2.3-0.9-5.7,1.1-8.4,1.1
		c-0.1,0.8,0.1,1.3,0.6,1.5c1.7,1.4,3.2,3,5,4.3c1.7,0.7,3.7,0,5.5,0.4c0.8,0.6,1.7,0.9,2.5,0.7c4.8,0.1,9.9-0.5,14.6,0.1
		c-0.3,0.4-0.6,0.8-1.1,1.1c-3.7,0-7.4,0-11-0.1c-1.8-1.1-3.9-0.6-6-1c-1.2-1.4-3.8-0.7-1.8,0.9c2.4,1.9,4.9,3.8,7.5,5.4
		c1.7,0.2,2.9-0.6,4.6,0.5c0.6,2.8,0.7,2.8,2.7,4.7c0,1.7-0.8,2.8,0.3,4.3c0.5,0.4,0.3,3-0.7,2c-2.4-0.7-4.2-1.6-6.3-2.9
		c-3.7-1.2-6.9-3.7-9.5-6.5c-1-0.7-1.8-2.3-3.1-1.8c-1,1.9,2.3,5,3.7,6.3c3.7,5,7.8,9.7,13,13.2c-3.3-0.5-6.8-3.7-9.3-5.9
		c-1.3-1.3-1.7-0.1-3,0c-1.4-1.6-2.7-3.3-3.8-5.2c-2.6-2.7-5.3-5.5-7.6-8.5c-0.2-1.7-1.3-3-2.8-3.6c-1.2,1.8-3.3,3.4-4,5.6
		c-4.9,4.7-10.1,9.5-15.6,13.5c-0.4,1.7,1.1,1.1,1.8,2.3c1.5,2.8,4.2,3.7,4.1,7.2c-0.4,2.3-1.7,0.2-3,0.4c1.2,1.5,5.4,3.9,1.6,5.1
		c-3.3-1.1-6.3-2.3-8.6-5.1c1.2-0.1,1.6-0.5,1.3-1.2c-1-1.4-1.8-2.8-3-4c-0.9-0.3-1.5-0.1-1.8,0.8c0,2.4,1.8,4.5,1.7,7
		c0.2,4.5,1.2,9.1,0.9,13.5c-1.4-0.1-1.9,0.3-3.1,1c-0.8-1.5-1.1-2.4-1-4.1c0.7-0.3,1.4-0.6,2.2-0.9c0.4-0.7,0.5-1.6,0.4-2.6
		c-1.1-4.1-1.7-8.6-3.5-12.5c-2.9,0.1-6,2.5-9.1,3c-7.8,4.7-15.9,9.9-24.5,13.5c-3.4,1.5-6.8,2.8-10.5,1.5c-2.7-1.6,0.9-3.9,2.4-4.2
		c0.2,1.2-1.8,2.5,0.1,3.3c3.7-0.1,7.5-2.4,10.8-3.9c8.1-4.2,18.3-10.2,25.8-15.2c-4.3,1.3-8.4,4.2-13.1,5.1
		c-4.3,1.8-8.9,1.8-13.5,1.2c-2.7,1-4.7,3-7.4,3.9c-1,0.7-2.2,0.9-3,1.9c-7.5,2.9-14.9,6.1-23,7.1c-4.6,1.9-9.4,1.3-14,2.9
		c-4.5,0.6-9,1.1-13.5,1.1c-7.3,1.5-15.9,0.8-23.5,1c-1.5,0.8-2.5-0.9-3.5,0.5c-0.7,0.4-1.5,0.2-2.5-0.5c-5.4,0-10.2-1-15.5-1.6
		c-3.4-0.1-6-1.6-9.5-1.5c-2.4-1.4-4.2-2.1-7-2c-1.3-1.2-2.4-0.9-4-1c-0.8-0.7-1.8-1-3.1-0.9c0.9-0.3,3.7,0.1,5,0
		c1.6,1.5,3.1,0.8,5,1c2,1.7,4.2,0.2,6.5,1.5c6,0.2,12.9,1.5,18.8,0.8c0.2-1.2-1.8-2.9-2.8-3.4c-5.2,0.4-10.3,0.1-15.5,0
		c-1.6-1.5-3.1-0.7-5-1c-1.3-1.2-2.5-0.8-4-1c-1.5-1.1-3-0.6-4.5-1.7c-3.8-0.3-7.4-2.2-11-3.2c-6.7-2.2-10.8-4.1-17-7.6
		c-0.7-0.8-1.5-1.4-2.5-1.6c-1.4-1.1-2.1-2.5-4-3c-2.4-2.2-4.7-4.6-6.9-6.9c-0.5-2.4-3-3-3.6-5.5c-1.4-2.3-2.6-4.6-0.5-7
		c0.3-2.8-4-4.2-4.5-7c-2.3-1.3-2.9-7.4-5.8-6.8c-0.5,0.6-0.7,1.4-0.8,2.1c-1.4,10.3-3.6,20.3-8.9,29.3c-0.2,1-2.5,2.1-2.3,0.4
		c0.6-3.4,2.2-6.7,3.1-10c-0.4-4.2,4.2-7.7,4.1-12c0.6-1.9,1.3-4,1.7-6c0.6-4.4-1-8.8-2.1-13c0-0.9,0.5-1.7,1.4-2.5
		c-0.1-1.1,0.7-2.5-1.1-2.3c-0.1,0.9-0.3,1.8-0.7,2.6c-1.8-0.6-1.5-4.4-3.3-5.4c0.5,5.2-2.2,8.2-4.8,12.2c-3.4,4-7,7.6-10,12
		c-0.8-0.1-1.6-0.3-2.5-0.5c-1.5,1.1-2.9,3.4-5.1,2.5c-4.8-1.4-7.7,5-10.5,7.9c-5-0.6-7.2,3.5-8.8,7.4c-0.9,3-2.5,5.6-3.3,8.6
		c-1,2.5-3,5.8-2.1,8.5c-1.3,7.6-4.9,14.8-5.9,22.5c-1.8,4.7-2.2,10.5-3.3,15.5c-0.6,3.7-0.8,7.3-0.6,11c0.4,2.4,2.5,2.7,4.5,3.1
		c1.8,1.2,4,1.1,6,1.9c3.4-0.4,6.7-0.4,10,0.3c1.4,0.5,2.9,1,3.3,2.7c0.2,2.4-2.2,4.1-4,5.3c-0.7,1.1,0.7,2.6,1.7,2.8
		c2.6-0.1,3.6-2.1,6-2.8c3.2-0.8,5.4-2.8,9-2.6c2.3,0.5,3.7-1.2,6-0.6c3.9,0,5.5,4.4,10,3.5c2.8,0.2,5.6-3.2,8-1.6
		c1.9,2.3,4.4,1.8,7,2.8c2.5,1.1,5.4,1.1,7.1,3.1c2.2,2.7,3.2,5.9,5,8.8c0.8,0.2,1.6,0.5,2.4,0.7c2.9,3.8,3.9,9.2,5.3,13.7
		c1.3,0.8,3.5-0.6,4.9-1.1l0.2-1c-1.9-4.2-4.2-8.3-6.8-12.2c-1.8-2.2-4.1-3.9-6-6c-1-1-2.2-2.5-0.2-3.4c4.9-0.3,6.6,3,9.4,6.2
		c3.2,2.4,7.6,5.8,10.5,8.5c0.8,2.2,2.9,2.6,2.7,5.4c0.5,0.6,0.8,1.3,1,2.1c2.4,0.6,5,1.1,7.5,1.4c4.6,0.8,8.7,2.9,12.3,5.7
		c3.1,1.4,7.8-1.1,10.7-2.2c2.8-0.5,5.3-2.8,7.9-3.8c0.6-0.1,0.9-0.6,0.8-1.6c-3-1.3-5.2-4.4-6.8-7.1c0-0.9,4-3.7,4.7-2.7
		c1,2.6,2.4,5.1,3.4,7.7c0.5,0.7,1.1,1,1.9,0.8c3.3-2.4,6.3-4.7,5.6-9.3c1.4-1.8,3.8-0.5,5-3.4c-0.1-13.4-0.8-26.8-1.1-40.1
		c1-1.4,1.2-1.7,1.1-3.5c-0.4,0.1-0.7,0.2-1.1,0.3c-0.3-1.6,1.3-2.1,1.1-3.7c0.8-2.6,4.2-3.8,6-5.5c1,0,2,0,3,0c0.8,0.9,1.7,1.2,3,1
		c0.4,1,1.9,2,1.2,3.1c-1.3,2.3-4.3-0.5-5.6,2.4c-0.2,1.6,1.9,1.4,2.3,3c0,1.6,1,3.6,2,4.8c1.3-0.1,2.5-0.1,3.3-1.3
		c-1.2,0-1.7-0.5-1.5-1.5c1.1-5.3,3.3-9,7.4-12.5c2.1-0.1,4-0.7,6-1c0.2-2.6,2.8-1.2,4.5-1.2c4.9,1.4,7.8,6.2,10.3,10.3
		c1.5,0.3,2.5-1.3,2.2-2.7c0-1.8,0-3.7,0-5.5c0.9-1,1.9-2,3-2.9c1,0,2,0,3-0.1c-0.5,2.4,1.6,2.6,0.9,5c-1,1.1-2.3,2.1-2.9,3.5
		c0.4,2.7-1.3,3.8-1.1,6.6c-1,1.5-0.8,3-1.9,4.4c-0.4,2.1,0.2,4-0.7,6c-0.7,2.1,0,4.2-1.4,6c0,2-0.6,4,0.9,5.5c0,2.9,0.5,5.6,1,8.5
		c1.6,4.9,2.5,9.7,5.9,13.7c3,4.7,7.8,7.5,12.7,9.8c1.9,0.4,3.3,1.7,5.5,1c3.4-5.9,10.4-7.5,16.2-9.8c2.4-4.2,6.4-7.8,9.8-11.2
		c5.2-3.2,10.8-2,16.3-0.8c0.9-0.8,2.8-2.3,3-3.5l-1.5-0.6c0-1.4,3.3-1.6,4.3-2.1c2-0.9,5.2-3.5,6.2-5.3l-0.8-0.3
		c-2.7,1.1-5.7,4.2-8.6,4.6c1.4-1.5,2.7-2.7,4.6-3.4c1.8-0.8,4.5-3.5,6.5-2.6c-0.4-1.1,2.3-3.1,3.2-3.2l0.2,0.7
		c-1.6,2.9-3.6,5.8-5.5,8.5c-4,3.9-7.3,8.2-9.8,13.2c-1.4-0.7-3-0.8-3.5,1c0.8,0.2,1.7,0.3,2.6,0.5c0.3,0.8,0.4,1.7,0.3,2.8
		c0.2,1.5,2.9,1.9,4,2.7c3.4,2.7,8.5,2,12.5,1c2.5-4,5.7-8.8,9.8-11.3c4.1-3.5,9.5-4.3,14.6-2.9c0.7-0.4,1.1-1.1,1.2-2.3
		c1.3-0.7,3.7,0.5,2.1,2.1c-0.3,2.5,1.4,1.1,2.6,0.9c3.1,2,5.6,7.1,8.6,9.4c1.2-1.6,2.9-4.6,3.1-6.6c-3.5-5.2-11.2-5.9-16.2-8.6
		c-1.7-2,0.7-3,2.1-3.9c4.4-2,6.2-8.1,10.4-10.4c2.1-0.8,4.8-0.4,6.9,0c0.5,2.2-4.1-0.1-5.4,1.3c-4,3-5.7,8.9-11.1,11
		c-0.7,1.3,0.6,1.8,1.6,2.1c4.7,1.4,7.7,2.7,11.8,4.1c1.1-2.7,1.9-5.4,2.6-8.3c0.8-0.4,1.6-0.5,2.3-0.2c0.4,1.8-0.8,4.3-0.3,6.3
		c1-0.8,1.3-1.3,1.5-2.6c0.3-3.4,0.6-6.7,0.6-10c-0.1-1.9-2.8-1.4-2.5-3c0.8-0.2,1.7-0.3,2.5-0.4c0-2.3-0.1-4.7-0.1-7
		c-1.4-3.5,0.1-7.9-1.9-11c-2.7-2.2-5.1-4.5-8.5-5.4c-2-0.3-1.8,1.8-3.5,1.5c-0.6-2.2,2.7-2.4,1.1-4.1c-3.8-3.3-8.9-6.8-14.1-6.9
		l0-0.2c5.8-0.9,11.8,3.5,15.7,7.4c2.9,1,5.8,1.5,8.6,2.9c0.6-1.7-0.6-3.9-0.7-5.7c-0.3-4.7-3.5-9-3.6-13.6c1.7,1.2,2,3.5,3.5,4.7
		c0.7,0.4,1.1,1.1,1.1,1.9c0.1,3.3,2.4,6.1,2.5,9.5c1.3,1.7,0.6,1.7,1,3.1c0.1-1.8,0.1-3-0.9-4.5c0.2-3.5-1.4-7.2-2.2-10.5
		c-1.6-1.3-1.2-4.7,1.3-3.3c3,7.6,4.9,16.2,5.8,24.3c0.3,0.4,0.6,0.8,1,1.1c0.1-1.5-0.2-2.3-0.7-3.6c0.5-3-0.7-6.1-0.2-9.1
		c2.5-0.5,3-2.3,5.4-2.9c1.1-1.3-0.4-3.5-0.6-5c-0.8-3.2-1.6-6.2-2-9.5c-0.7-1.5-1.2-2.5-1.1-4.2c2-0.4,4.4,1.4,6.2,2.2
		c0.3,1,0.6,2.1,0.9,3.1c4.2,3.1,5.5,7.3,8.1,11.4c-0.2,1.7,0.8,3.5,2,4.6c-0.2-1.7-0.1-3.3,0-5c-3.3-0.3-1.2-6.5,2-4
		c1.7,3.2,0.9,8,0.7,11.5c-2.1,4.7,1.2,6.8,1.4,11.5c0.5-5.3,1.2-9.6,0.9-15c-1.4-1.3-1-3-0.3-4.5l0.7,0c1.1,1.9,2.5,3.9,3.3,5.9
		c1,13.8-0.3,28.4-1.8,42.1c-0.4,1.3-0.4,2.5,0,3.6c4.5,1.5,8.5,3.3,12.7,5.2c2.6-0.6,5.1-0.2,7.7,0.5c2.8,2.2,5.3,4.6,7.9,7.1
		c10.5,8,20.2,18.1,29.3,27.7c1.2,3,4.1,3.7,5.7,6.4c1.1,1.3,2.3,2.4,3,4c3,3.1,6,6.5,7.5,10.5c3,2.5,4.4,6.4,6.1,10
		c0.1,1.8,1.3,2.2,2.2,3.5c2.3,7.3,5.2,13,8.2,20c2.2,1.7,2.2,4,3.9,6c1.5,2.5,3,6.8,1.6,9.6c-1.8,0.7-4.3-0.4-6.1-1
		c-0.9-2.8-3.5-5.6-3.5-8.5c-1.2-1.2-2.3-2-2-3.9c-2.1-0.3-2.7-2.2-3.1-4.1c-1.5-1.5-2-4-3.9-4.9c-1.3-0.1-3.8-0.1-4.3-1.6
		c-1.1-3.3-3.2-7-4.7-10.5c-2-2.1-4.6-5.7-7.5-6.3c-1.2,1.5,0.6,3-1.4,4.3c-1.7,1.3-2.4-0.2-4.1-0.1c-0.1,1.7,3,2.9,3.2,5
		c2.1,1.8,5.4,5,4.9,8c-2.3,3.2-4.8,3.1-8,1c1.2-1.9-0.3-2.9,0-5c-2.8-0.4-2-2.8-4.2-3.8c-3.4-4.2-7.6-8.1-11.8-11.2
		c0,1.2-0.4,1.9-1.4,2.1c-2.8,0.2-4.5-1.7-5.6-4.1c-2.2-0.6-3.9-0.4-5.2-2.6c-0.9-2.3-2.9-2.9-4.5-4.7c-2.2-0.7-4.5-0.5-6.7-1.3
		c-3.6,0-7.4-1.5-10.9-0.9c-0.4,1.3,1.2,1.8,1.7,2.8c2.7,3.9,5.5,7.3,7.8,11.5c2.5,2.9,4.1,6.5,5.8,10.1c1.9,3,2.4,6.7,4,9.9
		c0.1,2.8,2,5.4-0.1,7.8c-0.6,2.6,2.5,5.4,0.4,8.5c-2.7,1.7-3.3-1.6-4.2-3.3c-3.7-0.8-7.4-0.2-8.1-5c-1.5-1.4-2.8-3.4-4.4-4.6
		c-1.8,0.7-4.2,1.1-5.8-0.1c-0.2-4.2-1.8-6.5-5.3-8.6c-2-1.6-2.8-2.7-5.7-2c0,1.4,0.5,2.5,0.9,3.7c0.5,3.2-0.1,7.3-2.7,9.6
		c2-5.9-1.4-10.7-5-15c-6.4-7.6-14.7-14.2-20.8-20.2c-2.6-0.7-5-2-7.7-2.4c-1.4,0.7-2.8,0.2-4,1l0,1c1.8,1.4,1.3,2.8,2.5,4.5
		c2.5,3,3.3,5.6,5.1,8.8c2,5,5.2,9.5,7.9,14.2c2,2,1.9,6.1,3.9,8c0,1.3,0.1,2.7,0,4c-1,0.6-2,0.9-3,1c1.8,2.9,2.6,5.6,4,8.5
		c2.7,4,4,10,6,14.5c0.1,2.5,2.7,6.1,0.1,8c-1.8,0.3-6.6-0.1-6.9-2.5c-4-4.6-6.4-10.7-9.5-16.1c-0.8-2.5-1.5-4.6-3.6-6.5
		c-0.4,0.4-0.8,0.6-1.4,0.5c-0.4-1.1-0.6-2.3-0.7-3.5c-0.5-0.5-1-1-1.5-1.5c-0.7-2.4-3-3.9-3.5-6.5c-1.5-1-2.1-2.5-3-4
		c-2.3-2.3-4.2-5.2-6.2-7.7c-0.6-1.8-1.5-1.3-2.9-2.1c-0.3-0.8-0.5-1.5-0.6-2.3c-1.8-1.9-3.1-4.5-5.5-5.5c-1.5-1.2-3.3-1.9-4.6-3.3
		c-2.5-1.3-5.8,0.2-8.5-0.6c-6.5-2.5-12.1-6.4-18-9.9c-4.1-0.6-7.4-1.8-11.5-1.5c-1.5-2.4,3-1.3,4.1-1.9c-4.2-1.6-8.1-2.5-12.5-3.7
		c-4.6-1.1-8.4-3.3-12.5-5.3c-3.9-0.8-7.3-3-11-4.1c-1.2-1.2-2.3-2.3-3.9-3c-1.6-4-4.7-2.5-8-3c-4.1-1.4-7.8-1.5-11.2-4.7
		c-1.6-1.5-2-3.7-2.6-5.7c-0.5-2.2,1.8-3.8,1.3-6c-1-2.9-3.9-4.5-5.2-7c0-4.7-2-7.6-3.2-12c0.1-1.4-0.2-2.5-0.9-3.5
		c-0.4-4.4,1.1-9.5-2-13c-0.6-3.3-1.8-6-1.3-9.5c0.6-3.1,0.2-5.9-1.7-8.5c0-2.3-1.1-4.2-1.7-6.5c-1.4-0.3-2.2,1.3-2.4,2.5
		c-1.1,1.2-1.5,1.5-2,3.1c-0.4-3,3-5.7,3.1-8.6c-1-1.8-2.4-1.4-3.4,0.1c-2.7,3.4-3.6,7.8-4.5,12c-0.6,1.7,1.4,2,0.9,3.5
		c-2.6,3.3-1.6,6.7-2.4,10.5c0,2.6,0.3,5.4-0.1,8c-0.8,2.5-0.1,5.4,0,8c1,3.3,0.2,7.1,1.5,10.5c0.1,2.1,0,4.4,0.7,6.5
		c0.7,2-0.6,3-1.6,4.5c-0.7,2.3-1,5.1-0.7,7.5c1.5,2.6,1.8,7-0.7,9.1c-2.1,1.8-4,3.6-6.7,4.4c-2.2,1.5-4.6,1-6.9,2
		c-5.7,0.2-11.9,1-17.5-0.2c-2.4-0.1-4.6,2.4-7,3.1c-6.4,3.4-13.1,4.8-20.1,6.5c-15,3.4-30.7,3-45.2-2.4c-3.1-0.9-5.4-2.8-8.7-2.8
		c-3.3-0.1-7.4-0.5-10.5,0.9c-1.4,1-2.6,0.4-4.1,0.9c-5.2,3.9-10.4,8.4-15.5,12.4c-4.5,3.3-8.5,7.5-13,11c-2.7,2.7-5.9,4.8-8.4,7.6
		c-2.6,2.9-5.5,5-7.5,8.5c-1.2,1.8-1.9,4.2-4,5.1c-1.9,0.8-3.2,3-4.3,4.6c-0.8,1.6-2.3,2.5-2.7,4.2c-2.6,4.3-4.9,8.4-6.9,13
		c-1.1,2.4-4.1,1.4-6.1,0.8l-0.5-0.8c0.1-7.9,1.7-14.9,3.1-22.5c1.8-1.7,1.2-5.3,2.3-7.5c1.9-6,4.5-11.6,6.6-17.5
		c1.4-2.7,2.9-5.4,3.8-8.3c0.6-1,1.4-1.5,1.3-2.7c-3.1,0-5.5,3.6-8.1,5c-6.9,5.6-13.9,12.5-19.9,19.1c-1.4,2.2-1.8,4.9-2.9,7.1
		c-1.9,2.7-5.6,1.4-6.3,4.8c-2.4,1.8-3.8,5.1-5.3,7.6c-2,2.6-3,5.7-4.6,8.4c-1.2,1.9-4.5,0.7-6.2,0.2c-0.8-2,0.5-4.9,2.1-6.2
		c0.5-2.4,1.8-4.9,3-7c0-1.6-0.2-2.8,1-4c-0.1-3.3,1.2-5.9,2.1-9c2.8-7.2,5.9-14.4,10-21c0.7-2.1-1.6-0.6-1.5-2.5
		c2.1-3.7,5-6.8,7.7-10c0.5-1.7,3.1-2.8,2.9-4.6c-2.4,2.3-4.7,4.7-7.1,7.1c-2.7,3.1-6.3-0.6-9,3c-0.7,0.1-1.4,0.1-2.1,0.1
		c-1.4-3.7,2.7-5,3.1-9.1c-2-0.2-4.1,0.8-6.1,1.1c-5.2,0.9-8.8,6.6-14,7c-2.1,1-3.8,2.9-5.5,4.4c-1.7,1.5-3.9,1.7-5.5,3.6
		c-3.6,3.6-7.6,7.4-10,12c-2.1,1.5-4-1-6,1c-5.9,5.5-12.5,11.4-16.3,18.5c-1.6,3-5.3,0.8-7.7,0.5c1.9-2.8,2.9-7.5,4.7-10.5
		c0.6-1.4,1.4-2.5,1.6-4.1c6.1-13,14.7-24.4,24.5-34.8c0.9-0.4,1.6-1.1,2-2c13.4-13.7,27.3-27.2,43.8-37.2c4.5-3.2,9.1-6.2,14.1-8.8
		c1.3-0.5,1.2-2.6,1.4-3.8c2.1-0.4,0.1,1.9,2.5,1.9c1.8-0.7,3.5-0.3,4.6-1.8c1-4.8,2.1-9.7,3.8-14.3c2-2.4,5.6-2.4,5.2-6.3
		c2.9-11.8,4.3-21,8.1-32.6c-0.9,0.6-1.9,0.4-2.1-0.8c-1.2,2.7-2.3,4.8-5.5,5.3c-1.1-1.7,1.5-3.3,2.4-4.5c0.4-1.8,0.2-3-0.8-4.5
		c-0.2-2.1,0.6-4.4,0.9-6.6c0.8-1.6,1.5-3.2,1-5.1c-2,2.6-3.6,5.9-6,8.1c-2-0.8-3.8-1.1-5.6,0.3c-17,16.4-36.1,31-55.2,44.9
		c-13.4,8.2-27.7,15.4-41.9,22c-2.3,1.5-5.2,1.7-7.3,3.8c-1.1,0.9-0.6,2.1-2.2,2.7c-1.3,3-4.1,2.4-6.9,4.3c-0.2-1.5,1-1.4,1.8-2.3
		c3.3-3.1,7-5.7,10.2-8.9c1.4-2.3,4.1-3.8,5.3-6c-1.7-0.2-2.1,1.5-3.7,1.6c-5,1.1-8.7,5.2-13.5,3.5c-0.9-1.4,0.5-2,1.6-2.4
		c2.7-1.1,5.4-2.2,8-3.4c1.2-0.1,1.8-0.3,2.6-1.3c-1.6,0.4-5.1,1.8-6-0.4c4.2-3.8,11-7.5,15.6-11.8c3.2-2.4,5-5.6,7.4-8.6
		c8.8-12.9,19.2-23.6,28.1-36.9c6.4-7.9,13.3-15.4,20.2-22.8c0.8-0.9,2.1-1.1,1.8-2.6c-4.2-1.7-7.8-4.3-11.7-6.5
		c-2.3,0.8-3,3.1-5.8,1.9c0.1-1.6,4.4-2.3,3.4-4.2c-3.9,1.5-6.6,4.2-10.1,6c-1.2,0.6-1.3,2-2.4,2.7c-11.4,7.3-22.2,14.4-34.4,20.4
		c-18.6,10.8-36.9,22.3-57.8,28.2c-1.9,0.6-3.2,0.4-5-0.2c-4.6,1.4-9.2,3.5-14,4.2c-3.1,0.9-5.6,2.9-9,3c-2.4,0.1-5.2,0.8-5.5-2.4
		c-2.3-0.2-4.2,1.1-6.5,1.3c-3.7,0.4-8.1,1-11.6-0.2c-0.9-1.4,0.4-2.1,1.3-2.9c5.6-3.7,11.3-7.5,17.3-10.5
		c8.4-4.6,16.2-9.8,23.9-15.4c10.5-8.1,21.1-15.9,31.4-24.4c5.4-4.5,11.1-8,15.9-13.1c5.7-5.1,11.7-11.3,17.1-16.8c2-3,5.3-5,7.1-8
		c-1.3-0.1-1.7,0.8-2.8,1.2c-5.5,2.5-10.9,4.4-16.3,6.9c-3.4,2.4-7.2,4.1-10.5,6.6c-2.7,1.3-4.6,3.5-7.5,4.5c-1.4,1.4-4.3,4-6.4,3.2
		c0-0.5,0.1-1,0.4-1.4c-1.6,0.1-3,1.2-4.5,1.9c-6.4,2.7-12.9,5.2-19.6,7.3c-1.9,0.7-3,2.2-5,2c-0.2,0.8-0.6,1.4-1.5,1.7
		c-5,2.9-10.8,4.2-16,6.9c-4.3,1.6-8.8,3.1-13,5c-0.1,0.7,0.4,1.1,1.4,1.2c-4.1,2.4-9.5,4.5-14.4,4.6c-3.4,0.7-5.9,2.6-9,3.9
		c-2.3,0.4-5.6,1.1-7.7-0.2c-1-1.6,0.1-3.3,0.9-4.7c-0.3-1.3-2.5-1.6-3.3-3c-1.3-0.8,1-1.9,1-2.8c-3.4-0.3-6.2-0.3-9.4-1.8
		c0.9-1.1,2-2,3.5-2c7-1.9,13.9-4.1,20.6-7c2.1-1.6,3.8-3.4,6.5-4.1c1.5-0.3,3-0.5,4.5-0.9c6.3-3.7,13.5-7.1,19.6-11.4
		c1.1-3.4,3.8-5.2,6.4-7.6c3.6-3.2,7.4-6,11.5-8.5c1-0.8,0.1-4.4,2.4-2.5c1.4-1,3.7-3.5,4.2-5.2c-1.5-1.3,1.6-2.2,1.9-3.7
		c2.3-0.6,4.1-2.6,6.5-3.5c10.9-9.5,22.1-18,34.4-25.6c4.5-2.6,8.9-5.5,13.6-7.3c4.2-3.7,9.4-5.6,13.2-9.8
		c4.5-3.1,8.2-7.1,12.4-10.6c2.6-2.5,5.3-4.9,7.5-7.6c0.2-0.5,0.7-0.7,1.5-0.6c-0.9,2.4-4,5.4-3.3,8.4c0.8,0.5,1.5,0.4,2-0.5
		c1.3-2.7,3-5.4,4.1-8.2c-0.6-4.5-0.3-7.9,1.8-12c6.1-12.2,17.8-21.6,29.3-28.5c6.7-3.7,14.4-7.9,22.2-7.9c4.2-2.8,10-6.2,11.8-11.2
		c2.2-2.9,4.2-5.6,3.9-9.5c0.4-7,0.3-14,0.5-21c-0.4-1.6,1.3-2.7,1.6-1c0.7,6.5,0.1,13.2,0.9,19.6c1.4-2.3,2.4-5.6,4.4-7.6
		c2.3-3.1,1.8-7.3,2.9-11c0.8-4.7,2.2-9.1,2.6-13.8l0.6,0c1,2.1,0.1,5.2,0.4,7.5l0.2,0c0-2,0.5-2.7,1.9-4.1
		c-0.5-3.2,1.4-4.5,1.2-7.5c0.7-0.9,1-1.9,1-3c2-2.4-0.2-5.2,2.9-7.5c0.4-4.4,3.4-8.6,5.2-12.6c0.9-1.4,1-2.9,2.7-3.4
		c1.4-2.6,2.1-5.7,4-7.9c0.8-1.9,2.2-4.1,2.3-6.2c-0.8,0-2.6,2.1-2.4-0.1c2-3.3,4-6.6,6.2-9.8c2.2-2.1,4.2-4.4,6.5-6.5
		c2.7-3.8,7.4-6.3,11.3-8.6c2-0.6,3.8-0.2,5.4-1.7c2.4-2.4,5-4.5,8.2-5.7c1.2-0.3,2.8-1.8,3.9-1c0.3,1.3-1.2,2.1-1.9,3.1
		c-3.9,2.8-7.3,6-10.6,9.4l-0.1,1.2c3.3,0.8,4.1-3.8,7.1-4.3c0.5-0.3,0.9-0.8,1.1-1.4c0.4-1.4,2.1-1.2,2.9-2.4
		c1.9-1.4,4.9-1.8,5.9-4c0.6-1.5-0.2-2.6,1-4C510.4,180.4,511,176.4,513,177z"/>
	<path class="st0" d="M568,180.2c2.9,0.8,8.5,1.7,10.6,3.5c-0.6,0.3-1.4,0.2-2.1-0.1c-3.3-1.2-7-1.7-10.4-2.8
		c-0.6-0.1-1.1-0.5-1.5-1.1C564.9,179,567.1,180.3,568,180.2z"/>
	<path class="st0" d="M558.4,180.4c3.3,0,6.2,3.5,9.2,4.2c-2.9,1.1-5.7-1.9-8.5-2.8C558.4,181.7,558.2,181.2,558.4,180.4z"/>
	<path class="st1" d="M653.9,180.8c-1.4,0.1-3.6,1.6-4.8,1.1C648.7,180.4,654.6,178.4,653.9,180.8z"/>
	<path class="st0" d="M513,190.1c1.1,0.9,0.3,3.1,0.5,4.4c-1.3,1.3-0.9,6-2.5,6.5c-0.8-1.4-0.7-5.4,0.1-6.8
		C512.4,193,510.7,189.9,513,190.1z"/>
	<path class="st1" d="M750.2,203.1c0.9-1,2.5,0.8,3.4,1.3c1.6,1.3,2.9,3.6,5,4.1c2,0.9,0.8,3.6-1.1,3c-2-1.8-4.8-3.4-6.9-5
		C751.1,205,750.3,204.6,750.2,203.1z"/>
	<path class="st1" d="M603.4,213.3c0.7-0.3,1.5-0.3,2.2,0c-0.1,0.6-0.8,0.7-2.2,0.3V213.3z"/>
	<path class="st1" d="M615.5,215.6c1.3-0.8,2.4-1,3.3-0.6c0,2.8-5.7,3.7-7.8,3C610.7,216.7,614.7,216.7,615.5,215.6z"/>
	<path class="st0" d="M763.8,228.1c1,1.2,4.3,4,3.1,5.7c-2.1,1.5-4.3-3-5.4-4.3C762.2,228.9,763,228.4,763.8,228.1z"/>
	<path class="st1" d="M772.4,237.4c0.9-0.2,1.4,0,1.5,0.6C774,240,771.1,239.2,772.4,237.4z"/>
	<path class="st0" d="M535.3,241.4c1.1-0.4,1.5-0.3,1.3,0.4C535.7,242.1,535.2,241.9,535.3,241.4z"/>
	<path class="st1" d="M473,242c1.8,0.2,3,2.7,4.3,3.8c1.1,1.5,3.6,2.8,2.4,4.9c-2.1,1.2-4.3-2.6-6.3-2.3c0.5,1.7,2.9,1.9,2.6,3.6
		c-3.5,2.2-9,4.1-11.6,7.6c2.7,0.4,5.5-1.9,7.6-3.2c2.4-0.5,3.4-2.7,5.9-2.2c0.6,1.4-0.8,3.3-0.9,4.8c-0.5,5.3-2,10.1-1.5,15.5
		c0.3,0.4,0.6,0.7,1,1.1c0.2-6.5,2.9-13.5,5.7-19.4c1.6-0.2,2.9,2.6,4.2,3.3c0.6,2.2,1.1,3.8,2.7,5.5c0.6,0.1,1-0.1,1.4-0.5
		c1.9,1.4,1.7,4.6,4.1,5.1c0.4,0.6,0.8,1.2,1.1,1.9c-5.2,1.9-10.2,4.3-14.8,7.5c-1.2,1-1.8,2.3-3.5,2.6l-0.1,1
		c2.6-1.6,4.7-3,7.5-3.9c3.3-1.4,7.1-3,10.6-3.3c-4.5,5.9-6.4,12.8-6.1,20.2c0.4-0.3,0.7-0.7,1-1.1c1-3.3,3-6.5,4.8-9.4
		c2-2.4,2.9-5.5,5.1-7.8c1.3,0.1,1.9,2,1.1,3.1c-2.4,1.6,0.3,6.3-1.8,8.2c-2.5,1.5-4.4,5.5-4.2,8.4c-1.8,1.8-0.2,3.7-1.9,5.5
		c0.3,2.1-1.4,2.5-1,4.5c0.3,1.8-1.4,2.1-1,4c0.3,1.8-1.4,2.2-1,4.1c-1.1,1.5-1,2.1-1,4c-2.2,2.3,0.2,5.2-2,7.5
		c-0.3,2.2,0.6,5.3-1,7c-0.3,2.2,0.7,5.4-1,7c0.2,9.7-1,19.4,0,29c0.7,1.2,1.1,2.1,1.2,3.5c1.2,6.2,3.2,12.6,3.5,19
		c0.7,5.3,0.1,10.7,0.4,16c0.6,6,4.3,10.9,4.7,17c0.3,3.3,2.9,7.3,2.2,10.5c-2.9,3-6.4,3.9-10.3,4.7c-1,1.8-2.8,3.3-4.5,4.4
		c-4.8,2.3-11.1,1.5-16.3,1.9c-0.6,0.4-1.2,0.7-2,0.9c3,0.5,4.3,6,7.1,6.9c1.2,1.5,1.8-0.5,3.3,0c2.2,0.9,4.5,1.3,6.9,1.9
		c-0.2,1.3-2.7,3.1-3.8,3.8c-1.5-0.3-2.4-1.5-4-1.5c-3.2,0.2-4.1,4.5-7,4.8c-6.9-0.9-14-0.5-21-0.6c-2.1,0.2-2.3,1.3,0,1.2
		c6.5,0.2,14.7-0.4,20.9,0.1l0,0.9c-2,2.6-4,5.3-6.1,7.8c-1.8,1.2-4.3,3.4-6.4,3.8c0.5-1.6,1.8-2.9,3-4.1c0.9,0.8,1.6,0.7,2-0.5
		c-0.4-2-2.8-1.5-4.1-0.6c-2.6,1.9-4,4.9-6.3,7c-0.9,0.1-1.7,0.2-2.6,0.1c-0.1,0.8-0.2,1.6-0.4,2.4c-0.9,0.3-1.4,0.8-1.6,1.7
		c-1.3,0-2.8,1.2-2.4,2.6c0.8,0.2,1.7,0.4,2.6,0.4c-2.5,2.3-4.4,5.6-6,8.5c0,0.5-0.3,0.7-1.1,0.6c1.7-2.6,1.4-7.1,4.2-9.5
		c0.2-1.6-0.3-2.5-1.6-2.7c-4.3,0.7-8.7,2.2-13.1,2.2c-7.2,0.7-15.5,1.3-22.1-2.4c-4-1.7-7-5.1-11.5-4.7c0.4-0.4,0.6-0.8,0.5-1.3
		c-1.5-0.8-3,0.1-4.5-0.7c-3.5-2-7.4-3.9-10.6-6.5c-0.5-1.8,2.4-2.2,2-4c-1.4-1.5-3.2,2-4.4,2.5l-1-1c0.8-1.3,3.5-2.7,3.3-4.3
		c-2.6-2.9-4.5-6.1-6.7-9.2c-4.1-4.4-8.4-9.7-11-15c-2.4-1.7-6-3.1-9-2.8c-1.3,0.1-2.9-0.1-2.6-1.8c2.1-1.6,4.8-2.6,7.1-3.9
		c0.4-0.6,0.5-1.3,0.1-2c-1.2,0-3.1,2.1-4.4,1.4c0.4-2,2.5-3.8,2.9-5.9c-0.6-4.9-3.4-9.6-3.7-14.5c-1.7-5.6,1.1-11.8,0.1-17.1
		c-0.4,0.4-0.9,0.6-1.5,0.6c-0.7-1.9,1-2.2,2.4-2.5c0.3-3.3,1.7-8,3-11c7.4-13.1,21.2-23.5,33.5-31.8c1.8-0.7,3.2,0.7,4.5-1.1
		c-0.4-0.4-0.5-0.9-0.5-1.5c1.2-0.2,1.8-0.8,1.6-1.6c-2.1,1-3.6,2.6-5.7,3.3c-5.1,3-10.1,6.8-14.9,10.2c-1.2,0.8-2.6,2.8-4,2.8
		l-0.3-0.8c2.5-3.1,4.5-6.3,8.3-8.2c3.4-2.9,7.1-4.7,11.1-6.6c2.2-1,4.5-2.9,7-2.2c3.1,0.9,6.7-2.2,9.4-3.6c3.4-1.6,5.4-4.4,8.1-6.9
		c2.5-1.2,4.9-2.1,6.8-4.2c1-1.1,2.2-1,3.5-1.5c3.7-3.5,7.3-6.6,9.9-11.1c0.6-1.9,1.4-3.6,3.4-4.4c1.9-0.5,2-0.9,2.5-2.8
		c3.5-1.3,5.6,2.8,8.3,2.4c0.6-1.5,0.3-3.3,0.3-4.9c-0.3-4.6,1-9.4,1.4-14c-0.2-1.5,0.8-2.5,0.9-4c0.3-3.6,2.7-5.5,2.2-9
		c-0.5-3.1,1.1-5.4,1.1-8.5c1.1-2.8,1.5-5.6,1.9-8.5c1.3-3.4,2-7,3.1-10.5c1-0.9,1.9-3.8,3.3-3.5c0.8,3.9,0.4,8.5,0.5,12.6
		c0.4-0.3,0.7-0.7,1-1c0.1-3,0.8-6,1.1-9c0.9-1.8,0.3-3.8,1.7-5.2c1.4-0.3,2.2,1.3,3.7,0.9C471.1,243.5,471.9,242.5,473,242z"/>
	<path class="st1" d="M666.7,248.5c0.6,2.3-2.2,2.8-3.7,3.8c-2.9,2.9-7.7,4.4-11.6,5.3c2.4-2,5.7-3.2,8.5-4.6
		C662,250.6,664.5,250.6,666.7,248.5z"/>
	<path class="st1" d="M554.1,255.2c4.1-1.2,5.9,0.4,9.7,1c0.9,0.8,3.4,0.3,3.1,1.8c-2.7,0.9-7-0.9-9.9-1.1
		C556.3,256.7,553.7,256.2,554.1,255.2z"/>
	<path class="st0" d="M467.6,285.4c1.2,0.9,1.5,1.7-0.4,1.3C467,285.9,467.2,285.4,467.6,285.4z"/>
	<path class="st1" d="M805.5,295.5c-0.1,2.4-0.1,4.7,0,7.1c-1.8,0.4-0.7-1.5-1.7-2.6c-0.9-0.3-1.6-0.8-2.3-1.5
		C802.6,297.6,803.9,295.1,805.5,295.5z"/>
	<path class="st0" d="M776.4,305.4c1.5-0.7,2.8,1,2.3,2.3C777.2,308.4,775.8,306.8,776.4,305.4z"/>
	<path class="st1" d="M411,319.3c1.5,0.9,2.2,0,3.6,0.1c-1.8,2.7-4.4,2.5-6.8,4.3c-1.5,1-2.9,2.5-4.8,2.2c-2.2-0.2-3.8,0.6-5.7,1.4
		c-5.1,3.9-9.7,8.2-14.2,12.8l0,1l1,0.2c3.3-2.8,5.6-6.6,10.1-7.4c0.4-2.2,3.5-3.7,5.6-3.4c-1.9,1.9-3.7,3.7-5.6,5.6
		c-2.9,2.6-6.6,4.1-9.9,6.2c-1.6,1-1.6-0.3-3-0.2c-5.1,5.2-10.3,10.4-15.4,15.6c-1.4,1.3-1.7,3.7-3.2,4.9c-0.3-2,0.9-3.2,1.1-5.1
		c7.4-16.2,22.9-27.7,38.7-35.1C405,321.5,408.1,319.5,411,319.3z"/>
	<path class="st1" d="M823.3,327.2c1.3-0.4,1.7,1.2,3.1,0.2c1.5-1,4,0.7,5.6,1c13.7,6.1,26.1,14.3,35.5,26.1
		c2.9,4.3,6.9,9.8,7.1,15.1c-1.6-1-0.9-2.6-2.3-3.9c-8.7-8.7-17.2-17.6-26.1-25.9c-3.3-2.3-5.2-5.3-9.1-6.1c-2.2-1-4.1,0.2-6.1-1.5
		c-1.6,0-2.3,1.2-3.4-0.7C827.6,328.8,823.5,329.3,823.3,327.2z"/>
	<path class="st0" d="M360.7,336.3c-0.5,1.5-2.8,3-3.6,4.8c-1.2,1.3-2.7,4.7-4.7,4.6c0.5-1.9,2.7-4.5,3.8-6.3
		C357.3,338.2,359.1,336,360.7,336.3z"/>
	<path class="st1" d="M837.4,337.4c2.6,0.4,5.4,2,7.1,4.1c3.2,1,4.8,3.5,7.3,5.7c0.6,0.7,1.8,1.5,1.9,2.4c-0.7,0.1-1.2-0.2-1.7-0.6
		c-1.9-1.5-4.4-2.4-6.5-3.6c-1.4-1.2-2.7-2.6-4-3.9c0-1.9-3.1-2.1-4-4L837.4,337.4z"/>
	<path class="st0" d="M878.5,344.4c2.6,2,4.6,5.5,6.1,8.3c-1.6,0.2-2.7-1.7-3.5-2.8c-1.4-2.3-3.5-4.1-4.7-6.4
		C876.8,342.9,878.2,344,878.5,344.4z"/>
	<path class="st1" d="M844,348.7c4.1,2.1,8.3,3.8,12.2,6.1c1.9,1.9,4.3,3.1,6.4,4.7c1.5,1.2,1.9,2.9,4,3.1c2.1,1.6,3.9,3.4,5,5.9
		c0.4,0.9,1.8,2.2,1.3,3.2c-0.9,0.1-1.7-1.6-2.4-2.1c-7.5-7-16.7-13.2-25.4-18.6C844.2,350.4,841.2,349.3,844,348.7z"/>
	<path class="st1" d="M490.4,353.4h0.1c0.1,1.6-0.2,2.7,0.9,4.1c0.3,2.2-0.6,4.4,1,6c0.3,2.2-0.5,4.1,1,5.9c0.5,2.8,0.4,5.5,0,8.2
		c-0.9,1.4-0.8,2.4-1,4c-2,2.1,0.6,4.3,1,6.4c0,3.9,0,7.7,0.1,11.6c-1.9-2.6-0.9-6.4-1.3-9.6c-2-2.3,0.1-5-1.8-7.4
		C490.4,373,490.6,363.2,490.4,353.4z"/>
	<path class="st1" d="M696.5,358.5L696.5,358.5c0,3.6,1.7,6.9,2.2,10.5c1.3,5.1,2.7,9.8,4.2,15c0.5,1.3,1.4,3.3,0.8,4.7
		c-0.7,0.2-1-2.1-1.3-2.7c-1.8-5.5-3.4-11.4-4.9-17C697,365.3,695.7,362.3,696.5,358.5z"/>
	<path class="st0" d="M415.6,360.4c0.2,1.1,0.5,2.2,0.8,3.2c2.6,1.1,5.9,0,8.6,1.6c3.8-0.3,7-1.9,11-0.9c6.6,0.4,11.6,4.6,14.5,10.3
		c2.4,2.2,5.9,0,9.1,0.9c-1.1,0.5-2.6-0.1-3.2,1.6c0.3,0.6,0.7,1.1,1.2,1.5c-1-0.2-1.9-0.1-2.7,0.3l-0.1,1.1c5.6,5,9.8,11.6,11.3,19
		c0.1,2,2.1,1.3,3.4,1.5v0.1c-0.9-0.1-1.8,0.1-2.5,0.5c-0.4,1.1-0.3,2.4,0.2,3.8c3.5,1.1,6.8,1.9,9.8,4.2c1.9,1.6,3.3,4.1,2.6,6.7
		c-2.9-4.2-7.1-7.4-12.3-8.3c-0.2,7.9-2.4,15.5-7,22c-2.8,2.8-5.5,6-8.8,8.2c-0.2,0.7,0,1.2,0.5,1.6c2.1,2.3,4.6,4.3,6.6,6.5
		c-1.9,0.2-4-1.6-5.6-2.4c-1.8-0.9-3.1-3.1-5-3.4c-3,1.2-6,2.5-9,3.4c-1.1,1.4,0.8,2.8,0.6,4.4c-1.4,0.6-2.2-3.2-3-4.1
		c-6,0-11.5-0.9-17.1-2.9c-0.9-1.2,0.9-2.4,2-2c3.7,1.9,9.4,3.8,13.5,2.4v-0.7c-5.7-1.5-10.9-3.9-15.5-7.7c-1.4-1-2.6-2.2-4.4-2.7
		c-0.4-1.8-1.9-3.7-3.6-4.3c-0.1-0.8-0.4-1.5-0.8-2.2c-2.5-3.3-4.1-7-6.8-10.2l-0.8-0.2c-2.7,1.9-4.7,4-6.6,6.6
		c0-0.7,0.1-1.4,0.1-2.1c1-1,1.5-2.4,2.4-3.5c0.5-0.8,2-1.7,1.9-2.8c-1.2-0.7-3,0.1-2.5-1.9c1.1,0.2,2,0.2,2.8-0.2
		c0.5-1.6-1.1-3.2-1-5.1c-1.2-2.2,0.1-4.9-1-7c-1.5-1.3-3.6-1.8-5.1-3.1c-1.1-0.6-1.2-3.2,0.7-2.6c1.4,1.5,1.9,2.5,4,3.2
		c0.4-4.3-0.7-9.1,0.6-13.5l0.9,0l0.4,1c-0.5,3.5-0.1,7,0.1,10.5c0.8,0.7,1.1,1.8,0.9,3.1l1,0c0.1-2-0.5-4.6,0.8-6.3
		c1.6-3.4,4.6-6.7,5.7-10.2c-1.5-2-3-4.8-5-6.3c-2,1.2-2.4,5.1-3.3,7.2l-0.8,0c-1.1-3.4,2.7-7.8,4.6-10.5c1.9-1.2,2.4-3,5-3.1
		c-0.8,1.3-2.5,1.1-2.8,2.6c1,2.4,3.2,4.3,4.5,6.6c0.7,0.1,1.3-0.1,1.6-0.7c0.9-1.5,3.4-2,3.1-4c-1.3-2.9-2.8-5.9-3.2-9
		C412.4,359.7,414,359.5,415.6,360.4z"/>
	<path class="st1" d="M417.2,365.2c1.1-0.6,6.3-0.8,5.7,1.6c-1.5,0.6-2.9,2.9-4.5,2.8C418.3,368,417.2,366.7,417.2,365.2z"/>
	<path class="st1" d="M435,366.5c2.8-0.3,4.2,2.1,6.5,3.1l0.1,1c-1.1,0.1-1.9-0.8-3-1.1c-2.9-1.6-6.9-0.6-10.1-0.9
		c0.3-0.4,0.7-0.7,1.1-1C431.9,367.7,432.5,366,435,366.5z"/>
	<path class="st0" d="M824.3,368c0.6,3.5-2.2,7.7-3.2,11c0.2,1,3.7,4.4,4.8,3.9c1.6-1.9,3-3.9,4.5-5.9c-0.1-1.3-1.2-1.6-1.9-2.6
		c1.4-0.3,2.2,1.1,3.3,1.9c6.7,6,7.9,15.2,6.8,23.8c1.2,4.2,4.5-4,5.5,0c-0.6,2.3-4.1,3.1-5.9,4.2c-1.5,2.5,0.2,6.2-1.3,8.8
		c0,1.4-1.5,2.7-0.9,3.9c1.3,0.7,2.2-0.5,3.5-0.4c0.6,2.3-3,1-2.5,3.5c1.2,1.5,2.2,3.1,3.4,4.5c0.1,0.7,0.1,1.4,0.1,2.1
		c-1.3-1.2-1.8-2.9-3.5-3.8c-1.2-0.7-1.9-2.9-3.6-2.4c-2.7,4-5.4,8.1-7.8,12.3c-1.6,1.1-3.2,2.8-3.1,4.9c-2.8,0.4-4.1,2.2-6.3,3.8
		c-3.1,2.1-6.6,4.2-10.2,5.2l-1-0.4l0-0.9c2.8-1.4,6.1-2.8,8.5-4.7c-3,0.8-6.2,2.7-9.5,3c-0.9,0-1.8,1-1.6,2
		c1.3,0.1,1.8,0.6,1.5,1.3c-1.1,0.4-1.9,0.7-2.6,1.7c3,1,6.5,0,9.6-0.6c2-0.3,4.6-2.7,6.5-1.5c1.2,1.4-0.5,1.8-1.6,2.1
		c-3.2,0.7-6.7,2-10,2.2c-1.6,0.2-3.4-0.1-5,0.4c-1.2,0.7-1.8,2.4-2.6,3.4c-0.4-1.6,0.8-2.9-0.9-4.1c-2.7-1.3-5.7-2-8.5-3.3
		c-3,1.3-6.3,6-9.8,5.6c1.1-2.5,5.9-4.9,6.5-7.6c-3.5-3.1-7-6.4-10-10c-2.3-4-3.8-8.6-5-13.1c-0.6-2.2-0.3-4.7-0.9-6.9l-0.8-0.2
		c-4.5,1.5-9.4,4.2-11.6,8.7c-0.4-2.9,0.7-4.7,2.1-7c3.3-2.3,6.6-3.2,10.3-4.5c0.7-1.8,1.1-3.1-0.4-4.6c1.5,0.1,1.8-1.3,2.2-2.5
		c1-5.1,4.1-10,7.3-14c1.4-1.9,4.9-3.8,5.8-5.7c-2.5-0.6-4.8-1.9-7.3-2.8c2.7-0.4,4.9,0.9,7.6,0.7c2.4-1.1,3.1-4.1,5.2-6
		c5-5.9,13.8-6.4,20.8-4.6c3.2-0.4,6.7-1,9.8-1.7C821,369.2,822.4,365.6,824.3,368z"/>
	<path class="st1" d="M425.5,370.6c3.2,0,7.6-1,10.4,0.6l0,0.6c-3.5,0.5-7.1-0.4-10.5,1.6c-1.4,0.2-2.7,1.1-4.1,1.1
		C419.9,371.9,424.1,371.7,425.5,370.6z"/>
	<path class="st0" d="M366.4,372.4l0.3,0.1c0.2,1.3-0.9,3.5-2.4,2.3C364.1,373.7,365.6,372.7,366.4,372.4z"/>
	<path class="st1" d="M819.8,372.1c0.4,1.3-0.2,3.5-1.2,4.5c-1.3,0-5-2.4-5.5-3.4C815.3,372.5,817.7,372.7,819.8,372.1z"/>
	<path class="st1" d="M352.7,373.2c0.2,1.1,1,2.3,0.9,3.4c-0.9,0.5-1.7,0.6-2.4,0.3C350.5,376.3,352.1,373.4,352.7,373.2z"/>
	<path class="st1" d="M799.5,374.5c3.7-1.4,5.4,0.7,9.1,0.9c-0.4,0.6-2.8,0.3-3.6,0.7l-0.1,0.9c2.8,0.8,6.2,0.7,9.1,2.1
		c1,0.5,2.8,1.2,1.9,2.6c-2.6,0.2-5.2-1.6-7.8-2c-3.7-0.6-7.1-0.2-10.6,0.8c1.4-1.7,4.6-2,6.6-2.8l0.1-0.9c-3.7-1.7-5.6,1-8.7,0.6
		C796.5,376.3,798.2,375.6,799.5,374.5z"/>
	<path class="st1" d="M434,375c2.7-1,7,0.2,9.7,1.4c0.7,0.6,2.3,1.2,2,2.4c-1.2,0.8-2.2,1.6-3.7,1.1c-2.7-1.3-5.2-2.8-8-4L434,375z"
		/>
	<path class="st1" d="M425,375.9c5.2-1.3,8.5,1.1,12.8,3.4c0.9,0.7,2.5,1.4,2.5,2.7c-0.8,1.4-4.4,2.7-3.9,4.5c2.1-0.5,3.8-2.7,6.2-3
		c2.2-0.5,2.4-2.4,4.5-2.8c1.5,0.4,1.4,2.8,2.9,3.6c2.8,1.9,4.9,4.4,6.7,7.2c1.2,3,3,5.1,2.2,8.6c-0.4,1.2-3.6,1.4-3.6,2.8
		c1.4,0.4,2.2-1.2,3.7-0.6c0.9,1.3-0.4,3.3,0,4.8c2.6,6.1,2.9,13.3,0.6,19.5c-1.6,2.8-4,1.9-6.2,3.7c-0.9,1.8-2.9,3.9-4.8,4.3
		c-1.2-1.9,3.1-2.5,2.6-4.4c-1.4-0.8-3.9,0.1-5-1c-1.5-1.2-1.6-1.7-1.4-3.6c-1.6,1.6-2.5,2.1-2.5,4.6c-0.9,1.2-4,3.6-5.5,2.5
		c-0.5-3.5-0.3-7-0.8-10.5c0-0.6-0.5-0.9-1.4-0.8c-1.8,3.3,0,7.6-1.2,10.8c-3.3-0.1-7.8-2.6-10.7-4.3c-0.7-2.8,1.5-6.4,2.2-9.1
		c0.2-1.6,2.2-3.9,1.4-5.3l-0.8,0c-3,2.8-3.7,8.5-4.5,12.4c-1.3,0.3-2.3-1.2-3.3-1.9c-4.3-3.6-7.5-8.1-8.4-13.7
		c0.2-3.2,5.7-2.7,6-4.8c-2.5-1.1-4.2,0.2-6.5,0.5c-0.4-1.9-0.6-4.7-0.1-6.6c1.6-0.7,4.5,0.3,6.3-0.6c-1.9-0.3-3.8-0.6-5.6-1.4
		c-0.7-2.1,0.7-4.9,1.3-7c0.5-0.1,0.9,0.4,1.2,1.5c1.4-1,2.1-3.1,2.7-4.6c1.7-0.4,2.4-0.9,3.5-2.2c0-1.2-1.6-1.7-1.2-3.2
		c1.1-0.8,2.5-3.4,4-3c1.8,3.1,4.3,6,6.1,9.1c0.4-3.5-2.6-7.4-3.7-10.6C423.1,376.3,423.8,375.9,425,375.9z"/>
	<path class="st1" d="M353.8,378.2c0.6,1.2-0.7,2.5-0.5,3.8c0,1.8-2.8,2.5-4,1.9c-0.4-1.4,0.6-3.2,1.2-4.4
		C351.5,379.1,352.6,378.1,353.8,378.2z"/>
	<path class="st1" d="M832.5,380.5c0.8-0.5,1.4-0.4,1.6,0.5c1.1,2,2,4.8,2.3,7c-0.2,4.1,1.5,6.9-0.4,11l-0.9,0
		c-1.9-3-2.8-5.1-4.8-8.2c-0.4-1.5-2.4-3-2.1-4.5C829.8,384.4,831.2,382.5,832.5,380.5z"/>
	<path class="st1" d="M884.6,380.5c1.3,0.9,1.3,2.1,1.7,3.5c0.5,0,0.9-0.2,1.4-0.5l-0.1,1.1c-1.8,0.2-2.7-0.1-4.3-0.9
		C883.9,382.5,884.6,381.8,884.6,380.5z"/>
	<path class="st1" d="M796.5,382.6c2.7-0.5,5.8-0.9,8.5-0.3v0.5c-3.1,0.6-5.5,2.3-8.3,3.8c-1,0.3-2.2,1.5-3.2,0.9
		c-0.6-0.5-2.4-1.3-2.1-2.2C793,383.7,794.2,383.2,796.5,382.6z"/>
	<path class="st1" d="M813.5,383.5c2,1.2-0.6,3.4-1,5c-0.6,2.5-2.5,4.6-2.1,7.1c0.7-2.1,2.6-3.5,3.6-5.6c1.5-1.4,2.5-5.6,4.9-2.9
		c2.5,1.9,1.8,2.4,0.8,4.9c0.3,0.7,0.8,1.3,1.5,1.8c3-0.1,2.5,3.9,4.3,5.8c0.2-0.8,0.4-1.7,0.6-2.5h0.6c0.5,2.5,2,5.1,1.9,7.6
		c-2.4,0.7-4.1,0.5-6.2,1.9c2.2,0.2,4.3-0.4,6.3-0.3c0.9,1.9,0.5,4.6,0,6.6c-2.2,0.1-3.8-1.4-6.4-0.4c-0.4,1.8,1.3,1.2,2.5,1.9
		c1.2,0.6,3.2,1.2,3.6,2.7c-0.6,6-4.8,11.5-9.5,15c-0.6,0.6-1.3,0.8-2,0.8c-1.2-4.2-2.1-8.5-4.5-12.3c-2-0.5-1.5,1.6-0.8,2.7
		c0.9,3.6,3.9,8.2,3.2,11.8c-1.8,1.8-8.3,4.6-10.9,4.9l-0.5-0.8c0.4-3.2,0.2-6.4,0-9.6c-0.8-0.9-1.5-0.7-1.9,0.5
		c-0.4,3.5-0.6,7.2-1,10.6c-2.5-0.3-6-2.4-5.8-5.3c-1.1,0.2-2.5,0.4-3.3,1.2c-1.8,0.9-4.3,0.3-6.2,0.8c0.5,1.6,3.5,2.5,4.3,4.3
		c-2.5,1-4.6-2.6-5.9-4.3c-1.7-0.9-5-1-5.8-3.3c-2.4-6.2-1.9-13.8,0.4-20c-0.1-1.5-0.8-3.2-0.1-4.8c1.5,0,2.6,1.5,4.3,1.3
		c-0.9-1.4-2.9-2-4.4-2.8c-0.6-6.1,4.5-12.8,9.3-16.2c1.3-0.8,1.4-1.8,1.8-3.2c1.6-0.6,2.2,0,2.8,1.4c1.8,1.2,3.9,1.2,5.6,2.5
		c1.3,0.8,2.1,1.9,3.8,1.3c-1.3-1.4-3-2.5-4.4-3.8c-0.3-1.1,1.2-2,1.9-2.7c2.2-1.6,4.7-2.9,7.5-2.6
		C808.1,382.1,811.3,383.1,813.5,383.5z"/>
	<path class="st1" d="M701.4,388.4l0.2,0c1.4,2.8,1.7,4.1,0.9,7.2C701.3,393.2,701.3,391.1,701.4,388.4z"/>
	<path class="st1" d="M339.4,393.4c1.2,0.8-0.9,2.9-2,2.3C337.1,394.9,338.8,393.7,339.4,393.4z"/>
	<path class="st1" d="M704.5,395.5L704.5,395.5c1.2,7.2,5.3,13.9,6,21.1c-2.7-3.4-3.6-8.3-6.1-12
		C703.5,401.5,702.7,398.4,704.5,395.5z"/>
	<path class="st1" d="M894.3,399.3l0.3,0c0.3,0.6,0.9,3.8-0.4,3.4C893.8,401.8,893.8,400.6,894.3,399.3z"/>
	<path class="st0" d="M871.5,400.5l1.1,0c0.3,1.3,0.8,3.1,0.2,4.4C870.5,405.4,871.9,401.7,871.5,400.5z"/>
	<path class="st1" d="M897.4,401.3c1.9-0.3,3.2,2.2,3.9,3.6c0.4,1.1,1.5,1.3,1.3,2.6c-1,0-2.1-0.1-3.1,0
		C898.2,406.3,897.3,403.1,897.4,401.3z"/>
	<path class="st1" d="M698,402.1l0.8-0.1l0,0.8l-0.7,0.2L698,402.1z"/>
	<path class="st1" d="M308.7,405.3l0,0.4c-5.3,4.2-10.8,8.3-16.1,12.9c-4.1,3.7-8.7,6.7-13.3,9.7c-1.1,0.6-1.5,1.5-2.8,1.3
		c1.2-2,3.6-3.3,5.3-4.9c7.4-6.3,15.2-12.1,23.3-17.5C306.3,406.7,307.3,405.1,308.7,405.3z"/>
	<path class="st1" d="M349.3,413.3c1.4-0.6,2.5,2.4,2.4,3.4c-1.4,0.4-3.3,3.7-4.5,2.4C346.6,416.6,347.8,415,349.3,413.3z"/>
	<path class="st1" d="M343.5,420.5l0.1-0.1c1,3.4,0.8,4.3-2.1,6.2c0-1.4,0.1-2.9,0-4.3C341.9,421.6,342.6,421,343.5,420.5z"/>
	<path class="st1" d="M353,420.2l0.3,0.8c-1.4,2.7-2.6,5.6-4.5,8l-0.8,0c-0.9-1.9-1.3-4.7,0.9-6C350.3,422.3,351.6,420.1,353,420.2z
		"/>
	<path class="st0" d="M376.6,420.5c2.4,2,5.2,5.8,5,9.1c-1.9-2.6-3.1-5.6-5-8.1C376.4,420.8,376.4,420.5,376.6,420.5z"/>
	<path class="st1" d="M887.3,420.4c1.8,0.9,3.7,4.6,2.7,6.5c-1.4,0.5-2.4-1.7-3.7-2.1C884.8,423.6,886.5,421.4,887.3,420.4z"/>
	<path class="st1" d="M717.5,422.5c2.4,3.2,3.5,7.6,6.5,10.5c0.4,0.4,0.6,0.9,0.6,1.5c-1.1-1.1-2.5-1.6-3.6-2.5
		c-1.7-2-1.8-4.7-3.1-7C717.3,424.3,717.5,423,717.5,422.5z"/>
	<path class="st1" d="M706.5,424.4L706.5,424.4c2.4,4.5,5.5,8.6,8.7,12.5c1.9,1.8,2.4,4.1,3.5,6.3c1.9,3.1,2.6,6.3,4.9,9.2
		c0.9,0.8,3.3,1.5,4.4,0.6c0.7-1.4-0.9-3.4-1.5-4.6l1,0.1c0.9,3.1,4.3,3.4,3,7c0.4-0.5,0.9-0.8,1.5-0.9c2.5,1.9,4.1,4.7,6.5,6.8
		c-0.9,1-1.6,1.7-2.1,3c-2.8,1.8-4.8,4.5-7.6,6.3c-1.8,1.6-4,2.7-5.8,4.3c-0.5,0.5-1,0.8-1.6,0.7c-0.3-1.8-2-1.8-1.4-3.7
		c0.1-1.7,2.3-3.6,1.2-5.1c-0.3-2.6-0.8-4.8-0.6-7.4c-1.3,0.1-2.2-0.3-2.8-1.3c-1-1.4-2.2-0.5-3.5-1.4c-0.7-4.8-2.4-9.3-4.1-13.9
		c-0.8-1.6-1.4-3.2-2.7-4.4C706.9,433.9,705.7,429,706.5,424.4z"/>
	<path class="st1" d="M883.6,426.5c1.9,1.4,3.5,3.1,5.3,4.7c0.8,1.3-0.5,3.4-1.4,4.4c-1.1-2.2-2.1-4.6-3.6-6.5
		C883.4,428.7,883.2,426.6,883.6,426.5z"/>
	<path class="st1" d="M345.3,428c-0.2,0.7-1,1.1-2.2,1.2c-4.8,3.4-6.7,8.5-12.1,9.8c-3,0.8-5.7,3-8.6,3.6c1-1.1,2.1-2.1,3.4-2.9
		c5.7-3.5,11.2-7.4,16.6-11.4C343.3,427.7,344.6,426.1,345.3,428z"/>
	<path class="st1" d="M889.2,428.1l0.7-0.1l0,0.7l-0.7,0L889.2,428.1z"/>
	<path class="st1" d="M345.8,430c0.4,2-3.7,4.8-5.5,4.7l0-0.4C341.7,433.2,343.9,429.1,345.8,430z"/>
	<path class="st1" d="M427,434.4c2.4,1,5.1,1.2,7.6,2.1c0.4,1,0.2,1.5-0.6,1.5c-3-0.6-7-2.5-9.5-4.4C425,433,426.3,434.1,427,434.4z
		"/>
	<path class="st1" d="M347.5,434.5c0.5,1.9,0.7,3-1.3,3.9c-1.7,1.6-3.7,0.8-3.7,3.2c-0.4-0.1-0.8-0.2-1.2-0.2
		c-0.3,2.3-1.9,3.2-3.4,4.7c-0.6,1.3-0.7,2.7-2.5,2.6c0.7-1,1.9-1.2,1.6-2.6c-1.4-1.3-2.5,0.9-3.6,1.6c0-0.7,0.2-1.2,0.6-1.5
		c2.8-1.5,5.7-4.1,7-7C342.7,437.4,344.9,434.3,347.5,434.5z"/>
	<path class="st1" d="M445.5,435.5c0.6,1.4-0.5,1.8-1.6,2.2c-2,0.6-4.5,1.5-6.5,0.8c-0.2-0.6-0.2-1.3,0-2.1
		C440.5,437.1,442.7,435.4,445.5,435.5z"/>
	<path class="st0" d="M264.8,436.2c0.2,1-0.4,1.6-1.6,1.8C263,436.6,263.5,436,264.8,436.2z"/>
	<path class="st1" d="M723.3,437.3c2,1.1,2.8,1.4,5.2,1.3c0.8,0.8,1.8,1.1,3.1,0.9c1.4,1.3,2.6,2.7,3.9,4c0.2,1.9-0.6,3.5,1.2,4.9
		c1.3,0.9,2.8,3.4,4.3,3.5c0.1-0.7,0-1.5-0.5-2.6c1.6-0.2,1.4,1.6,2.9,2.5c1.7,1,2.8,2.4,4.2,3.8c1.2,2.2-2.3,0.6-1.2,3.2
		c2.4,2.6,4.3,5.7,6.6,8.4c5.6,5.2,11.8,9.8,18.2,13.9c0.6,0.2,0.8,0.8,0.7,1.6c-0.6,0.1-1.2-0.1-1.8-0.5c-4.9-2.7-9.2-6.1-13.4-9.7
		c-0.4,0.1-0.8,0.2-1.2,0.2c-2.7-2.5-4.1-5.7-7.3-7.7c-1.4-1.6-2.6-3.3-4.4-4.5c-2.2,1.1-2.3-0.4-3.1-2c-2.4-2.9-5.2-5.4-8.2-7.8
		C728.7,447.3,724.3,442.2,723.3,437.3z"/>
	<path class="st0" d="M410.5,440.5c0.1,1.1-1.6,5.3-3.1,4.1C407.4,443.1,408.6,439.9,410.5,440.5z"/>
	<path class="st1" d="M497.5,440.5l0.1-0.1l-0.1,1.1c-2,2.9-3.6,6.4-6,9c-0.6-0.4-1.5-1.4-2.1-2
		C491.8,446.1,495.1,443.1,497.5,440.5z"/>
	<path class="st1" d="M892.1,442.8c1.8,1,3.6,1.6,2.7,4c-1.6,0.7-3.4-2.2-4.5-3.1C889.3,441.7,890.9,441.9,892.1,442.8z"/>
	<path class="st1" d="M791.5,443.5c2.5-1,5.5,1,8.3,0.8c0.9,2.1-1.8,2.5-0.2,4.3l-1-0.1c0.2-3.4-4.9-2.2-7.1-4L791.5,443.5z"/>
	<path class="st1" d="M488.6,450.4c-2.3,4-6.1,4-10.2,3.1c1.8-1.9,4.5-3,6.6-0.9C486.8,452.1,486.7,450.2,488.6,450.4z"/>
	<path class="st1" d="M565,449.8c2.4,0.3,1.2,2.4,2.2,4.1c1.1,4.8,2.9,9.4,4.5,14.1c0.3,1.6,2,2.9,1.8,4.5c-0.8,0.2-1.5,0.3-2.2,0.2
		c-1.7-2.7-2.1-6.3-3.7-9.2c-0.6-3.6-2.3-6.8-2.8-10.5C564.6,451.9,563.3,450.2,565,449.8z"/>
	<path class="st1" d="M912.6,451.5c2.4,0.9,4.7,1.8,6.9,3c5.1,1.5,9.3,3.7,13.5,6.9c1.4-0.4,1.5-1.4,3-0.5c3.6,1.8,7.4,3.2,11,5
		c3.1,2.9,6.2,5.3,9.5,7.8c-2.1,0-4.2-2.4-6.1-3.1c-4.8-2.9-9.8-5.7-14.5-8.8l-0.9,0.3l0,0.8c9.1,6.2,18.6,11.8,28.4,16.8
		c1.1,0.7,2.3,0.9,3.1,2c-5.4-1.4-11.3-4.2-16.6-6.3c-12.3-5.3-25.2-11.9-35.2-21C914,453.7,911.7,452.4,912.6,451.5z"/>
	<path class="st1" d="M926,453.4c4.7,2,9.7,3.5,14.5,5.1c1.1,0.5,2.6,0.7,2.2,2.2l-0.8,0.1c-4.7-1.8-9.5-3.5-14.1-5.6
		c-2.5-0.8-5.4-2-7.4-3.7C921.9,451.2,924.2,453.4,926,453.4z"/>
	<path class="st0" d="M398.4,453.4c3.3-1.6,5.5,2.9,8.1,1.1c2.2,2.8,5.2,3,8.4,3.8c2.8,0.9,5.8,1.1,8.6,2.1c-2,2.1-8.3-2.4-8,2.1
		c-1.2-0.5-2.2-2.5-3.5-2.9c-4.5-2.1-9.3-3.5-13.6-6L398.4,453.4z"/>
	<path class="st1" d="M487.4,456.5l0.1-0.1l-0.1,1.1c-3.6,4.4-7.7,8.4-12,12.1c-0.2-1.4,0.8-1.7,1.5-2.6
		C480.1,463.1,484.1,460.1,487.4,456.5z"/>
	<path class="st1" d="M749.3,458.3c1.1,0,1.5,1.9,2.8,2.1c3-2.2,4.4-0.5,7.5,0.1c-2.1,1.3-5.4,1.7-7.5,0.2
		C750.6,460.8,749.1,459.8,749.3,458.3z"/>
	<path class="st1" d="M564.3,461.3l0.3-0.1c0.9,2.5,1.8,5.2,2.6,7.7c0.7,1.6,1.7,2.7,1.3,4.6h-1.1
		C566.4,469.7,564,465.2,564.3,461.3z"/>
	<path class="st1" d="M920.5,462.5c3.5,3.2,7.7,5.9,12,8c0.1,1.1,0.6,1.7,1.5,1.9c2.7,1.4,5.7,2.1,8.5,3.2c3.2,2.3,7.6,3.3,11,5
		c17.1,6.6,33.2,12.7,51.5,15.2c2.4,1.2,6.8,0.5,8.5,1.8c-4.4,0.7-9.5,0.8-14.1,1c-8.1,1.5-15.1-0.7-22.4-3.8
		c-11.8-4.6-26.5-12.5-38.1-17.8c-5.4-2.3-14.6-7.2-19.7-10.2c0.2-0.5,0.7-1.1,1.7-1.8c0.1-0.8-0.4-1.6-1.5-2.4
		C919.5,462.4,919.8,462.4,920.5,462.5z"/>
	<path class="st1" d="M987.5,465.5c11.3,6.6,22.7,12.3,34.9,17.1c4.4,2.3,8.7,5.2,12.7,8.2c1.1,0.8,2.6,1.1,2.4,2.8
		c-4.7-2.6-11.2-4.2-14.9-8.1c-3.4-0.4-5.2-2.7-8.2-3.9c-6.9-3.2-13.7-6.8-20-11c-2.6-1.2-4.1-3.3-7-4.1
		C987.4,465.8,987.4,465.5,987.5,465.5z"/>
	<path class="st1" d="M746.6,466.4c0.6,0.8,1.5,2.2,1.1,3.2c-1.4,0.1-2.8-0.3-4.3-0.2C743.1,468.4,745.5,465.9,746.6,466.4z"/>
	<path class="st0" d="M658.5,468.5c1.6,0,3.5-0.4,5,0c1,0.8,2.4,0.5,2,2c-2.3,0-4.9-0.1-7,0.9c-3.6,0-8.8,0.6-12.1,0
		c2.2-0.1,4.4-0.1,6.5-0.1C655,470.1,656.9,470.5,658.5,468.5z"/>
	<path class="st1" d="M718.4,470.4C718.6,470.6,718.6,470.6,718.4,470.4z"/>
	<path class="st0" d="M427.4,471.4c1-0.7,3.1,0.1,3.2,1.3C429.4,473.6,427.4,472.9,427.4,471.4z"/>
	<path class="st1" d="M914.4,473.4c0.8-0.3,1.3-0.1,1.7,0.4c9.1,8.6,18.9,16.5,28.5,24.5c1.4,1.1,2.8,1.8,3.9,3.3
		c-3-0.4-6-3-8.7-4.3c-9.3-5.8-18-10.7-23.9-20.3C915.3,475.8,914.2,474.8,914.4,473.4z"/>
	<path class="st1" d="M574.6,474.4c0.4,1.7,2.4,2.9,2.2,4.6c-0.4-0.2-0.9-0.4-1.5-0.8c-0.3,1.6,1.6,3.6,2.4,4.9
		c1.4,3.4,4.5,6.6,6.1,9.6c-1.6,0.6-2.5,0.3-3.2-1.2c-2.7-5.2-5.8-10.2-8.2-15.5C572,473.9,573,474.3,574.6,474.4z"/>
	<path class="st1" d="M569,475.2l0.7,0c2.5,4.8,4.4,9.7,6.6,14.6c0.4,1.3,1.7,2.6,1.5,4c-0.6,0.1-1-0.3-1.4-1.2
		c-2.7-5.4-6.1-10.9-7.8-16.7L569,475.2z"/>
	<path class="st0" d="M577.1,480.4l0.5-0.3l0.4,0.8L577.1,480.4z"/>
	<path class="st1" d="M711.1,480c0.9-0.2,1.4-0.1,1.5,0.6C711.5,481.1,711,481,711.1,480z"/>
	<path class="st0" d="M578,481l0.9,0.6l-0.5,0.3L578,481z"/>
	<path class="st1" d="M801,485l0.3,1c-1.2,1.3-0.5,2.6-1.3,4c-1.6,0.6-3.8-0.3-5.5-0.5c-1.1-0.5-3.5-0.5-3.5-2.2
		c2.1-0.6,4-0.5,6-1.4C798.5,485.8,799.7,484.5,801,485z"/>
	<path class="st1" d="M714.6,487.4c-2.6,1.4-5.4,3.7-8.6,4.4c-2.4,1.1-5,2.4-7.5,2.7c-0.3-1.7,1.2-0.7,2-2.1
		c1.9-2.2,5.9-2.5,8.5-3.7C711,488.3,712.6,487.2,714.6,487.4z"/>
	<path class="st1" d="M223.5,488.5c0.9-0.2,3.8-1.7,3.5,0.3c-2.9,0.9-4.5,1-7.6,1.8C220.5,489.1,221.9,489.5,223.5,488.5z"/>
	<path class="st1" d="M1027.5,491.5c0.9,0.7,3.9,1.4,4.1,2.2c-1.8,0.5-4.6,0.3-6.4,0C1025.2,492.9,1026.9,491.7,1027.5,491.5z"/>
	<path class="st1" d="M276.5,496.5l0.1-0.1l-0.1,1c-2.3,0.3-3.6,3.3-5.5,4.2c-1.6,0.5-2.5,2.4-4,3.1c-1.6,0.7-2.5,2.2-4,3.1
		c-1.8,0.9-0.5,1.7-0.3,2.9c-1.7,1.1-2.9,2.3-4.1,3.8c-7.5,5.2-15.5,9.8-24.1,13c-1.2,1.6-2.8,1.4-4.5,2.1c-2.7,0.4-4.6,1.4-7.6,1
		c2-1.3,3.9-1.8,5.8-3.3c6.9-4.3,14.5-7.5,21.5-11.6c5.5-3.5,10.7-6.9,15.8-11.1c2.2-0.8,3.1-3,5.4-3.6
		C272.7,499.2,274.2,497.6,276.5,496.5z"/>
	<path class="st0" d="M797.5,500.5c0.9,2.3,1.2,4.7,1,7.1c-1.9-1.5-2.5-4.2-4.1-6.1C793.9,499.6,796.5,499.9,797.5,500.5z"/>
	<path class="st1" d="M661.6,504.3c0.2,1.1-2.6,1.8-3.3,1.4C658.1,504.7,660.9,503.3,661.6,504.3z"/>
	<path class="st1" d="M896,512c2-1.2,5.1,0.2,7,1.2c4.1,2.2,8.7,3.9,13.1,5.6c3.3,1.8,7.2,2,10.4,3.7c2.4,0.6,5.3,1.3,7.6,2.4
		c0.9,0.6,2.8,0.8,2.9,2.1c-3.6,0.5-8.4-0.5-12-1.7c-5.6-1.2-10.8-2.8-16-5.2c-3.4-1.2-6.1-3.4-9.5-4.6
		C898.6,514.3,895.7,513.5,896,512z"/>
	<path class="st1" d="M287,515.3c1.4-0.5,3.3-0.5,4.7,0l0,0.4c-4.2,1.6-8.2,3.4-12.8,4.9c-2.6,0.4-4,2.3-6.5,2
		C277,520.4,282.4,517.6,287,515.3z"/>
	<path class="st1" d="M791.5,515.5c0,2.5,2,5.1,2,7.6c1.1,1.5,1,2.2,1,4c1.1,1.4,1.2,2.2,1.3,4c1.7,3.2,1.3,7.3,2.6,10.5
		c0.1,5.7,1.1,11.7,0.3,17.4c-0.4,1.6-0.1,3.4-0.3,5.1c-0.5,2.3-2.6,1.5-4,0.5c-0.6-4.6-0.4-8.7,1-13c0.3-6.4,0.8-13.2-0.2-19.5
		c-1.3-1.6-0.1-3.1-1.7-4.5c0.6-3.3-1.4-4.4-1.1-7.5c-1.3-1.5-0.6-3-2-4.5C790.7,515.5,791.1,515.4,791.5,515.5z"/>
	<path class="st1" d="M917.1,515.9c3.8,1.3,7.5,1.5,11.4,2.6c5.1,2.7,10.5,4.9,15.8,7c2.4,0.7,3.5,2.5,6.2,1.9l0,1
		c-0.7-0.7-1.4-0.7-2.1-0.1c-2.1,0-4.5,0.3-6.5-0.5c-0.8-0.2-3.8,0.4-4-0.7l1.5-0.7c0.5-1.6-1.6-1.9-2.6-2.5
		c-7.7-3-14.5-5.2-22.5-8.6C915.1,515.5,916.4,515.3,917.1,515.9z"/>
	<path class="st1" d="M938.5,519.5c1.8,1.5,5,0.2,7,0.9c1.6,0.8,3.1,1.3,4,3c2.8,2.2,7.5,2.3,10,4.1c-2.7,1.1-5.2-1.8-7.6-1.9
		c-3.8-1.3-6.8-2.6-10.4-4.3c-1.5-1-3-0.2-4.1-1.8C937.4,519.4,937.7,519.4,938.5,519.5z"/>
	<path class="st1" d="M785,519.4c2.1,0.7,1,3.2,1.8,4.6c0.9,2.9,1.8,5.8,1.7,8.9c0.8,3.2,1.4,7.7,0.4,11l-0.6,0
		c-1.6-2.3-3.8-4.5-5.2-6.9c-0.4-4.8-1.1-9.3-1.6-14C782.1,521.6,783.7,520.1,785,519.4z"/>
	<path class="st1" d="M974.1,530.7c3.4,0.6,4.9,2.9,8.6,2.6c0.1,1-0.1,1.4-0.7,1.3c-3.8-1-7.1-2.5-10.7-3.9
		C971,529.7,973.6,530.5,974.1,530.7z"/>
	<path class="st1" d="M602.4,537.4h0.2c-0.1,6.4-0.2,12.7,0,19.1c-1.9,2.5-0.6,5.6-0.7,8.4c-0.2,2.5-0.3,5-0.4,7.5
		c-0.3,0.4-0.6,0.7-1,1.1c0.1-9.5-0.1-19,0.1-28.6C601.4,542.8,602.6,540,602.4,537.4z"/>
	<path class="st0" d="M731.4,539.5l0.2-0.1c0.5,1.1-2.5,4.1-3.3,4.3C728.1,542.1,730.4,540.5,731.4,539.5z"/>
	<path class="st1" d="M847.4,540.4c1.1-0.2,2.9-0.5,3.6,0.5c2.2,2.5,4.9,4.6,6.8,7.3c1.1,1.1,4,2.6,3.8,4.4
		c-1.3-1.2-2.5-2.3-4.1-3.1c-3.1-2.6-6.2-5.3-9.5-7.7C847.5,541.7,847.3,541.2,847.4,540.4z"/>
	<path class="st1" d="M340.5,543.5l0.1-0.1l-0.1,1.1c-2.5,3.2-5.1,6.5-7,10c-0.9,0.5-2.1,1.4-3.2,1.2V555
		C333.7,551.1,336.2,546.8,340.5,543.5z"/>
	<path class="st1" d="M784.5,545.5c1,2.9,4.3,6.3,3.6,9.5c-0.5,2-2.7,0.3-3.6-0.5c-0.4-2.3,0.1-4.9-0.9-7.1
		C783.7,546.4,782.8,545.1,784.5,545.5z"/>
	<path class="st1" d="M427.2,549l0.6,0c0.9,2-0.5,4.9-0.4,7c-0.1,2,0,4.1-0.6,6c-1.2,0.5-2.4,1-3.5,1.5c-0.7-2,0.9-4.3,1-6.5
		C425.3,554.4,426.1,551.7,427.2,549z"/>
	<path class="st0" d="M706.7,556.3c-0.3,2.3-5.8,2.1-7.3,1.3C701,556.4,704.9,556,706.7,556.3z"/>
	<path class="st1" d="M784.5,558.5c1-0.7,2.5,0.5,2.2,1.5c-0.1,1.9-1.2,3.5-1.2,5.5l-1,0C784.5,563.2,784.6,560.8,784.5,558.5z"/>
	<path class="st1" d="M453.4,559.4c2.6,0,4.6-0.7,6.1,2c0.2,1.9-1.9,3-3,1C455.7,560.9,453,561.2,453.4,559.4z"/>
	<path class="st1" d="M444,563.8c2.8-0.3,4.2,2.6,5.6,4.5c0.6,1.4,2.3,2.7,2,4.2c-4.1-2.1-5-4-8.3-6.8
		C442.9,564.8,443.1,564.2,444,563.8z"/>
	<path class="st1" d="M779.5,564.5c0.1,1.8-0.3,4,0.4,5.7c1.4,0.7,3.3-1.2,4.7-1.6c0.5,2-2.6,2.3-3.6,3.6c-5,2.8-8.2,7.1-11.5,11.5
		c0-1.7-0.2-3.1,0.8-4.5c1.5-4.2,3.7-8,6.1-11.7C777.5,566.6,778,564.1,779.5,564.5z"/>
	<path class="st1" d="M483,564.7c1,1,4.1,2.4,3.7,4c-0.8,0.7-1.7,1.2-2.7,1.5C482.4,569.5,480.8,565.2,483,564.7z"/>
	<path class="st0" d="M697.4,565.4c0.9-0.5,1.5-0.3,1.8,0.6C699.1,567.8,696.2,567.2,697.4,565.4z"/>
	<path class="st1" d="M511.7,572.7c-1.9-0.4-3.6-0.7-5.6-0.9C506.4,568.7,511.1,570.9,511.7,572.7z"/>
	<path class="st1" d="M427.6,571.4c-1.4,1.3-2.6,2.8-4.3,3.9c-2.1,2.6-2.9,5.1-6.9,4.2c1.3-2.2,3.7-2.2,4.9-4.2
		C423,574.1,425.5,571.4,427.6,571.4z"/>
	<path class="st1" d="M790.8,571.4c1.6,0.8-0.2,3.8-0.2,5.1c-1.4,0.7-2.6,0.3-4.1,0C787.1,574.7,789.3,572.5,790.8,571.4z"/>
	<path class="st0" d="M837.5,571.5c2.8-1.4,5.6,4,8.5,3.5c1.1,0.1,2,0.8,2.6,1.7c-2.1,0.2-4.6-0.9-6.6-1.4
		C840.9,573.9,836.5,573.7,837.5,571.5z"/>
	<path class="st1" d="M703.4,572.5l0.2-0.1c0.3,1.5-1.6,1.8-2.5,2.8c-0.7,0.8-2.9,0.1-2.8-1C699.8,572.9,701.7,573.6,703.4,572.5z"
		/>
	<path class="st1" d="M795.3,572.2c2.3-0.7,1.4,1.4,1.5,2.8c-0.1,1.5-0.9,3.2-1.3,4.5C795.2,577.2,795.1,574.6,795.3,572.2z"/>
	<path class="st0" d="M866.5,573.5C866.6,573.6,866.6,573.6,866.5,573.5z"/>
	<path class="st1" d="M749.1,576.8c1.2,0.8,2.6,1.5,3.7,2.5c0.8,2.3,2.7,1.3,1.7,4.3c-1.6,0.1-3.3-1.6-4.6-2.3
		c-1.9-0.5-3.6-1.4-5.5-1.7C744.1,577.7,747.5,575.2,749.1,576.8z"/>
	<path class="st1" d="M502.5,581.5c1,1.8,2.1,4.1,1,6.1c-1-0.1-2.1-0.1-3.1,0c-0.3-1.6,1.6-1.8,1.6-3.5
		C501.9,583.1,500.4,580.9,502.5,581.5z"/>
	<path class="st1" d="M598.5,585.4c0,1.5,1.9,3.4,0.6,4.6c-3,4.8-9.4,7.2-14.7,7.6c0.9-1.3,2.7-2.3,4.1-3.1c2.2-2.5,5.1-4.1,7-7
		C596.4,586.7,597.1,584.9,598.5,585.4z"/>
	<path class="st1" d="M678.6,588.4c-1,1.3-1.8,3-3,4.1c-1.4,0.1-2.8,0.1-4.1,0C672.9,590.6,676,587.9,678.6,588.4z"/>
	<path class="st1" d="M379.6,594.4c-3.1,3.6-6.9,6.6-9.9,10.2c-2.9,2.8-5,6.5-7.9,9c-1.7,0.3-2.7,2-4.3,1.9
		c5.6-6.3,14.3-14.9,20.5-20.7C378.2,594.3,378.8,594.2,379.6,594.4z"/>
	<path class="st1" d="M658.5,594.5c1.8,0.1,4,1.7,5,3.1c-1.7,2.1-3.2,0.4-5-0.1C658.5,596.5,658.5,595.5,658.5,594.5z"/>
	<path class="st1" d="M422.3,595.3c0.7-0.4,1.4-0.3,2.3,0.1c-1.4,1.5-3.5,3.5-5.1,5.1c-1,0.7-2.5,0.5-2-1
		C418.9,597.8,420.7,596.8,422.3,595.3z"/>
	<path class="st1" d="M543.5,595.5c4.7-0.7,9.9,2.3,14.2,3.9c1.9,0.6,2.7,2.3,4.8,2.1c-0.6,1.2-1.4,1.2-2.6,1.2
		c-3.4,0.6-6.6-0.4-10-0.2c-2.8,0.2-5.2-0.6-8-0.8C541.7,600.3,542.9,597,543.5,595.5z"/>
	<path class="st1" d="M642.3,595.2c2.9-0.4,4.9,2.4,7.3,3.4c-2.2,0.4-3.5-1-5.5-1.1C643,597.5,642,596.3,642.3,595.2z"/>
	<path class="st1" d="M534.8,597c0.6,1.8,0.4,4-1.7,4.5c-1.8-0.2-4.4,0.5-5.8-0.5c-0.1-0.8,0-1.7,0.3-2.5
		C529.5,598.1,533,596,534.8,597z"/>
	<path class="st1" d="M502.6,598.4c0.1,1.2,0.5,2.2,0.9,3.2c-1.6,0.3-3.3-0.2-3-2.1C501.2,599,501.9,598.7,502.6,598.4z"/>
	<path class="st1" d="M605.8,598.1l0,0.7c-3.3,3.4-8.5,5.3-12.8,7.1l-0.9-0.1V605c3-2.3,7.1-3.4,10.1-5.7
		C603.1,598.8,604.7,597.5,605.8,598.1z"/>
	<path class="st1" d="M444.4,600.4c1.6-0.5,1.7,1,0.8,1.9C443.9,603.7,443.9,601,444.4,600.4z"/>
	<path class="st1" d="M585.6,600.4l-0.1,1c-2.5-0.5-5.1,1.1-7.4,0.3C578.5,599.5,583.9,600.1,585.6,600.4z"/>
	<path class="st1" d="M645.5,600.5c2.4,1.1,4.7,2.2,7,3.1c-2.3,0.9-5.2-1-7.2-2C644.3,600.9,643.6,599.9,645.5,600.5z"/>
	<path class="st1" d="M507.5,601.5c0.2,1.6,0.5,3-0.7,4.2c-1.3,0.6-3-0.1-4.3-0.2c1.1-1.8,3.2-0.7,4.6-2.6l-0.5-1.4
		C506.5,601.4,506.9,601.4,507.5,601.5z"/>
	<path class="st1" d="M606.5,602.5l1.1,0c0,0.7,0,1.4-0.1,2.1c-1.8,3.1-4.5,3.8-7.5,5c-1,0.1-4.4-0.4-3.5-2
		C600,606.5,603.5,604.7,606.5,602.5z"/>
	<path class="st1" d="M530.8,604.2l0,0.5c-2.3,1.7-5.1,5.1-8.2,3.9C524.2,604.8,526.3,603,530.8,604.2z"/>
	<path class="st1" d="M541.5,604.5c2.8,0.3,5.9-0.5,8.5,0.6c2.8,0.2,6.5-0.3,9,1.1c0.4,1.1-2.2,1.6-3,1.7
		c-5.2,0.7-10.8,2.8-16.1,1.2C539.5,607.6,541,605.9,541.5,604.5z"/>
	<path class="st1" d="M562.2,604.3c1.1-0.4,1.6-0.2,1.5,0.4C562.5,605,562,604.9,562.2,604.3z"/>
	<path class="st1" d="M742.4,606.3c0.7-0.4,4.2-0.8,4.2,0.3c-1.1,0.5-3,0.4-4.2,0V606.3z"/>
	<path class="st1" d="M401.4,608.4c1.5-0.6,2.1,1.4,0.6,1.6C400.1,610.1,399.6,609.4,401.4,608.4z"/>
	<path class="st1" d="M811.1,608.8c0.9,1.2,2.8,1.1,2.5,2.7c-2.2-0.9-4.8-1.3-7.2-2l0.1-0.1C807.6,607.7,809.5,607.5,811.1,608.8z"
		/>
	<path class="st1" d="M595.6,610.4c-2.2,1.7-6.5,2-9.2,1.2C588.5,609.9,593,610.3,595.6,610.4z"/>
	<path class="st1" d="M666.4,610.4c1.6-0.2,5.4-0.2,4.5,2.4c-1.5-0.1-3.6-1-4.5-2.2L666.4,610.4z"/>
	<path class="st1" d="M572.4,611.5l0.1,0l-0.1,1c-2.4,0.2-4.2,2.1-6.5,2.1c-7.4,4.3-17.2,4.7-25.5,6.8c-6,0.3-11.9,0.6-18,0
		c-2.5-1-5.8-0.3-8.1-2c0.8-0.3,1.7-0.6,2.6-0.7c4.7,0.1,9.7-0.4,14-2l0.9,0.3c-0.2,0.9-0.4,1.7-0.5,2.5c1.6,0.2,2.9-1.3,4.6-1.5
		c2.9-0.3,4.4-2.2,7.5-1.5c3.1,1.5,7.2,0.8,10.5,0.9l0.9-0.5v-1c-1.8-0.7-4.4,0-6.5-0.5l0-1c1.6,0,2.7,0.1,4.1-0.9
		c5.2,0.2,10.3-0.5,15.5-1.4C569.4,611.8,571.4,612.6,572.4,611.5z"/>
	<path class="st1" d="M800.5,611.4c4.2,1.3,9.5,2.7,13.1,5.1c-3.8,0.1-7.3-0.8-11.2-0.9C801.3,614.2,799.8,613.5,800.5,611.4z"/>
	<path class="st1" d="M747.4,613.5c1.7,0.1,3-0.1,4.6,0.7c2,0.2,3.8,0.3,5.6,1.3c0.1,0.7,0.1,1.4,0,2.1c-1.9,0.1-3.7-1.6-5.6-2
		C750.4,615.6,748.6,614.8,747.4,613.5L747.4,613.5z"/>
	<path class="st1" d="M852.4,615.4c1.5-0.4,2.5,1.8,3.6,2.6c2.7,3.5,6.1,6.6,8.9,10c1.3,2.1,2.9,2.1,3.6,4.6
		c-1.7,0.3-2.5-0.5-3.9-1.2c-2-0.8-4.1-1-4.7-3.3c-2-2.9-2.9-7.2-6-9.1C853.6,617.9,852.4,616.6,852.4,615.4z"/>
	<path class="st1" d="M748.6,616.5c1.9,0.8,3.7,1.6,5.4,2.9c1.1,0,4.1,0.6,3.6,2.2c-2.1,0.9-2.5-1.3-4.6-1
		C751.4,621.2,747.8,617.6,748.6,616.5z"/>
	<path class="st1" d="M762.2,617.2c2.7,0.2,4.2,2.3,6.3,3.4c0.9,1.2,3.4,2.4,3.2,4c-2.4-1.1-4.6-2.1-6.7-3.9
		C763,620.5,761,619.7,762.2,617.2z"/>
	<path class="st1" d="M805.3,619l0.7-0.4c4.7,0.4,9.2,0.6,13.5,2.9c0.9,0.5,4.6,0.9,4.5,2.3l-1,0.2c-4.7-0.7-10.2-1.6-15-2.1
		C807.2,621.7,805.1,619.9,805.3,619z"/>
	<path class="st1" d="M793.4,626.4l0.2,0.1c1.7,2.6,2.7,6.2,3.9,9.1c-2,0.1-3.2-1.8-3.2-3.6C793.4,630.4,793,628.1,793.4,626.4z"/>
	<path class="st1" d="M421.6,629.4c0.8,1.6-2.2,2.5-3.3,2.3C418.1,630.8,420.6,628.3,421.6,629.4z"/>
	<path class="st1" d="M340.6,641.4c-1.8,2.2-4.2,4-6.1,6.1c0.1-2,1.9-3.8,2.8-5.5C337.7,640.6,339.5,641.1,340.6,641.4z"/>
</g>
</svg>
