<?xml version="1.0" encoding="utf-8"?>
<!-- Generator: Adobe Illustrator 26.0.0, SVG Export Plug-In . SVG Version: 6.00 Build 0)  -->
<svg version="1.1" id="Layer_1" xmlns="http://www.w3.org/2000/svg" xmlns:xlink="http://www.w3.org/1999/xlink" x="0px" y="0px"
	 viewBox="0 0 987 1062" style="enable-background:new 0 0 987 1062;" xml:space="preserve">
<style type="text/css">
	.st0{fill:#1C1C1C;}
	.st1{fill:#FFFFFF;}
</style>
<g>
	<path class="st0" d="M518.6,56.7c3.8-0.7,6.6,1,10.4,1c3.2,0.9,6.7,2,9.4,4c1.9,2.1,1.5,6.2,1.1,8.8c-2.3,3.2-6.5,5-9.9,7
		c-3.3,1.9-6.4,1-10,1.2c-2.1,1-6.2,2.4-6.5,5c4.5,0.9,9.4-0.8,13.7,0.6c-0.2,0.5-0.4,0.9-0.6,1.4c3.8,1.2,8.1,1.4,11.9,2.7
		c2.5,0.3,5.1,0.1,7.6,0c-0.2,0.5-0.3,1.1-0.5,1.6c2.2,0.9,4.8,2.3,7.3,1.6l0.4-1.6c3.2-3.6,7.5-5.9,10.6-9.6c2.5-2.3,5.4-4.4,9-4.2
		c1.7-1.4,2.8-1.9,5.1-1.9c2-2.6,4.1-1.3,6.5-2.8c3-0.4,6.4,0.5,9.1-0.8c5.3-0.5,9.9,0.6,15,1.1c8.2,2.2,16.2,6,22.6,11.7
		c6.7,5,13.1,12.3,14.9,20.6L645,105c-2.2,0.1-2.7-4.9-4.4-5.6c0.1,1.3,0.1,2.7,0.1,4c1.6,2.3,1.8,5.1,3.2,7.5
		c1.6,7.6,1.9,16.4-1.2,23.6c-0.1,2.2-1.1,3.9-1.3,6c3.6-6.6,6.7-14.6,6.1-22.3c0.7,0,1.4,0,2,0c1.6,10.7-4.9,22.1-10.7,30.6
		c-2.4,4.7-6.1,8.1-9.6,11.9c1.2,2.8,3,5.2,4.1,8c1.1,2.5,2,5.1,3.4,7.5c5.3,6.7,9.4,13.9,13.5,21.4c0.9,2.2,2.9,1.4,4.6,2.6
		c5.9,3,12.1,4.9,18.1,7.7c5.8,1,10.1,4.6,14.5,8.2c2.8,1.9,5.4,4,7.6,6.5c10.1,8,20.2,13.2,30.4,20.5c3.2,3.1,6.7,2.9,10.7,4.3
		c0.5,0.8,1.1,1.6,1.6,2.4c3.5,1.1,5.5,3.6,8.5,5.5c2.2,3.4,3.3,7.2,5.9,10.4c0.2,2.9,2.9,3.2,2.3,6.6c3.5,2.9,6.4,5.7,8.1,9.9
		c1.7,2.3,4.1,3.7,5.4,6.4c2.5,2.5,4.7,5.3,7.8,7.2c1.7,2.6,4,4.6,6.1,6.9c1.4,2.9,3.6,5,6,7.1c1.3,1.3,2.4-0.3,3.4,1.4
		c0.1,1-0.1,2.1,0.1,3.2c2.3,3.8,5.3,6.7,7.3,10.7c1.7,3.2,6,6.4,5.9,10.2c2.3,1.7,2.9,4.1,4.9,6c2.2,3.6,5.1,6.4,6.9,10.4
		c0.7,1.6,2.4,2.4,3,4c0.7,1.8,2.6,2.5,3.2,4.4c3.3,3.7,4.8,9.1,7.6,13.2c2.8,3.5-0.1,6.8,1.4,10.8c1.4,0.5,4.7-0.5,4.7,1.7
		c-0.4,3.2,1.3,5.1,1.2,8c2.1,2.2-0.6,4.3,2.8,5.6c-0.2,1.7,1.1,2.6,1,4.3c-0.1,3.1,3,6.3-0.4,8.7c-1.7-1.5-3.3-2.9-5.6-3.4
		c0.1,2.1-0.1,4.2,0.2,6.2c1.9,3.2,1.4,8.2,3.8,11.1c-0.2,2.6,1.3,5,1.9,7.5c0.2,2.4,1.4,4.7,2,7c4.6,15.4,15,28.7,21.9,43.5
		c0.8,3.3,2.9,6.2,4.2,9.4c2.1,3.5,4.6,6.8,6.3,10.5c3.3,4.5,8.2,7.7,11.3,12.5c3.8,4.1,6.3,9.1,7.6,14.5c0.7,2.8,3.3,3.8,4.2,6.5
		c0.8,1.7,2.5,3.2,2.4,5.1c-0.1,5.6,1.6,11.4,2.3,17c2.7,14.1,9.1,25.8,14.7,39c1.7,4.3,4.3,8.3,6,12.6c0.6,6.9,0.2,13.7,0.1,20.4
		c2.4,4.6,1.3,9,1.2,14c-0.1,2.1-0.7,3.8,0.8,5.6c0.6,3.5-0.7,6.1-0.8,9.4c-0.2,2.7,0.2,5.1-1.2,7.5c-1.3,2.4-1,6.4-3,8.2
		c-0.1-1.8,0.8-3.1,1.1-4.8c0.2-3.1,2.1-5,0.9-8.3l-2.2-0.1c-1.2-0.7-0.2-3.1-0.1-4.2c0.2-2,0.2-3.9,0.5-5.9
		c-0.9,3.8-1.6,7.7-2.8,11.5c-0.7,4.2-0.1,8.8,0.5,13c0.1,7.7,0.1,15.3-0.1,23c-0.1,2.4-0.7,4.6-0.2,7c1.1,5.3-0.7,9.8-0.5,15
		c0.4,3.3-2.6,5-2.2,8.3c-2.3,3.2-2.3,8-3.6,11.6c-1.8,8.6-4.6,16.9-6.4,25.5c-0.5,1.9-3.9,0.7-5.3,0.5c-2.1,3.9-3.4,8-6,11.7
		c-0.7,2.9-2.6,5.6-3.8,8.4c-1.7,4.7-3.9,9.4-6.6,13.5c-1.2,1.8-2.8,0.7-4.5,0.6c-1.6,2.5-2.7,5.3-4.4,7.8c-0.9,2-1.3,4.2-2.8,6
		c-2.1,2.6-4.3,5.1-6,8c-2.3,2.4-4.5,4.8-6.8,7.2c-3.4,4.2-7.9,7.3-11.4,11.5c-1.1,3.2-3.3,5.7-4.5,8.8c-1.8,2.5-5.4,1.6-7.2,3.6
		c-2.5,2.5-5.5,4.9-9.1,5.4c-2.5,1.1-4.1,4.3-6.4,5.9c-3.9,0.8-6.5,3.5-10.1,5.4c0.5,1.3,1.4,2.6,2.3,3.7c2.1,2.3,5.9,1.3,8.9,2.2
		c2.2,2.6,5.4,3.8,7.6,6.4c4,3.9,8.5,7.5,12.8,11.1c4.8,4.4,8.4,9.9,13.6,14.2c4.9,1.8,9.2,4.5,12.7,8.4c3.3,4.1,6,8.2,7.9,13.2
		c1.9,4.1,5.1,7.3,4.6,12c-0.9,2.2-2.8,2.6-5,2.9c-1.7,1.3,1.8,3.5,2.3,5c2.3,2.4,4,5.2,6.3,7.6c0,0.7,0,1.3,0,2
		c-0.6,0.7-1.3,1.3-1.9,2c-2.5-0.2-5.4-1-7-2.9c-2.7-2.4-3.7-5.6-8-5.2c-5.3-5.2-10.4-11.2-16.4-15.7c-5.7-4.7-12-9.7-19-12.1
		c-6.7-3.7-14.9-5.2-22.1-8c-3.1-0.8-5.8-1.6-9-1.3c-2.2,2.1-2.8,3.7-6.3,3.4l0,1.2c2.2,2.7,3.7,5.8,5.8,8.6c2.3,3.4,4,7.4,6.1,10.9
		c2.9,4.4,4.6,9.9,6.8,14.6c0.3,2.5,0.8,4.4,2,6.6c0.2,3.3,1.5,6,1.4,9.4c0.8,2.5,0.8,4.9,0.8,7.5c-0.6,0.6-1.2,1.3-1.8,1.9
		c-1,0-2,0-3,0c-0.7-0.6-1.4-1.1-2.1-1.7c-1.4-5.9-0.2-10.7-2.6-16.2c-1.1-6-3.6-11.8-6.1-17.3c-2.3-1.2-0.8,3-0.7,3.9
		c2.9,9.5,5.1,18.3,6.9,28c0.6,2.2,1.7,4.7-0.4,6.4c-1-0.1-1.9-0.1-2.9-0.2c-0.7-0.3-1.4-0.6-2.1-0.9c-0.9-6-4.4-9.6-7.3-14.7
		c-1.2-1.7-2.9-3-4.1-4.8c-0.9-1-1.1-2.2-2.6-2.5c-2.1-1.7-2.9-4.2-5.4-5.4c-1.9-1.2-3.4-3.9-5.6-4.6c-1,0.9-1.6,2.4-3.1,1.2
		c-1.9-1.6-2.7-3.7-4.3-5.7c-0.9-1.3-0.8-2.8-2-4c-4.3-4.4-8.6-8.7-13.2-12.8c-2-1.5-3.9-1.8-6.4-1.8c0.3,5.1,0.4,9.8-1.7,14.4
		c-0.8,2.4-6.7,2.6-7.4,0.3c1-1.6,1.5-3.3,3-4.6c-0.1-4-0.1-8,0-12c-0.6-0.6-1.3-1.2-1.9-1.8c-3.9-0.8-7.5-1.4-11.5-2
		c-2.8,0.9-5.1,2.6-8,3.1c-0.8,0.6-1.1,1.3-0.9,2.1c1.8,2,4.3,3.8,5.8,6.1c1.4,2,1.8,4.2,2.8,6.4c1.2,3.1,3.4,5.6,5.2,8.5
		c1.1,2,3,4,2.6,6.4c-1.2,2-4.2,1.6-3.8,4.5c0.5,4.3,1,8.6,1.1,13c-0.3,2.7,3.3,5.8,1.6,8.3l-1.9,0.3c-0.5,3.5,2.4,4.6,3.2,7.8
		c-1.8,1.7-3.4,1.1-5.7,0.7c-2.4-0.8-3.6-2.9-5-4.8c-1.6-1.3-4.1-1.3-6-2.1c-0.6-1.8-0.5-3.8-0.5-5.7c-1.9-2-3.5-4-4.9-6.4
		c-1.3-2-3.1-3.3-4.5-5.2c-0.6-1.1-1.5-1.7-2.5-2.5c-3.4-3.1-6.5-7.1-10.5-9.6c-3.7-3.8-8.5-5.9-12.7-9.2c-3.7-1.6-6.6-4.4-10.3-6.2
		c-1.8-1-3.9-3.1-6.1-3c-5.7,0-11.3-0.2-17,0.2c-3.5,0.5-6.2-1.1-9.6-1.9c-10.2-0.4-20.6-2.1-30.4-5.2c-5.2-0.8-10.2-3.5-15.4-4.4
		c-2.4-1.8-5-2.8-7.7-4.1c-1.7-1.4-3.5-2.6-5.4-3.8c-2-1.4-3.3-3.9-5.4-5c-2.5-0.2-4.7,0.4-7.1-0.6c-1.9-0.5-4.2,0-6.1-0.8
		c-3.4-1.6-6.9-1.5-10.1-3.8c-3.3-2.1-7.7-5.9-7.5-10.2c-0.1-2-0.2-4,0.1-6c2.7-4.6,1-10.6-4.2-12.3c-4.2-2.5-2.6-6.5-3-10.6
		c-1-2.9-2-6-2.9-9c-1.2-3-0.9-6-2.4-9.1c-1.1-2-0.2-4.8-0.9-6.9c-0.5-1.3-0.5-2.7-0.6-4.1c-1.5-2.2-0.6-5.4-0.9-8
		c-3.1-4.4-3.8-9.8-4.7-15c-0.7-2.5,0.2-4.5,0.5-7c0.5-3.8-1-7.7-2.7-11c-0.6-5.2-3-10-4.3-15c0-2-3-2.6-4.4-3.3
		c-3.4,2.7-5.7,7.2-7,11.3c-1.9,3.7-2.2,7.6-3.4,11.4c-0.3,2.9,0.3,6.3-1,9c-0.3,2.5-0.1,5-0.5,7.5c-0.9,5.5-0.2,11.3-0.5,17
		c-0.7,5.9-0.8,12.3,0.6,18c0.2,4.9,0.4,10.3,1.9,15c0.1,4.3,0.5,8.7,0.2,13c-0.8,2-2.2,3.9-2.9,6c-0.1,3-0.1,6-0.3,8.9
		c0.3,2.7,1.9,5.2,2.1,8c-0.4,1.3-0.6,2.6-0.8,4c-1.3,3.6-4.5,6.5-7.6,8.6c-4.8,1.9-9.7,4-15,4.8c-3.1,0-5.9,1.2-9,1.1
		c-8,0-15.4,0.7-23-0.8c-4.1,1.3-7.4,4.2-11.5,5.8c-15.5,7.9-31.5,10.2-48.5,12.6c-10.7,1.1-21.3,0.5-32,0c-6.8-1.8-13.8-2.6-20.5-5
		c-7.5-2.1-14.8-5.6-21.5-9.5c-2.1-1.2-3.4-2.8-6.1-2.3c-1.6,1-3.1,1.1-4.9,1.1c-1.4-0.2-2.5-2.3-4-1.7c-11.9,5.5-22.3,12.8-33,20.2
		c-2.7,2.8-6.3,4.3-9,7c-5.2,4.5-12.1,8.5-15.6,14.4c-1.9,2.7-5.4,2.7-8,5c-3.6,3.4-7.8,5.3-10.7,9.1c-0.9,1.9-0.8,3.6-3.2,4.2
		c-1.4,1-4.9,0.2-4.9,2.3c0.1,2.4-1.2,4.2-3.7,4.5c-3.6-0.1-4.5,4.7-7.1,6.2c-1.4,1.2-3.1,0-4.6-0.3c0.6-2.1,2.3-3.5,3.1-5.4
		c-0.6-1.1-2.1-1.3-1.9-3c1.4-5,1.7-10.1,3.8-14.9c1.9-4,2.9-8.1,5.8-11.6c0.7-2.8,2.8-4.5,2.5-7.4c0.1-4.3,4.4-8.4,6-11.6
		c-5.2,1-10.2,4.4-15.7,4.9c-1.6,0-3.1-0.1-4.6,0.2c0.5,0.9,1.1,1.7,1.7,2.4c-0.9,1.4-2.2,2.5-3.6,3.4c-6.9,3.3-14,5.9-21,9
		c-4.8,2.2-9.5,2.9-13.5,6.6c-1.3,1.5-3.3,1-4.6,2.5c-2.5,2.8-4.1,6-5.5,9.5c-1.6,1.6-7.1,0.8-6.6-2.3c-1.3-0.4-2.7-0.8-4-1.3
		c-0.2-2.5,1.2-4.6,2.1-6.9c2.3-5.7,5.3-10.8,7.4-16.6c-0.6-1-1.4-1.7-2.6-2.3c0.2-1.9,1.5-3.1,2.5-4.6c4-6,9-11.2,13.2-17
		c2-2.2,4-4.1,5.5-6.7c-2.2,1.3-4.1,3.5-5.6,5.5c-4.5,3.4-8.1,8-12.4,11.7c-3.2-0.2-6.4,0-9.6,0c-0.9,0.6-1.7,1.3-2.4,2.1
		c-1.3,0-2.7,0-4,0c0-1.3,0-2.6,0.1-3.9c1.5-1.6,2.3-3.6,3.8-5.2c1.5-1.5,1-2.9,0.9-4.8c-2.9-0.7-6.5,0.7-9.4,1.3
		c-4.2,0.8-6.9,3.5-10.5,5.5c-3.2,1.8-5.8,5-9.5,5.5c-1.6,0.6-3.5,0.2-5,1c-3.4,3.1-6.4,7.4-10.6,9.3c-2.9,0.3-6,0.6-8.9,0.2
		c-2.7-1.6-2-3.3-1.8-6c-1.5-0.4-4.2-0.2-3.9-2.5c3.2-6.6,8.9-12.9,13.8-18.4c7.5-8.3,16.9-13.4,24.6-21.6c3.3-3.8,7.5-6.3,10.9-10
		c3.9-2.8,6.9-6.4,10.5-9.5c1.8-1.2,3.4-2.6,5-4c5.9,0.8,8.7-6.4,14.5-6.3c2.3,2.6,4.1,0.6,7,1.3c2.6,0.3,5.1-1.5,7.7-2
		c-0.5-2.4-2.8-1.5-3.7-3.5c-1.3-3-4.7-5-7.1-7c-7-7.5-15.8-13.6-22.6-21.4c-6.1-6.8-13.2-12.9-18.9-20.1
		c-5.8-6.5-10.8-13.9-16.4-20.6c-2.4-4.7-6-8.6-8.8-13.1c-2-2.5-3.8-5.2-5.9-7.5c2.2,5.1,5.7,9.7,8.2,14.6c1.8,3.3,4.6,7,5,10.7
		c-4.1-5.2-8.9-9.4-12.3-15c-2.6-3.1-5-6.5-7-10c-2.2-3.3-4.4-6.4-6.1-10c-1.8-3-3.8-5.7-5-9c-3.1-4-5.1-9-7.1-13.7
		c-2.5-4.4-3.6-9.5-5.7-14c-2.5-5-3.8-10.7-5.6-15.9c-2.2-4.9-2.7-10-4.2-15c-0.2-1.8-0.2-3.7-0.1-5.5c0.5-1.6,2.8-1.7,3.1-3.3
		c-0.1-6-0.2-12.1,0.1-18.1c1.2-3.8,0.9-8.1,0.7-12.1c-2.9-7.2-5.5-14.3-6.7-21.9c-0.3-8.2-0.5-16.2,0.1-24.4c1-2.2,0.4-4.5,1.6-6.6
		c0.2-5.3,3.5-9.6,3.9-15c0.1-4.7,0.2-9.3,0.5-14c1.4-5.6,2-11.5,3.7-17c2.8-9.9,7.3-19.3,12.5-28.1c4.8-7,9.3-13.6,16.4-18.6
		c6.9-4.6,14.5-6.8,22.7-7.6c5.9-0.4,11.5,0.5,16.4,4c1.1,1.4,2.1,2.8,3.3,4.1c4.6-4,9.8-7.1,15.4-9.5c3.4-1.1,6.5-2.7,10-0.8
		c3.2-0.6,6.2-1.5,8.6-4c2.6-2.5,6.8-4.9,8.2-8.2c-5.1,2.3-9.4,5.7-14.3,8.3c4.9-4.5,10.7-8.1,15.7-12.5c3.9-2.2,7-4.8,10.4-7.6
		c2.6-3,4.5-6.3,6.2-9.8c3.9-3.7,5-8.5,4.9-13.8c1.5-10.9,0.6-22.4,1.1-33.5c0.2-1.4,0.5-2.8,0.8-4.2c0.9,0.1,1.6,0.4,1.9,1.1
		c1,11.1,1.2,22.1,1.1,33.2c3.1-4.8,4.8-10.1,8.5-14.7c1.4-3.7,2.5-8,2.8-11.9c2.4-7,2.7-14.8,4.6-22c0.5-5.8,1.7-11.7,2.4-17.4
		c1.7-3.1-0.1-6.4,1.6-9.6c0.6-2.9-0.2-5.4,1.1-8c0.8-7.2,2.8-14.4,3.3-21.5c1.3-2.4,0.3-5.1,1.6-7.5c0.6-1.3-0.7-3.9,1.4-3.9
		c0,4.3-0.3,8.6-0.3,13l0.5,0.7l1.1,0c1.2-4,2.9-7.4,2.7-11.8c1.5-3.5,1.9-6.9,3.1-10.5c3.2-4.6,4-10.2,6.7-15.2
		c3.6-9.2,9.5-17.3,13.9-26.4c0.1-2.3,1.9-3,2.9-4.9c1.4-2,1.9-4.3,3.3-6.3c-1.8-2.2-4.9,1.7-6.3,2.9c0.3-1.6,1.3-3.2,2.1-4.7
		c3.3-5.6,6.8-11.1,10.3-16.5c4.4-5.1,9.9-9.5,14-14.9c1.9-1.1,3.3-2.7,5.2-3.8c2-1.5,4.2-2.3,5.9-4.1c1.5-0.4,2.6-1.2,3.8-2.1
		c3.1-0.7,6.8-0.8,9.4-2.6c3-2.7,6.2-6,10-7.6c3.8-1.7,7.1-3.9,11.2-4.9l1,0.3c-0.3,2.2-2.2,3-3.6,4.6c-2.3,2.7-5.6,4.4-8.4,6.6
		c-3.6,3.4-7,7-10.5,10.4c-0.1,0.8-0.1,1.6-0.2,2.3c3.1-1.1,4.4-3.7,7-5.5c2.4-1.6,4.2-3.8,6.7-5.3c2.1-1.5,4.5-1.8,6.4-3.6
		c2.6-2.1,5.7-2.3,7.9-4.9c0.5-2.6,1.2-4.9,1.4-7.5c2.2-2.7,2.5-5.9,5.2-8.1c1.5-1.4,3-1.7,2.7-4.2c2.5-0.2,2-3.6,4-5
		c1.5-1.3,1.1-2.3,1.1-4.1c1.1-1.1,1.9-1.9,2-3.5c0.5-2.4,2.1-4.7,3.9-6.5c0.9-0.9,1.7-1.7,0.9-3c-2.9-2.7-5.9-5.8-9.4-7.5
		c-3.5-4.9-7.5-10.1-12.5-13.5c-3.4-3.6-7.1-6.9-9.8-11.1c-0.2-2.7-0.4-5.3-1-7.9c-0.2-2.5,0-5-0.5-7.5c-0.3-1.4,0-3,1.2-4
		c-0.4-4.5,2.5-8,1.9-12.7l0.4,0c-0.1,7.5-0.5,15.2,0,22.7c1.3,1.9,0.4,4.1,1.6,5.9c2.9,4.3,6.5,8.7,10.7,11.8l1.4-0.2
		c0.9-2.4-0.6-4.5-1.7-6.5c0.3-0.8,0.5-1.6,0.8-2.4c1,0,2,0.1,3,0.2c1.3,0.5,1.6,2.6,2.1,3.7c1,0.6,2.1,1.1,3,2
		c2.7,2.6,6.5,3.6,9.4,6.1c3.7,0.8,6.6-0.7,10.1-1.1c2.7-0.8,1.5-4.8,1.5-6.9c1.1-1.1,2.1-1.8,2.1-3.5c0.4-3.5,2.6-7.2,4-10.5
		c1.1-2.1,4.2-3.2,5.1-6c-4.4,0.4-10.3-0.1-13.3-3.9c-1.2-1.3-2.3-2.8-1.4-4.7c1.4-3.8,4.5-4.3,7.1-6.9c1.4-1,3.3-1.1,3.8-3
		c-0.6-0.7-1-1.4-1.2-2.1c-0.4-3.4-1.3-6.7,2.3-8.7c3.1,0.4,7-0.3,9.6,1.4c1.6,1.3,2.6,3.1,4.5,3.9c1.6,0.7,2.5,2,3,3.6
		c1.5,1.4,2.8,0,4.2-0.7c1.8-1,3.5-1.3,4.3-3.4c0.7-1.4,3-1.2,3.2-3c-1.1-3.3-3.1-5.9-5.6-8.2c-1.2-0.2-2.3-0.4-3.5-0.5
		c-1.7-1.2-2.3-3.4-4.1-4.7c-1.4-0.8-3.1-1-4.5-1.6c-0.9-2.4-1.6-3.3-3.9-4.3c-5.6-2.7-11.3-1-17.1,0.2c-3.5-1.6-4.8,1-7.9,2.1
		c-3,1.6-5.8,3.1-9,4.2c-2.2,1.5-3.3,4.8-5.3,6.5l-0.5-1.8c-2,0.2-3.5,2.9-4.9,4.2c-1.7,1.8-2.1,6.3-4.9,6.5c0.2-2.5,0.8-3.5-1-5.6
		c1.9-2.8,5.3-4.6,8-6.6c4.1-3.9,8.9-8.9,14.5-10.5c3.3-1.2,6.8-0.5,10.1-1.8c5.2-1.9,10.5-1.6,15.9-1c5.3,0.6,10,3.6,14.5,6.4
		c2.7,1.7,3.3,4.6,6.5,5c4,1.6,4.3,6.4,5.9,9.8c0.5,1.9,2.6,4.9,1.4,6.7c-2.7,2-4.5,4.2-8.2,3.7c-2.9,0.9-7,2.6-6.8,6.3
		c-0.9,1.5-2.5,1.1-3.9,1.8c0.4,0.5,0.7,1.1,1.1,1.7c-2.6,2.7-1.8,5.9-4.6,8.4c-2,3.7-3.8,7.5-5.6,11.3l-1.3,0.6
		c-2.2,4.7-4.1,9.8-7.2,14.1c-1.2,2.4-2.2,5-3.5,7.4c-3.1-0.3-6,1.9-8.9,2.9c-2.5,0.2-5-0.1-7.5,0.1c-1.4,0.5-3,2.1-2.8,3.8
		c0.5,2.3,2.6,1.6,4.3,1.6c1.4,1,2.4,0.8,4,0.8c0.6,2,1.4,4,2.2,5.9c0.9,1.1,3.4,2.1,1.6,3.7c-2.3,1.7-3.1,3.5-4,6.1
		c-1.2,0.1-2.5,0.2-3.7,0.2c-4.6,3.4-3.5,9-6,14.1c-1-0.2-1.8-0.1-2.5,0.3c-0.7,2.3-1,5.3-2.6,7.2c2.7,3,2.8-3.7,4.3-4.9
		c-0.1,1.4,0,2.6-0.6,3.9c-1.2,2.3-0.1,4.7-1.7,6.9c-0.3,2.1,0.2,4-0.8,6c-1.3,3.1-1.1,6.1-2.3,9.2c0.2,5.2-2.6,9.6-2.8,14.8
		c-0.1,1.7-0.1,3.3-1,4.8c-0.8,0.2-1.1,0-1-0.8c0.2-5-0.2-10,0-15c1.2-1.1,1-2.2,1.1-3.7l-1,0.2c-2.6,4.6-2.4,9.2-3.1,14.3
		c-1.5,0.7-3.2-2.7-3.9-3.7c1-4,1-8.6,0.7-12.8c-2.8,1.6-4.9,4.7-7.4,6.9c-3.5,1.4-6.9,0.9-9.5,3.4c-3.3,2.9-6.5,5.6-10.4,7.7
		c-0.9,1.4-2.5,2-3.7,3.2c-3.4,2.6-6.2,5.6-9.7,8.1c-0.9,0-1.8,0-2.7-0.1c-1.5,0.3-1.3,2.2-2.4,3.1c-3.7,3.3-5.6,8.4-8.8,12
		c0.6,4-2.9,3.9-3.5,7.4c-1.4,5-2.9,9.9-3.9,15c-0.3,1.4-1.7,3.3,0.5,3.9c3.8-1.4,7.5-3,11.1-4.8c3.6-1.1,6.1-3,9.6-2.6
		c1.2,2.4-2.1,2.8-3.5,3.8c-4.6,2-9,4.3-13.6,6.4l-0.1,0.8c1.8,1.9,4.1,3.2,6,4.9c0.1,0.8,0.2,1.7,0.3,2.5c2.8,3.2,6.4,5.7,8.8,9.3
		c0.6,0.1,1.3,0.2,1.9,0.3c4.2-8.4,10.2-17.2,18.5-22.1c1.9-0.4,3.8-0.5,5.6,0.3l-0.3,1.2c-4.9,4.3-9.2,9.1-12.7,14.5
		c-1.6,3.3-4.7,6.5-5.3,10.2c2.7,0.1,5.5-0.1,8.2,0.1c1.6,0.7,3.3,0.7,5,1c3.2,1.6,5.9,1.9,8.2,4.9c-6.4-2.8-12.8-4.4-19.7-2.6
		c0.3,1.6,0.7,3,2,4.1c1.6,1.8,1.9-1.3,3.5-0.7c2.1,2.2,4.4,4.2,6.3,6.5c0.4,2.2-1.6,3-1.4,5c-0.1,1.8,1.5,2.5,2.3,4
		c1.9,3.4,4.3,6.3,5.8,9.9c0.5,1.3,1.5,1.8,2.5,2.7c3.8-3.2,7.1-7.2,11.1-10.3c1.9-1.2,3.8-2.1,5.5-3.6c3.6-0.5,6.6,0.1,10.1,0.8
		c0.4,2.9-2.8,4-4.6,5.6c-2.7,2.1-5.9,2-7.8,4.7c7,0.1,13.8-1.2,20.8-0.1c1.5-0.1,3.4,0.8,2,2.4c-2.6,1.4-5.4,1.3-8,1.6
		c-2.6,1.1-5.2,0.4-8,1c-2.8,1.2-5.7,0.3-8.6,1.5c-3.4,0.2-6.1,0.7-7.8,3.9c1.2,3,4,4.9,5,8.2c0.7,2.5,3.6,6.3,2.6,8.9
		c-1.6,0.3-2.3-2-3.6-1.7c-1.8,4.4-3.1,9.1-4.6,13.7c-0.9,6.5-2.9,13.9-5.3,20c0,2.9-0.6,6.5-2,9c0,1.3-0.3,2.5-0.9,3.5
		c-0.2,1.6,0,2.7-1,4c-0.3,1.8,0.2,3.4-1,5c-0.4,2.2,0.4,4.1-1,6c-0.4,3.4,0.2,7-0.5,10.4c-1.2,1.8-0.6,3.9-0.8,6.1
		c-1.9,2.2-0.5,6.3-1,9c-1.8,1.9-0.6,5.5-1,8l-0.9,1.4c-0.1,8.2,0,16.4-0.2,24.6c-0.6,0.6-0.9,1.3-0.9,2c0,4.3,0.1,8.7-0.1,13
		c-0.6,0.6-1,1.2-0.9,2c0,7.5,0,15,0,22.6l0.9,1.4c0.4,2.7-0.9,6.9,1,9c0.2,1.9-0.5,3.5,1,5c0.1,2-0.5,3.5,1,5
		c0,0.9-0.1,1.8-0.1,2.8l1.1,0c-0.1-1.8,0.3-3.2-1-4.6c-0.1-3.9,0.1-7.8-0.1-11.6l-0.9-1.4c0.5-1.5-1.4-5.6,1-5.6
		c-0.1-3.2-0.1-6.3,0.1-9.5c1-2.3,2.1-4.5,3.7-6.4c1.5-1.7,1.8-5.8,0.2-7.5c-0.1-9.3-0.1-18.7,0-28c-0.1-1.2,0.2-2.4,0.8-3.5
		c0.2-4.5,0.1-9,0.2-13.5c1.6-4.3,0.6-9.2,1-14c1.5-1.5,0.7-4,1-6c2-2.2,0.3-6.2,1.2-8.9c0.9-1.3,0.8-2.6,0.9-4.1
		c1-1.7,1.5-3.5,3.3-4.7c1.3,1,1.8,2.2,1.4,3.7c-1.2,2.8-0.7,5.6-1,8.5c-1.8,3.3,0.1,6.8-1.8,9.9c-0.5,3.5,0.7,7.9-1,11
		c-0.5,4.3,0.7,9.6-1.1,13.5c-0.4,4.5,0.8,10-1,14c-0.4,6.5,0.6,13.7-1,20c0,2.5-0.2,5.1-0.2,7.6c1.4,0.1,3.2-0.9,3.2,1.4
		c-1,2.4-1.4,4.8-3,6.9c-0.1,2,0.2,3.7-0.9,5.5c-0.1,3.3-0.2,6.7,0,10c1.3,2.4,0.6,5.8,0.8,8.5c0.3,6.7,0.1,13.3,0.2,20
		c0.1,2.2-0.5,4,0.9,5.9c0.3,2.1-0.1,4.4,0.2,6.5c0.9,1.4,0.8,2.5,0.9,4.1c1.4,2.8,0.6,6.5,1,9.5c1.1,3.6,2.1,7.6,2,11.4
		c1.2,1.4,1,2.2,0.9,3.9c2,0.4,1.9,2.9,2.9,4.5c0.9-4,1.2-7.5,0.9-11.6c1.5,0.3,2.3,3.3,3.8,4.3c0,1.6,0.1,3,0.8,4.5
		c1.6,5.8,3.9,12.2,5.1,18c0.6,2.8,1.9,5.2,2.6,8c0.6,2.3,2.2,3.7,1.9,6c-0.5,2.5,1.8,3.4,2.5,5.9c1.2,3.3,3,6.1,4.7,9.1
		c0.6,2.1,1.5,3.3,2.7,5.1c2.5,5.8,5.3,11.9,9.6,16.5c0.5,2.4,2.2,3.6,3.5,5.5c1.3,1.9,2.7,3.5,4.8,4.7c7.2,5,14.8,9.4,22.8,13.1
		c1.6,2.3-2.1,1.7-3.2,1.8c-3.6-1-7.2-2.6-10.9-3.3c0.4,3.6,5,6.1,7.2,8.3c0.1,2.1,1.8,2.6,2.9,4.3c0.9,1.4,3.9,2.3,4.4,4
		c-0.1,0.6-0.7,0.9-1.6,0.9c-4.5,0.7-7-2-10.5-4.1c-5.1-2.4-6.9-7.4-11.9-10c-3.4-2.5-5.9-6.1-9-8.9c-3.4-2.9-6.1-6.8-9.9-9.2
		c-0.2-0.8-0.4-1.5-0.5-2.3c-3.4-0.8-4.8-5.6-7-8c-2.7-4.5-5.6-9.1-9-13.1c-0.5-0.3-1-0.5-1.6-0.5c-1.5,2.9-0.6,5.8-1.8,8.7
		c-2.1,13.4-5.2,26.9-11.7,39c-0.9,2.2-2.7,3.7-4.5,1.1c2.8-8.9,5.8-18.3,7.9-27.4c1-5.5,2.5-10.6,2.2-16.3c-0.6,0.1-1.3,0.2-2,0.2
		c-1.8,3.5-1.9,7.6-4.4,10.9c-3.4,4.8-4.8,10.6-7.8,15.4c-0.3,3.7-3,7.1-4.4,10.5c-1.4,3.6-4.5,5.2-6.6,8.5
		c-1.6,2.5-4.1,3.8-5.4,6.5c-1,1.6-2.9,2.7-3.7,4.5c-0.8,1.6-2.4,2.3-3.1,4c-0.8,1.4-2.1,3.2-3.7,3.7c-0.7-1.2-1.5-2.4-2.2-3.6
		c1-2.1,1.9-4.2,3.5-6c2.5-3.6,4.9-7.2,7.2-10.9c0.8-1.5,2.2-2.8,1.4-4.6c-3.2-0.2-6.3,0.5-9.6,0.1c-2.5,0.1-4.6-1.1-7-1.2
		c-1.9,0-3-1.5-5.1-1.1c-1.2,1-1.6,1.4-3.2,1.3l-0.5-1.7c-2.9-1.3-7.4,0.2-10.4,1l-0.1,1.1c2.4,3.4,4.1,7.2,6.6,10.6
		c0.6,3.3,2.8,5,4.7,7.5c4.7,8.6,10.1,16.3,15.6,24.4c2.5,3.9,6.2,7.5,8.4,11.5c0.1,4.7,3.9,6.2,7,9.1c5.1,4.9,10.2,9.8,15.3,14.7
		c2.5,2.9,5.1,5.3,5.7,9.2c2.7,4.1,6.9,7.3,10.1,11c1.6,2.2,5.1,1.2,6.6,4c-0.3,0.8-1.9,2.2-0.6,2.9c1.6,1.5,5.9,1.7,4.5,4.7
		c-4.1,1.1-8.8-2.5-12.5-4.1c-6.8-0.2-13.5-2.3-20.1-3.7c-3.5-0.6-6.8-1.8-10.1-3.2c-7.6-1.9-14.3-6.9-21.9-9.2
		c-2.3-1-5.5-1.4-7.1-3.4c-3.2-3.6-9.5-3.9-12.9-7c-2.2-1.8-4.8-2.1-6.7-4.3c-1.8-0.5-3.3-1.5-4.9-2.4c-0.2,3.2,2.5,4.8,2.4,8
		c2.4,4.5,4.7,9,6.1,13.9c1.6,3.6,4.5,6.9,7.1,9.7c2.7,4,5.3,7.9,9.4,10.7c3.7,3.3,6.9,7,10.8,10.1c0.9,0.8,1.7,1.7,2.5,2.6
		c2.2,0.2,4.5-2.1,6.3-0.5c2.5,2.1,5,4.8,6.6,7.7c1.7-0.4,2.7-2.3,4.3-3c2.3-1,4.6-2.7,7.1-3c4.9-0.2,8.7-3.6,14-3.2
		c1.9,0,3,0,3.6,2c1.8,0.3,3.4,1.1,5.4,1c4.1,0.3,7.1,2.5,11,3.2c2.4,0.5,4.5,2.4,6.3,3.9c2.8,6.4,6.7,12,8.4,18.9
		c3.2,5.9,3.4,12.3,1.7,18.6c1.2,1.3,0.5,3.5,2.5,3.6c4.3-1.4,8.6-3,12.7-4.9c13.2-2.9,27.7-1.8,40.3,2.8c4.7,2.1,9.2,5.1,13.5,7.9
		c3.7,0.6,6.5-1,10-1.9c6.8-2.8,13.3-5.6,19.7-9.5c-0.1-2.2-1.8-2.8-3.4-3.9c-0.4-0.9-1.1-1.6-2-2c-1.6-2.4-3.1-4.8-5.2-6.8
		c-0.1-0.6-0.2-1.2-0.2-1.9c2.2-1,4.3-2.4,6.1-4c0.6,0,1.2-0.1,1.8-0.1c1.2,4.3,2.9,8.7,5,12.6c0.1,2.2,1.6,3.7,3.6,2
		c4.4-3,7.8-6,9.6-11.1c0.2-1.4-0.4-3.6,1-4.4c2.5-1.1,4.3-2.6,7.2-2c-0.5-9.8-0.4-19.7-0.6-29.6c-1.3-5,0.2-10.2-1.3-15
		c0.2-8.7-0.6-17.3-0.5-26c-0.2-4.4,3-7.5,3.4-11.5c2.2-2.2,4-4.5,7-5.8c1.9-0.1,3.9-0.2,5.9-0.2c2.4,2.9,5.2,1,8.1,3
		c0.6,3-2.1,4.1-4.6,4c-2.8-0.1-5.3,0.3-5.7,3.5c0.6,2,3.4,0.9,4.5,2.9c0.9,2.2,1.9,4.6,1.8,7.1c0.6,1.1,1.3,2.5,2.6,1.1
		c0.8-3.2,1.7-6.2,2.9-9.2c0.4-3.6,2.7-7,5.3-9.5c2-2.6,3-5,6.5-5.9c3,0,5.6-1.2,8.5-1.1c-0.4-1.7,0.7-3.1,2.4-2.9
		c2.6,1,5.2,0.4,7.5,1.8c3,1.1,5.1,4.2,7.5,6.4c2.3,2.9,3.9,6.7,6.4,9.5c1.5,0.4,3.3,0.2,4.9,0c1.6-2.8,1.1-5.5,1.3-8.5
		c1.2-2,0.2-5.7,3.7-4.5c0.1,2.4,1.7,4.3,0.5,6.5c-1.2,2.2,1.2,3.1,0.2,5.3c-1,1.6-0.8,3.3-0.9,5.1c-2.3,2.7-2.6,6.5-4.2,9.6
		c-1.1,4.4-0.2,9-1.8,13.4c-2.1,5.1-2.8,11-0.9,16.2c0.5,2.4,1.1,4.8,1.2,7.2c2.2,7.3,3,14.5,6.8,21.6c2.6,4.1,4.9,8.2,8.5,11.5
		c4.7,5.2,10.8,8.6,17.4,10.8c7.8,3.4,15.8,2.9,23.9,3.8c0,1.4,0.1,2.7,0.1,4.1c1.1-0.2,2.2-0.3,2.1-1.8c-0.4-2.6,0.8-4.3,1.8-6.5
		c1.8-5.5,4.9-10.7,7.4-15.9c4.9-5.7,10.2-13.2,16.8-17c4.3-2.2,9.6-3.5,14.5-2.6c3.1,0.7,6,0.4,9,1.7c3.3,0.8,4.4-2.9,6.2-4.8
		c0.8-2.5-3.7-0.1-3.9-3.3c3.7,0.3,6.6-1.4,10.1-2.4c1.7-1.1,3-2.9,4.7-4c1.3-1,3.9-2.4,3.7-4.2c-0.7-0.8-1.6-0.7-2.8,0.2
		c-3.4,2.6-7.1,4.7-10.7,7.1c-0.6,0.1-1.3,0.2-1.9,0.3c1.4-2.1,3.6-3.8,5.6-5.2c5.9-2.3,10.8-6.1,16.3-9.2
		c8.6-6.3,16.9-13.8,23.5-22.2c9.1-10.8,16-23,18.5-37c0-1.7-1.1-2.8-0.6-4.4c1.4-2.8,2.6-5.8,4.5-8.2c0.1-1,0.3-2,0.4-3
		c-0.8,0-1.6-0.1-2.5-0.2c0,0.9,0.6,2.1,0.2,3c-1.4,1.2-2.9,2-3.6,3.8c-0.7,1-0.9,2.6-2.2,2.7c-0.3-2,1.6-3.2,0.8-4.9
		c-1.6-0.7-3.5-0.4-5.2-0.5c-3.4-0.8-6.9-2-10.4-2c-4.6-2.2-9.5-3.7-14.1-5.8c-1.5-1.2-4.3-2.1-4.5-4.2c1,0.2,1.9,0.4,2.9,0.6
		c-2.3-4.1-5.9-8-8.6-11.9c-2-3.6-4.5-7.5-7.1-10.7c-0.2,2.6,1.3,4.5,1.5,7.1c2,2.3,2.1,5,3.3,7.7c2.6,5.8,3.3,11.8,3.7,18
		c0.8,3,0.6,6,0.9,9c0.6,1.5,0.8,2.8,0.7,4.4c-1.1,1.7-2.9,0-4.3,1.5c-1.1,0.8-1.8,1.1-2.3-0.4c0.1-1.7-1.9-4.1-0.7-5.5
		c1.7-1.1,3.9-0.3,4.6-3c-1.4-9.2-3.9-18.7-7.9-27.1c-0.4-2.7-2.4-4.2-2.3-7c-1.4-3.3-2.5-6.6-3.8-9.9c-0.7-2.4,0.6-1.9,2.1-1.4
		c0-4-2.8-7.1-5.8-9.3c-1-0.5-2.8-2-3.5-0.5c0.8,2,1.7,3.8,2.9,5.7c0.1,1.5,0.8,2.7,1.5,4c-0.7-0.5-1.4-0.9-2.1-1.4
		c-0.1-1.9,0.3-3.4-2-3.9c0-1.5-0.8-5.5-3.1-3.9c-1.2,2.1-1.4,5.1-3.5,6.6c-1.4,1-1.8,2.4-2.6,3.8c-2.5,3.8-4.6,7.5-7.9,10.7
		c-2.9,4.8-7.3,7.1-11,10.9c-0.3,0-0.7,0.1-1,0.1c-3.8,3.6-8.6,6.3-12.9,9.2c-4.1,1.8-7.4,4.7-11.7,6.2c-16.1,8.3-35.4,12.4-53,15.5
		c-2.6,1.3-5.1,0.4-8,1.1c-2.9,1.1-6,0.4-9,1.3c-3.7,0.5-7.4,0.3-11,1c-5,0.9-10,0.2-14.9,1.2c-3.5,0.6-7.5-0.4-10.8,0.9
		c-5.4,0.3-11-0.4-16.4,0.4c-2.7,2.3-5,0.7-7.5-0.9c-5.8-0.6-11.6-1.2-17.5-1.3c-2.9-0.9-6-1.1-9-1.7c-3.2,0.1-5.9-1.9-9-2
		c-1.6,0.1-2.5-1.1-3.6-2c-2.7,0.1-5.4,0-8-0.1c-0.4-1.6,1.4-2.1,2.6-1.6c2.2,0.9,4-0.9,6.4,0c3.2,1.6,6.4,0.1,9.6,1.5
		c4.3,0.4,8.7,0.4,13,0.4c2.8,1,6.4,1,9.3,0.4l0-1.1c-2.8-3.3-5.4-6.9-8.2-10.2c-0.9-1.4-4.7,0.6-4.2-2l1.6-0.5c0-0.6,0-1.2-0.1-1.8
		c-1.5-1-2.6-2.2-4.5-2.1c-2.3,0.2-3.7-1.2-6-1.1c-3.9-0.5-6.4-3.4-10.5-3c-2-1.7-5.4-2.9-8-3c-1.3-1.3-2.1-1.8-4-2.1
		c-2.6-1.9-5.8-3.4-8-5.7c0-1,0-2,0-3.1c0.6-0.6,1.3-1.3,2-1.9c5.9-0.2,11.7-0.1,17.6,0.3c0.8,0.1,1.7,0,2.4-0.5
		c0.9-1.7-0.5-3-1.4-4.4c-5.1-8-9.5-16.5-12.8-25.5c-0.6-1.9-3.1-0.8-4.4-0.5c-3,1-5.5,1.1-8.6,0.5c0-0.7,0.2-1.2,0.6-1.6
		c3.4-2,7-1,10.6-2.5c-0.3-1.8-1-3.4-1.8-5c-2-6.4-3.5-12.8-5-19.4c-0.3-1.1-1.5-5.2,1.1-4.1c1.6,4,1.5,8,2.8,12
		c1.5,5.2,3.1,10.4,4.9,15.5c0.7,0,1.4,0.1,2.1,0.1c0.2-2.5-1-4.3-1.8-6.6c-2.2-4.9-3.2-10.1-5.2-14.9c-0.9-3.5-1.5-6.8-3-10
		c-0.3-2-0.3-3.8-1.2-5.6c0.3,1.5,0.2,2.9-0.1,4.2c-3.2,0.3-0.7-4-2.8-4.9c-1.3-0.1-4.3-0.6-4.4-2.3c1.4,0.2,2.8,0.2,4.1-0.1
		c0-4-1.1-8.1-1.1-12.2c-1.3-2.8-0.8-5.5-1.1-8.4c-1.1-2.3-0.6-4.6-1-7c-1.3-3.4-0.3-7-1.3-10.6c-0.8-3.5,0.1-7.3-1.3-10.5
		c-2.7,0-5.6,0.6-8.2-0.1c-0.3-3.6,6.7-0.7,8.2-2.8c0.2-5.6-2-14-0.6-19.4l0.7-0.1c0.6,2.3,0.1,5.9,1.1,7.8c0.1-6.6,1-13.2,1-19.8
		c0.8-2.4,0.9-4.5,1-7c1.2-3.4,0.6-6.5,0.7-10c-0.1-1.7,0.3-3.6-0.4-5.1c-3.2-1.3-9.9,0.3-12.8-2.5c4.8-0.2,9.6,0.5,14.4,0.1
		c0.9-4.1,0.7-8.4,0.9-12.5c0-4.9,0.5-9.8,0.2-14.6c-4.8-1.1-10.2-0.9-15.2-1.1c-1.1-0.4-2.3-0.2-2.2-1.7c5.6-0.2,11.2-0.2,16.7,0.9
		c2.3-0.8,1.1-3.5,1.6-5.4c1.2-4,0.1-8.6,1.5-12.6c0.7-11.1,3.6-22.4,5.4-33.1c-2,0.1-2.4,2-4.1,2.4c0-0.7,0.1-1.5,0.1-2.2
		c1.6-1.9,3.5-3.1,5.4-4.5c2.1-8.3,4.7-16.5,6.7-24.9c0.4-1.6,1.3-2.8,0.9-4.6c-2.7-0.5-5.6-0.1-8.3,0.2c0.1-1.2,0.5-2.1,1.8-2.1
		c2.5-0.3,5.7,0.5,8-0.6c2.7-6.1,5.5-14.1,8.5-20l-0.2-1.1c-4.4-0.1-8,2-11.9,2.8c0.1-1.5,0.4-1.8,1.8-2.4c3.7-1.8,8-2.3,12-3
		c1.1-1.1,1.6-2.5,3.2-2.8l0.4,2c3.2,0.5,7.3-0.7,10.3,0.4l-0.1,0.6c-3.3,1.5-7.3,0.5-10.9,1.3c-1.2,0.6-1.5,2-2,3.1
		c-3,6-5.7,12.5-7,19.2c6.4,0.6,13.1,0.5,19.5,0.5c0.4,0.3,0.7,0.5,1.1,0.8c-2-0.2-3.6-0.7-5.2,0.8c-2.1,0-4.3-0.1-6.5,0
		c-1.6,1.5-3,0.8-4.9,1c-2.1,0.5-3.7,3-4.9,4.8c-3.9,6.5-5.8,13.8-7.5,21.1l0.3,1c2.6,0.6,5.6-1.2,8.2-1.4c1.3,0,2.5-0.3,3.6-0.8
		c3.9-0.3,8-0.2,12-0.3c-1.7,1.3-3.5,0.5-5.6,1.1c-3.3,1.2-7.5,0.9-10.6,2.6c-2.6,0.2-6.1,0.5-8.4,1.8c-2.3,7.9-3.5,16.3-4.8,24.4
		c-1.2,2.5-0.4,5.1-1.4,7.6c-0.9,2.7,0,5.4-1.2,8c-0.6,4.8-1.8,9.6-1.8,14.4c6.1,1.2,12.6,2.2,18.5,4.2c-5.7-0.2-12.5-2-18.8-1
		c-0.4,8.1-1.7,18.3-0.5,26.3c2.2,0,3.9,1,6,1.7c6.6,0.5,12.5,3.2,19,4.7c1.8,1.3,3.8,1.3,5.6,2.4c-3.4,0.1-6.4-1.9-9.6-2.1
		c-5-1.3-10.1-2.6-15.2-3.1c-1.2,0.5-1.7,2.1-2.9,0.8c-2.3-2.6-2.8,2.8-3.1,4c0.7,11.6,0.8,23.5,2.4,35c0.2,4.4,0.2,8.6,1.6,13
		l1.1,0.4c8.8,0.2,17.3,2.2,25,6.7c0.3,0.4,0.6,0.9,0.7,1.5c-0.5-0.6-1-1.2-1.6-1.8c-8-2.8-16.3-4.2-24.8-4.4
		c-0.4,4.8,0.5,10,1.1,14.6c-2,2.7-1.1-2.2-2.1-2.9c0,3.1,0.3,6.2,0.6,9.2c1.1,2.5,0.5,5.1,1.3,7.6c1.3,6.1,2.5,12.4,4.5,18.4
		c2.5,0.6,4.7-1,7.3-0.6c8,0.1,16.8-0.9,24.6,0.7l0,0.1c-4.8,1.1-9.7,0.3-14.6,1.2c-3.5,1.2-7.4,0.1-11,1.1
		c-1.8,0.6-3.6,0.4-5.4,0.8c-0.1,4.8,2.5,10,3.2,14.8c3.1,7.2,5.1,15.1,8.7,22.1c5.7-0.8,11.3-1.4,17.1-0.9c0.5,0.1,0.9,0.5,1.2,1
		c-5.5,0.2-10.9,1.5-16.3,2.2c-0.7,0.4-1,0.8-0.9,1.3c2.1,5.1,6.5,10.3,7.1,15.9c-4.2-4.6-7.6-10.6-10.4-16.2c-1,0.1-4-0.2-3.9,1.4
		c4,10.2,10,20,15.1,29.6c1.1,0,3.9,0.4,3.7-1.5c-5.3-6.9-10.3-14.3-14.1-22.1c-0.7-1.6-1.6-3-1.8-4.7c6.3,8.6,11.4,19.1,18.6,27.1
		c3.2-0.3,6.3-1.2,9.6-1l0,0.2c-2.8,0.4-5.3,1.4-7.9,2.3c-0.6,1.5,1,2.5,1.7,3.8c1.8,2.1,2,4.6,4.5,6c1.7,0,2.6,0.1,4.1,1
		c3.2,0,6.3,1.1,9,2.6c3,0.3,4.9,2.2,8,0.6c1.8-1.3,3.5-2.5,5.6-3.4c-1.5,1.4-3.6,2.8-4.5,4.7c2.3,1.9,4.6,1.2,7.3,1.7
		c1.8,1.1,3.8,0.5,5.6,1.6c3.1,0.2,5.7,0.4,8.7,1.2c-0.4,1.5-1.4,2.1-2.5,3c-2.4-0.7-4.6-1-7.1-1.1c-1.9,0-3.1-1.8-5-1.9
		c-3.8-0.3-7.3-2.3-11.1-2.2c-2.1,1.6-4.9,2.8-6.7,4.7l0,0.9c2.6,2.4,6.6,0.8,9.7,2.5c6.8,0.2,13.6,0.3,20.4,0.2c0,1,0.1,2,0.2,3
		c-2.7-0.2-5.4,0-8.1-0.2c-3.4-1.5-7-0.2-10.4-1.2c-2.7-1-5.4-0.2-8.1-0.9c-2.9-1-6.3-0.9-9.3-0.6c-0.9,2.2,2.6,3.8,3.1,5.9
		c-1.7-1.8-3.5-3.7-5.6-5.1c-1.1-0.4-3.4,0.5-2.4,1.9c2.8,3.3,5.3,6.7,7.9,10c0.9,1.1,1.8,2.3,3.4,2.1c5.5,0,11,0,16.5-0.2
		c5.5-1.2,11-0.3,16.5-1.6c6.1,0.1,12-0.9,18-1.5c3.2-1.1,6.7-0.2,10-1.3c8.3-1.4,14.6-2,23-4c4-1,8-2.3,12-2.6
		c8.1-2.6,16.1-5.3,24.1-8.4c5.7-3,11.6-5.9,17.3-8.9c2.3-2,4.8-3.7,7.4-5.3c2.2-1.8,3.8-4.1,6-6c2.1-2.2,4.7-4.4,6-7.2
		c1.9-2.1,3.5-4.5,4.9-7c0.5-0.4,1.1-0.7,1.6-1.1c1-2.3,2.3-4.5,3.3-6.8c-2.8-0.1-2.1-1.6-2-3.7c1.6-7.4,4.6-14.4,8.5-20.9
		c1.5-2.4,3.8-3.7,6.4-4.8c-1.1-3-1.8-6.2-2.9-9.3c-0.5-4.5-2.6-11.7-0.5-15.9l0.9-0.1c0.8,2.3,0.3,5.1,0.6,7.6
		c1.2,0,1.2-1.4,1.7-2.3c0.8-2.3-1.1-5.1-1.7-7.3c-0.2-3-1.9-5.8-3.3-8.3c-2.4-1.3-2.5-5.5-3.4-7.8c0-3.9-0.4-7-1.9-10.6
		c-0.2-5.6-1.5-10.8-1.7-16.4c-1.6-5.2,0.3-11-1.4-16c-0.1-2-0.2-4-0.3-5.9c0.3-1.2,1.7-1.7,1.3-2.9c-0.4-2.1-1.9-4-2.5-6.1
		c-1.3-3.2-0.1-6.7-1.7-9.9c-1.5-3-3-6-4.2-9.2c-0.8-2.1-1.6-2.1-3.5-2.8c-1.7-4.1-2.8-8.5-4-12.8c-1.1-13.6-3.3-26.8-4.3-40.4
		c0-1.4,0-2.4-0.7-3.6c-0.1-9.1-0.6-18.2-0.4-27.4c-0.3-7,0.5-14,0.3-21c1.6-3.9,0.8-8.3,1-12.5c0.3-0.9,0.9-1.2,1.8-1.1
		c1.6,5.2-0.1,11.1,0.5,16.6c0.2,1.2-1.1,6.4,0.9,6c1.2-4.6,1.6-9.4,3-14c1.4-7.6,2.9-14.5,4.7-22c1.9-5.3,2.5-10.7,4.3-16
		c1.5-3.6,2.5-7.4,4.2-10.9c0.4-1.3,1.8-2.9,1-4.2c-1.3,0.1-2.1,0.7-2.6,1.6c-2.4,3.6-4.9,7.2-7.2,10.9c-1.3,2.2-2,4.4-4,6.2
		c2.8-6.8,7-11.6,10.5-17.7l-0.4-1.5c-1.1,0.5-2.2,1-3.3,1.6c-1.1,2.7-3.9,4.4-5.7,6.7c1.9-5.1,7.4-8.4,10.4-13
		c4.7-4.1,9.6-8.4,13.4-13.4c0.5-0.5,0.6-1,0.5-1.6c-4.3-2-8.2-4.3-13-4.4c-1.4-0.5-5.7-0.8-3.6-3.2c6.5-2.3,13.2-2.8,20-1.8
		l1.6-0.6c0.9-3.6,2.4-7,3.5-10.5c2.4-5.2,3.3-10.5,7.8-14.3c1-0.6,3.1-2,2.8,0.2c-3.3,4.6-4.6,10.4-6.8,15.7
		c-0.3,1.7-0.8,3.3-1.5,4.9c1.7-0.3,2.8-2,4.3-2.9c4.5-2.9,9.2-7.1,13.9-9.4c-0.1,1.4-1.3,1.1-2.2,2.1c-1.7,1.9-4.1,2.9-2.7,5.9
		l1.2,0.1c5.7-4.5,11.7-8.7,17.2-13.4c1.2-1,1.2-2.2-0.1-3.1c-2.5-2.2-5.5-3.5-8.1-5.5c-1.5-1.1-5.7-1.4-5.5-3.7
		c1.4-0.5,2.9-0.6,4.6-0.2c5.4,1.7,10.5,3.8,15.1,7.1c2.3-1.8,3.3-2.5,6.4-3c1.6-4.1,3.6-8,6-11.7c1.4-2.6,3.1-4.9,5.6-6.6
		c1.8-1.3,5-1.1,3.2,1.7c-1.6,3.3-5.6,7.9-4.8,11.5l1.5,0c5.1-3.1,10.4-6,15.7-8.8c0.9-0.1,1.8-0.2,2.8-0.2
		c-0.7,3.5,4.7,2.4,5.6,0.5c-3.1-3.9-7.3-6.9-10.2-10.9c-1-2.5-0.1-3.9,2.7-3.6c1,2.7,3.5,4.7,5.8,6.3c2.5,1.5,4.2,3.7,6.4,5.5
		c1.5,0.9,3.1,1.5,4.6,2.3c1.3-3.7,6-7.8,5.2-12c-4.7-4.1-8.5-9-12.8-13.5c-0.5-1.1-1-2.2-1.5-3.3c-2-0.6-3.7-2.9-4.8-4.6
		c-1.1-2.3-3.5-3.1-4.3-5.5c-1.3-1.4-2.6-2.7-3.8-4.1c3.2,4.8,6.7,8.5,9.8,13.3c1.1,1.3,1.1,2.7,3,3c1,4.5,5.9,8,8.1,11.2
		c1.2,2.9-1,4.5-3.7,3.5c-1.3-1.8-2.9-3.5-4.1-5.3c-1.1-1.9-0.5-2,1.1-3.1c-1.5-1.9-3.4-3.3-5.4-4.6c-0.9,0.1-1.8,0.2-2.7,0.2
		c0.2-0.5,0.5-1.1,0.7-1.6c-2.7-3.7-6.9-3.6-10.1-6.5c-1.2,0-2.3-0.1-3.5-0.1c0-1.3-0.1-2.5-0.1-3.8c1.2-0.1,1.9-0.7,2.2-1.5
		c-0.2-1.5-1.6-2.1-2.6-3.2c-1.9-1.6-3.1-3.5-5.3-4.7c-2.1-3.2-5.7-4.8-8.3-7.6c-3.8-2.2-6.1-5.8-9.7-8.3c-3-2.8-6.5-4.6-9.2-7.8
		c-4-2-6.1-5.9-10.1-8c-3.2-3.3-6.4-6-10.5-8.2c-4.3-3.9-9.3-6.9-14-10.3c-0.7-0.4-1.5-0.6-2.4-0.7c-1.3-1.4-2.8-2.2-4.5-2.9
		c-1.5,1.2-2.7,1.1-4.5,1.2c0.4,4.5,2.8,9,3.4,13.7c1.4,3,1.8,5.4,1.8,8.7c0.6,1.9,1,3.3,0.5,5.3c-1,0.3-1.9,0.6-2.8,1
		c1.4,1.5,1.1,2.8,1,4.8c-0.9,2-3.1,3.5-3.1,5.9c-0.3,5.9-2.5,11.1-4,16.6c1.2-2.3,2.6-4.5,4-6.7c2.9-5.7,5.3-11.7,8-17.5
		c0.7,0,1.4,0,2.1,0c-1.5,5.6-3.6,11.3-5.9,16.7c-3.7,9.1-9,16.6-15.2,24c-12,14.9-28.8,26.5-44.8,36.7c-1.6,0.9-2.7,3.2-4.6,3.5
		c-2.8,0.6-4.6,2.5-7.1,3.8c-1.5,0.7-2.6,1.9-3.9,2.9c-4.5,1.4-8.6,4.2-12.6,6.6c6.1-2.3,14-3.8,19-8.1c2.1-2.6,5.4-2.7,7.9-4.9
		c0-3.1,5.1-3,7.3-3c0,1.5-0.3,1.6-1.7,1.9c-1.9,0.2-3.1,1.9-5,2.4c-2.9,1-5.1,3.8-7.8,5.4c-12.1,8-25.3,10.6-39.2,13.3
		c-2.6,1.3-5.2,0.3-8,1.2c-1.9,0.7-3.8,0.4-5.7,1.3c-2.5,0.3-4.9,0-7.3,0.7c-2.8,0.9-5.8,0.3-8.6,1.3c-6.8,0.5-13.6,0.8-20.4,0.4
		c-1.1,0-1.4-1-1.6-1.9c6.5-1.4,13-1.2,19.6-1.3c3-1.9,6.1,0.3,8.9-1.9c4.9,0.6,9.2-1.1,14.1-1.2c6.1-1,12.3-2.9,18.5-3
		c1.7-1.3,2.8-3.2,4.6-4.3c3.7-2.4,8.3-4.5,11.6-7.6c-4.1,0.4-8.1,2-12.2,2.8c-6.6,1.1-13.8,3.5-20.5,4.4c-13,2.8-24.4,7.1-38,6.5
		c-4.3,1.2-8.6,2.1-13,3.1c-4,0-7.9,1.1-12,1.2c-0.8,0-1.6,0.4-2.4,1c-2.8,9.8-4.2,17.8-6.8,27.5c-0.5,3.3-2.4,6.2-2.6,9.5
		c-1.8,1.7-2.5,4.7-2.9,7l-0.9,0c1.3-2.5,1.7-5.7,2.3-8.5c2.3-10.5,3.3-20.7,6.9-31.1c0.8-1.5,1.1-3.1,1.3-4.8
		c-3.4-0.8-7.3,0.2-10.9-0.2c-5.2-0.5-11,0.1-16-1.4c-2.5-0.3-5.3-1.1-5.5-4.1c-10.5-1.1-21.8-1.1-31.5-4.8c-3.4-0.5-6.6-1.9-10-2.4
		c-10.2-3.3-21-7.3-29.8-13.5c-3-2.1-6.3-4-8.7-6.7l0.2-1.2c1.6,0.2,2.1,1.4,3.2,2.3c12,8.9,25.7,15,40.1,18.6
		c1-0.7,2.1-1.9,3.4-2.1c6.5-0.3,12.5-0.4,18.5,2.3c4.2,1.2,8.2,2.6,11.4,5.6c2.9,0.1,5.7,0.3,8.6,0.8c8.6,0.2,17.3,0.6,26,0.3
		c1.2-0.1,1.9,0.2,2,1.1c-9.7,0.3-19.5-0.4-29.1,0.5c0.1,1,0.8,1.7,2.1,2c8.9,0.7,17,1.7,26,0.5c4.1-0.3,8.1,0.1,12.1-1.1
		c11.2-0.6,21.4-5.2,31.9-8.9c5-0.9,10.3-1.7,15.1-3.1c3.4,0.1,6.2-1.6,9.6-1.3c0.8,1.6-0.9,1.8-2.1,2.1c-7,1-13.8,2.2-20.6,4.3
		c-2.4,0.8-5.8,1.2-7.7,2.8c1.2,0,2.5,0,3.8-0.1c15.6-3.5,31.3-7.2,46.9-10.6c5.3-1.8,11.2-1.6,16.5-3.5c3.2-2,6.6-3.9,9.6-6.2
		c6.4-4.2,13.2-8,19-13c3-3.5,7.2-5.2,10.4-8.6c8.4-7.7,16.2-15.8,22.7-25.3c3.6-3.8,5.9-8.1,7.3-13.1c0.1-2.5-0.1-5,0.2-7.5
		c1.2-3,1.7-6.9,0.8-10c-1.3-0.4-2,0.3-2.1,2l-0.7,0c0.2-2.6,1.8-4.8,2-7.5c0.7-3.6-2.2-7.2-4.1-10c0.9-3,3.6-0.7,4.9,0.6
		c0.1-4.2-1.4-9.1-3.8-12.6c-0.3-3.5-2-6.7-3-10c-0.9-4-4.1-6-3.3-10.4c-1.2-2.1-2.3-3.6-1.8-6.2c-0.2,0.5-0.5,1-0.7,1.4
		c-1.5-1.1-1.6-3.6-2.4-5.2c-0.7-2.7-2.3-5-3-7.7c-2-4.8-5-8.6-7.6-13.1c-0.9-1.5-3.5,0-5-0.7c-1.3-1.7,0.7-2.6,1.7-3.8
		c0.1-1.7,0.2-3.4,0-5.1c-0.5-1.2-1.7-1.2-2.7-0.5c-2,0.9-3.9,2.5-6,2.7c-1.5-0.4,0.1-2.8,0.2-3.8c-2.3-1.2-4.5,0.7-6.1-1.8
		c-1.3-4.9-4.1-9.5-5.7-14.3c-1.8,0-5.4-1.5-5.8-3.4c1.6,0.6,3,1.2,4.7,1.4c1.1-2,4.3-1.9,4.4-4.1c-1.7-0.4-3.4-0.1-5.2-0.1
		c-0.7-2.6,2.8-4.3,0.2-6.2c-2.5-1.8-4,0.7-6.8,0.2c0-2.3-3.3-2.9-5.1-3.3c-1.4-1.7-3.5-0.8-5.6-1.8c-5-2.8-9.5-6-12.3-11.2
		c-0.2-1.4-0.3-2.7-0.4-4.1c2.4-0.1,1.8,1.9,3.1,3.2c2.7,2.9,5.6,6.3,9.5,7.5c2.2,0.7,2.8,3,5.3,3.3c1.6-4.3,1.4-9,3.2-13.3
		c0.4-3,1.1-5.3,4.1-6.4c1,0,2,0,3,0c1.7,1.6,3.8,3.2,4.8,5.3c0.3,4.4-3.5,6.9-3,11.1c0.4,2.6-2.4,4.4-2.4,7.2
		c2,0.6,3.8,0.2,5.6,1.5c1.7,0.7,1.1,3.2,1.4,4.6c1.9,0.4,3.8,0.1,5.7,0.2c0.8,5.8-6.1,4.2-5.5,9.5c2.7,3.3,4.4,7.1,5.9,11.1
		c1.7,1.2,5.3,0.6,7.3,0.3c0.3-1.6,1.5-2.7,1.8-4.3c0.7-2.2,0.8-4.7,3.3-5.7c-0.1-3,0.4-6.1,0.2-9.1c-1.4-2-2.7-3.9-4-5.9
		c-0.4-0.8-0.3-1.4,0.3-1.9c1.2,0.7,2.3,1.4,3.5,2.2c1,1.1,1.2,2.5,2.7,3.1c2-2,1-4.4,2.2-6.7c0.5-1.7-0.1-2.9-0.7-4.4
		c-0.2-3.9,0.1-7.8-0.2-11.6c-0.9-2.3-0.8-4.6-0.9-7c-1.5-4.8-2.9-9.4-5.9-13.5c-1.7-3.4-4.5-5.3-7-8.1c-1.2-2.2,0.9-2.4,2.4-1.4
		c2.2,1,3.8,2.9,5.9,4.1c3.7,3.2,6.6,8.6,9.3,12.5c0.2,1.3,0.7,2.3,1.2,3.5c0.4,2.5-0.6,4.2,2,5.7c0,6.2,0.4,12.6,0,18.8
		c-1.9,3.9,0.5,7.8-2.6,11.4c-0.3,4-2.5,7.3-2.5,11.4c-1.6,2.8-2.4,5.6-1.4,8.7c1-0.1,1.7-0.5,2.1-1.1c2.2-3.1,3.4-6.6,5-10
		c1.7-3.6,1.5-7.2,2.4-10.9c0.6-3,0-6.1,0.9-9c0.8-2.7,0.1-5.4,1.2-8c0.4-1.7,0.2-3.4,0.7-5c1.3-3.2-0.6-7.2-1.4-10.5
		c-1.6-2.9-0.5-6.2-2.1-9c-5.5-6.1-12.4-11.7-20-14.8c-2.1-0.1-2.9-0.2-4.5-1.6c-6.7-3-13.9-1.2-20.9-1.4c-4.3-0.1-7.3,1.7-11,3.5
		c-4.6,0.4-9.2,3.1-12.5,6.2c0.2,0.5,0.3,1.1,0.5,1.6c-2.1,2.1-6,4.1-7.4,6.9c0.2,1.7,0.6,3.7,1.6,5.1c2,0.8,4,2.6,6.1,2.7
		c1.9-1.2,5.6-5.7,7.8-3.7c-1.4,2.4-2.7,4.9-3.3,7.7l-0.4,0c0-0.9-0.1-1.7-0.1-2.6c-1.4,0.4-2.2,2.4-3,3.5c-1.9-0.5-2.8-1.1-3.8-2.7
		c-1.5-2.4-4-1.3-6.3-1.5c-3.4-0.5-6-2.1-9-3.5c-1.5-0.8-1.6-0.3-2.8,0.6c-2.2-0.4-4-3.1-6.3-3.1c-2.6,0.1-4.5-1.4-7-1.8
		c-2.4-0.5-4.6-1.5-7-1.9c-4.3-0.5-7.5-3-12-2.4c-3.7,0.5-6.6-0.9-9.6,0.9c-2.1,0.4-4,0.3-4.9,2.6c-0.4,1.1-2.2,3.7-3.5,2
		c-1.1-1.4-3.1-2.8-3.6-0.1c0.3,4.4-0.2,9,0.4,13.3c3.8,0,7.5-0.1,11.2,0.5c0.9,0,1.3,1,1.6,1.7c-2.5-0.2-5.1-0.2-7.6,0
		c-2,0.2-3.9-0.1-5.5,1.5c0.3,5.4-0.3,11.1,0.4,16.4c3.8,1.1,8.6,1.8,11.8,4.3c-2.1,0.1-3.5-1.3-5.7-1.1c-2,0-3.6-1.2-5.7-1.1
		c-0.9,2.1-0.4,4.4-0.4,6.7c0.4,6,0.7,12,0.9,18c0.9,1.7,4,2,5.7,2.7c0.7,0.6,1.4,1.2,2.1,1.8c-2.6-0.2-4.3-2-7.1-1.1
		c-0.3,5.8,0.1,11.8,0.1,17.6c0.4,1.3,2.9,1.3,2.4,2.7c-1,0.4-2,0.7-3.1,0.9c-1.3-1-1.5-1.6-3.3-1.3c0,4.5,1.2,8.6,0.9,13.1
		c4.7,1.7,10.8,3.5,12.2,9c-3.2-2.4-7-4-10.6-5.8c-1-0.6-2.1,0.2-3.1,0.4l-0.6-1.6c-4.2-1.6-8.2-1.2-11.9-4.2c1.1-1.8,1.9-2.6,1.1-5
		c-3.1-0.5-3.9,2.5-6.1,3.3c0.6-2.8,0.7-6.1,2-8.7c0.9-1.8-1.4-2.2-1-4c0.5-2.8-1.5-4.4-2.2-7c0.1-1.4,0.3-2.8,0.7-4.2
		c-0.8-1-1.7-1.8-2.7-2.6c-1.3,0.2-2.5,0.4-3.8,0.4c0-2.8,2-4.7,2.1-7.6c-0.2-3.4,1.3-6.1,0.9-9.5c1.8,0,2.8,0,4.2-1.1
		c0.5,0.9,0.9,1.7,1.4,2.6c-0.3,0.9-0.5,1.8-0.8,2.6c1,0,2,0,3,0.2c0.4,2,0,4.1-0.1,6.1c3.2,0.5,7-0.3,10.4-0.2
		c-0.3-8.3-0.2-16.7-0.3-25c-2.1-0.6-4-0.1-6-1.1c1.6-1.7,3.8-0.3,6.1-1.1c0.5-2.3,0.2-4.5,0.4-6.8c0.9-2.5,1-5.5,0.7-8.1
		c-2.8-0.4-5.1,1.3-8.1,0.9c0.1-1.2-0.4-2.2,1.1-2.6c2.9-0.6,5.5-1.4,8.5-1.7c2.9-0.1,1.3-3.6,1.8-5.5c0.8-1.5,0.7-3,0.8-4.6
		c0.2-1.3,1.2-2.7,0.4-4c-4,0.1-7.4,1.3-11.1,2.8c-2.5,1.2-5.7,0.6-8.4,0.7c0.3-2.8-2.6-3.1-3.2-0.6c-0.8,2.1-2.3,4,1,4.8
		c0,0.6,0,1.1,0,1.6c-2.8,2.2-5.7,0.5-8.5-0.8c-2.1,0-0.9,2.2-2.4,3c-1.6,0.1-3.4,0-5-0.2c-2.7-2.2-3.6-6.5-6.6-8.2
		c-1,0.2-1.6,1-1.6,2.7c0.3-2.1-0.7-2.1-1.3-3.8c1.1-0.5,2.2-1,3.3-1.7c0.4-1.9,2.3-3.1,4.2-3l0-0.9c-4.5,0.7-9.2,3.1-13.3,4.9
		c-3.5,1.8-8,2.9-11.1,5.3c2.1-0.2,4.2-0.2,6.4-0.2c2.5-1,5.2-1.6,7.5-3c0.8,0.6,3.4,1,2.8,2.3c-6,3-13.6,3.1-19.8,5.3
		c-1.7,1.4-3.8-0.4-4.7,2c-1,2.3-2.3-1.4-3.1-1.9c0.5-0.7,0.9-1.4,1.3-2.1c-2.7-3.6-4.5-6.7-7.3-10.1c-1.5-1.8-2.4-4.8-5.1-4.7
		c-1.6-0.4-2.5,0.4-2.7,2.4c-1.4-0.4-2-1-2.4-2.4c1.1,0.2,2.1,0.2,3.1,0c-1-3.6-6.7-6.2-10.1-7c0.6,0.9,1.3,1.7,1.8,2.7
		c-3-0.3-5.4-2.6-8.2-3.5c-5.3-1.4-10.1-2.7-15.7-1.5c-2.2,0.7-3.2,2.8-5.6,3.3c-3.1,0.5-5.6,2.3-8.7,2.7c-5,2.4-9.3,6.1-14.1,8.9
		c-4.9,3-8.7,7.2-12.5,11.4c-2,2.6-2.3,6.2-4.4,8.6c0.2,4.4-2.7,7.2-1.4,11.3c0.3,0.9,0,1.6-1,1.9c0.5-5.3-0.9-10.5,0.1-15.7
		c0-4.8,2.8-9.3,5.2-13.3c5-7.1,11.1-13.5,18.8-17.6c2.2-2.1,5.2-2.3,7.2-4.6c2.1-0.3,3.3-2,5.3-2.4c2.8-1.4,6.1-0.2,9-1.3
		c4-2.2,8.7-3.2,13-4.5c4.8-0.7,9.2,4.1,14,4c2.4-0.2,4.1,1.2,6.5,1.1c6.3,4.8,8.2,12.2,14,17.9c2,1.5,0,4.7,1.7,6.3
		c1.5,1.3,0.9,3.5,2.3,4.7c2.4-0.4,4.4-2.8,6.7-3.7c1.2-1.3-0.3-2.5,1.4-3.2c2.9-0.6,5.5-2,8.5-2.4c4.7-0.8,8.4-3.5,13.1-4.7
		c2.5-0.5,4.8-1.7,7.3-2.4l0.2-1.2c-1.9-3.9-2.8-7.8-3-12.1c-2.5-2.3,0.4-6.4,2-8.4c3.3-4.2,8.8-3.2,13-1.2
		c4.4,2.1,6.7,6.5,8.7,10.7c0.8,2.2,0.2,3.7-0.8,5.6c0.9-0.5,1.9-0.9,2.9-1.3c0.4,1.3,0.4,2.8,0,4.3c2.3-2.5,4.5-4.9,6.6-7.5
		c6-4.1,9.2-10.5,15.4-14.6c1.5-0.4,2.3,0.5,3.5,1.2C509.7,58.3,514.3,58.5,518.6,56.7z"/>
	<path class="st1" d="M520.8,60.4c-1.2,1.7-3.6,1.9-4.5,3.6c0.6,1.8,3.4-0.5,4.8-0.4c3-0.2,6.1,0,6.8-3.7c2.2,0.3,4.3,1.2,6.4,2
		c1,2.5-0.8,5.7-1.6,8c-0.7,1.7-2.1,1.3-3.6,1.7c-2.8,1.1-5.9,3-9,3.7c-2,0.2-4,0.5-6,0.9c-4.2-2.3-8.9-0.1-13,1.2
		c-2.2,0.5-4,1.9-6.2,2.1c-2.5,0.2-3.9,2.5-6.6,2.3c1.2-3.8,5.4-6.8,8.1-9.7c1.4-1.2,2.8-3.9,4.8-3.6c3.6,0.3,7.1-2.7,10-4.4
		C514.5,62.6,516.7,60.3,520.8,60.4z"/>
	<path class="st1" d="M463.5,64.6c2.4,1.3,5.1,2.8,7.1,4.8c3.4,3.2,2.2,9.1,1.1,13.1c-1.9,0.3-4,1.1-5.9,0.7
		c-1.3-4.1-1.6-7.4-1.4-11.8c-0.7-1.5-2.1-0.5-3.5-0.7C458.3,69.2,460.2,63.5,463.5,64.6z"/>
	<path class="st0" d="M578.9,84.1c0.1,1.6-2.3,2.5-3.2,3.6c-2.8,2.6-5.6,4.9-8.7,7.2c-1.1,1-2.4,0.9-3.8,1c-0.1-1.4-0.1-2.6,0.8-3.8
		c0.9-1.1,1.5-3.2,3.2-2.9c0,0.8-0.1,1.8-0.3,2.8C571.2,90.3,574.4,85.2,578.9,84.1z"/>
	<path class="st0" d="M439.1,96.1l0.8-0.5l0.8,0.4l0,0.7C439.6,97.3,439.1,97.1,439.1,96.1z"/>
	<path class="st0" d="M437.8,97.1c0.3,0.9-0.3,1.2-1.7,1.1C436.1,97.1,436.7,96.8,437.8,97.1z"/>
	<path class="st0" d="M436,98.2c-0.4,1-1,1.3-2,0.8C433.9,98.2,434.5,97.9,436,98.2z"/>
	<path class="st1" d="M594.9,105.2c1.5,0.3,2.5,1.6,3.3,2.8c0.3,1.8-1,3.8-1.8,5.3c-2.8,0.8-4,3.5-4.9,5.9c1.2-3.8,2-7.8,2-11.8
		C593.9,106.7,594.4,105.9,594.9,105.2z"/>
	<path class="st1" d="M489,110.6l0.7,0.7c0.1,5.1,0,10.3,0,15.4c-1.3,0.4-2.1,0.2-2.3-0.6c-0.1-3.4,0.1-6.7,0-10.1
		C487.6,114.3,486.3,110.4,489,110.6z"/>
	<path class="st1" d="M640.5,115.7l0,0.1c1.1,3.2,0.8,7,0,10.2c0,3.1-1.1,5.8-2,8.6c0.3-3,0.2-6,0.5-9c1.2-3.3,0.1-6.6,1.5-9.8
		L640.5,115.7z"/>
	<path class="st0" d="M623.3,117.3c0.7,0.4,1.1,1.3,0.9,2.7c0.1,0.7-0.3,4.1-1.3,2C622.8,120.5,622.8,118.8,623.3,117.3z"/>
	<path class="st1" d="M372.5,123.6c1.6,0.1,3.3,0.1,4.9,0.2c1.8,2.1,3.4,3.6,6.3,3.8c-2,1.1-4.9,1.6-7.2,2.1
		c0.2-1.4,0.3-2.8,0.1-4.2c-2.5-1.1-3.2,1.6-4.2,3.2c-1.9-0.4-1.8-1.3-1.7-3C371.3,124.9,371.9,124.2,372.5,123.6z"/>
	<path class="st1" d="M489.7,129.3c0.9,7.9,0.5,15.9,1,23.8l-0.4,1.2c-2.6,0.7-1.6-2.8-1.9-4.3c-1.3-6.5-0.7-13.5-1-20.2
		C487.7,128.6,488.5,128.4,489.7,129.3z"/>
	<path class="st0" d="M466.6,138.4c-0.8,1.9-2.1,3.3-1.9,5.6c0.2,2.6-2.5,4.6-3.4,7.1c-1,1.7-1.3,5-3.4,5.7
		c-3.2-1.1-0.7-2.7,0.2-4.3c0.3-2.6,2.5-3.4,2.3-6.1c-1.5,2.6-3.3,4.9-4.5,7.6c-1,1.8-3.2,2.9-3.8,0.1c1.3-2,1.9-4.4,2.3-6.7
		c-3.4,2.6-4,7.6-7.6,9.6c-2.5-0.6-0.7-2-0.5-3.6c-1.1,2.1-2.3,4-3.2,6.1c-1,0.1-2.1,0.1-3.1,0.2c-0.1-1.9-0.1-3.8,1.2-5.4
		c-2.8,1.1-3.9,5.1-6.4,6.5c-1.2,0-2.5-0.1-3.7-0.2c-1.4,1.8-1.5,5.6-4.5,5.1c-3-0.7-1.1-2.6-0.3-4.2c-3,0.1-3.2,5.6-4.5,7.6
		c-1.2,0.1-2.4,0.2-3.5,0.3c-0.6,1.8-1.3,3.5-2.1,5.1c-1.1,0-2.9,0.5-3.6-0.5c-0.6-1.4-0.3-3.1-0.4-4.7c-0.7,1.4-1.8,3-1.8,4.6
		c-0.2,1.2-0.1,3.3-1.7,3.6c-3.9,0.5-1.5,5.1-3.6,7.7c-1.6,0.9-2.6,1-4.4,1.1c-2.6,1.3-3.7,4.9-4,7.6c0.4,0.5,0.9,1,1.3,1.6
		c-0.1,2.7-0.1,5.1,1.5,7.5c0.4,1,1.8,2.5,0.3,3.3c-2.8,1-4.1-3.7-6.5-3.9c-0.8,1.4-1.6,2.6-2.1,4.1c-0.6-0.7-1.2-1.4-1.8-2.1
		c0.3-3.6-0.8-8,0.7-11.4c0.3-3.4,1.2-6.7,3.2-9.5c5.2-0.1,4.1-5.6,9.2-5.9c1.5-3.1,0.8-9.4,5.8-9.2c0.8-1.8,1.8-3.4,3.4-4.7
		c1.5-0.4,3.2-0.2,4.7-0.2c1-1.2,1.6-3.1,2.9-3.9c0.9-0.1,1.7-0.3,2.5-0.6c0.9-2,1.9-4.1,3.4-5.8c2.6-2.3,4.7,1.9,7.6-0.4
		c1.4-0.9,3.7,0.5,5.1-0.8c0.6-2.3,2.9-2.8,5-2.7c1.8-1.3,3.2-3,5.1-4.1l0.4,1.9c2.3,1.7,3.2-1.9,5.3-2.4c1.7-1,2.6,0.7,3.6,1.7
		c1.2-1.4,2.3-3,3.4-4.5c1.4-0.8,2.7,0.1,3.3-2C465,138.8,465.1,138.3,466.6,138.4z"/>
	<path class="st0" d="M538.7,140.4c-0.3,2.7,0.4,4.6,0.9,7.2c1.8,0.4,2.6-0.9,4-1.8c1.8,0,3.9,0.4,5.4-0.6c1.5-0.9,3.8-0.7,5.5-0.6
		c0.1,1.7-1.2,5.1,1.4,5.3c2.9-2.6,7.8,0.7,11.3,0.9c0,3.4,1.7,1.1,3.1,3c1.2,2,4.2,0.8,6.2,0.9c0.7,1.6,1.3,3,1.2,4.8
		c-0.9,2.4-2.4,0.2-3.2-0.9c-1.2,1.2-2.7,2.7-2.3,4.5c0.9,1,3.1-0.2,4.3-0.3c0.6-1,0.6-2.8,2.3-2.2c2.6,0.8,5.9,0.6,8.2,1.7
		c1.7,3.3-0.6,8.6,0.8,12c1.2,1.7,2.9,1.7,4.5,2.9c1.3,4-2.1,7-0.3,11.2c-1.2,0.3-2.9,2.3-4,1c-1.4-1.6,0.5-2.5,1.4-3.6
		c0-1.5-0.2-3.1,0.1-4.5c0.8-1.6,2-3.6-0.5-4.4c-1.8-0.2-3.3-1-4.5,0.9c-1,1.6-3,3.2-0.5,4.7c1.4-0.3,5.3-2.3,4.7,0.7
		c-1.3,1.4-1.2,2.3-1.5,4.1c-2.8,0.1-2.7-1.7-2.5-3.9c-2.7-0.9-5.6,0.7-5.1-3.5c1.1-1.3,2.8-2.5,3.2-4.2c-1.5-0.1-3-0.3-4.5-0.8
		c0.1-1.3,0.4-2.5,0.8-3.8c-1.8-0.8-3.5,0.3-4.6-1.2c-0.7-1.5,0.3-3.1-0.2-4.6c-2-0.2-4.3,0.2-5.9-1.4c-0.6-1.5,1-3.3-0.1-4.7
		c-2.9-0.6-6-0.3-8.9-0.4c0-1.2,0-2.4-0.1-3.7c-2.3-1.1-3.2,0.4-4.9,1.5c-2,0.7-3.8,0.6-5.9,0.2c0.1-1.6,0.2-3.2,0.6-4.7l-1.1-0.3
		c-2.7,1.2-5.5,2-8-0.1c-1.4,0.6-2.7,1.2-4.1,1.9c-1.1-0.3-2.2-0.6-3.3-0.9c-1.1-1.9,1.4-3.1,2-4.9c-1.9,0-3,1.2-4.7,1.9
		c-2.3,0.9-4.3,1.9-5.6,4.1c-1.3-0.2-2.9,0.4-3.7-0.9c0-0.7,0-1.3,0-2c1.3-1.9,2.8-3.6,4.5-5.2c0.8,0.1,1.3,0.6,1.7,1.4l0.5-1.3
		c0.5,0.5,1.1,1,1.6,1.4c1.6-1.3,3-3,4.6-4.2C535.5,141.7,536.2,140.1,538.7,140.4z"/>
	<path class="st0" d="M515.4,142.4c2.1-0.1,3.1,1.5,5.2,1.1c0.5,3.2-1.3,3.8-2.9,6c0.4,2.1,0.9,2.2-0.4,4.4c1.2,3.4-1,4.1-1.7,7
		c1.8,2.8-0.1,5-0.1,8c-0.3,2.5,0.3,4.7-0.9,7c-0.2,1-0.3,2.1-0.2,3.2c2.7,2.4-0.4,6.1-0.9,9c0.2,0.8,0.9,1.3,2.2,1.5
		c0.2,2.3-1.4,4.9-2,7.1c-0.6,2.4-2.9,0-4.1-0.4c-0.3-3.9,0.7-7.6,1.9-11.3c-0.3-3.2-2.9-0.5-4.9-1.4c0.1-1.4,0.4-2.3,1.1-3.6
		c0.3-1.8-0.3-3.7,0.2-5.4c0.6-1.2,1.3-2.4,2-3.6c-0.6-1.2-1.5-1.9-0.9-3.3c1.6-3.5,0.5-8.3,0.9-12.1
		C513.7,151.7,512.9,147.1,515.4,142.4z"/>
	<path class="st1" d="M534,143.4c1,0.2,1.2,0.9,0.6,2C533.1,146.2,532.6,144.1,534,143.4z"/>
	<path class="st1" d="M551.8,146c-0.1,0.8-0.2,1.6-0.3,2.4c-1.5,0.3-3.1,1.2-4.6,0.8C546.5,147.3,550.5,145.6,551.8,146z"/>
	<path class="st1" d="M483,155.8c0.9,0.2,1.8,0.4,2.7,0.6c0.1,5.9,1.2,12.1,0.6,17.9c-2.4,0.5-3.8,0.6-6-0.6
		c-0.3-4.5,0.4-9.1,0.5-13.7C480.9,158.3,480.6,155.7,483,155.8z"/>
	<path class="st1" d="M488.8,156.8l1.2-0.5l0.6,0.8c0.9,5.2,0.6,10.7,0.9,16l-0.4,1L490,174c-0.9-2-0.3-4.8-0.6-7
		C488.9,163.8,488.1,160,488.8,156.8z"/>
	<path class="st1" d="M584.7,163.2c0.5,3.4-0.5,6.9-0.1,10.4c-0.8,0.1-1.7,0.1-2.5,0.2c-0.2-1.3,0.9-2.6,1.3-3.8
		c-1-1.9-4.7,0.2-6.1-1.2c-0.5-2.3,1.8-3.6,1.4-6.1C580.5,161.6,583.4,161.3,584.7,163.2z"/>
	<path class="st1" d="M627.3,162.4c1,2.1,1.3,3.8,1.3,6.1c-0.7,0-1.4,0-2.1,0c-0.6-1.2-1.3-2.4-1.9-3.6
		C625.3,163.8,625.8,162.3,627.3,162.4z"/>
	<path class="st0" d="M539,172.7c2,0.4,4,0.7,6,1.1c2.9,1,4.5,3.4,6.3,5.7c0.4,3,1,5.6-0.4,8.4c-1.7,4-4,7.5-7.9,9.5
		c-4,0.9-7.3-0.4-11-1.7c-3.8-1.8-4.9-7-4.8-10.8c-0.2-3.8,2-6.9,5.1-8.7C534.3,174.3,536.1,172.8,539,172.7z"/>
	<path class="st1" d="M482.5,176.6c1.1-0.6,2.4-0.6,3.9,0c0.8,2.5-0.2,4.9,1,7.4c0.3,1.8,0.4,3.7,0.1,5.5c-1.2,0.2-4.8,0.3-5-1.3
		C482.6,184.3,482.1,180.3,482.5,176.6z"/>
	<path class="st0" d="M451,178.8c3.7,0.5,7.6,2.2,9.9,5.3c2.6,2.1,4.3,6.2,2.9,9.4c-2,6.7-11.1,9.9-17.2,6.8c-2.1-1-4-1.5-5.6-3.2
		c-3-3-3.5-7.6-1.2-11.2C442,181.8,446.5,179.6,451,178.8z"/>
	<path class="st1" d="M545.3,180.7c0.5,1.2,1.2,1.9,2.1,2.8c0,1.3,0,2.6,0,3.9c-1.9,2.1-3.9,3.9-5.9,5.9c-1.9,0-3.9,0-5.8-0.1
		c-0.7-0.3-1.3-0.7-2-1c-2.2-2.6-1-7.1-1-10.2c0.2-2.4,3.8-1.1,5.4-1.6C539.8,178.8,543.5,179.3,545.3,180.7z"/>
	<path class="st1" d="M448.5,183.5c4.9-0.8,8.9,1.2,12,5c0,1.7,0,3.4,0.1,5.1c-1.7,1.9-3.9,2.7-6.1,3.8c-2.3,0.2-4.6,0-6.9,0.2
		c-0.5-2.2-1.8-2.6-3.6-3.5c-0.6-1.6-0.2-3.8-0.3-5.5C445.2,186.4,446.5,185.2,448.5,183.5z"/>
	<path class="st0" d="M541.1,182.4c2.9,1.5,3.7,4.6,0.9,6.6c-2.7,1.9-5.2-1.1-6.8-3C536.8,183,538.9,184.2,541.1,182.4z"/>
	<path class="st0" d="M449.9,186.1c0.6,0.8,0.3,1.5-0.9,2.1C446.9,187.4,448.2,184.9,449.9,186.1z"/>
	<path class="st0" d="M596.1,186.8c-0.5,2.5-2,4.2-1.8,6.9c1.4-1.1,2.3-2.1,4-0.9c-0.5,1.9-1.3,3.4-0.4,5.2c1.8,4.6-5,8.9-3.2,13.2
		c1.3-0.5,2.5-0.8,3.9-1c-0.2,1.4-0.3,2.7-0.2,4.1c-3.7,1.4-7.2,3.6-10.9,5.1c-2.5,1.2-4.3,3.1-7.1,3.1c1.8-1.8,3.9-2.9,5.4-4.9
		c1.7-1.9,4.7-2.5,6.1-4.6c-0.8-1.2-1.5-2.4-2.2-3.6c-0.3-3.9,2.5-8.2,1.7-12.4c-0.4-2.6-0.1-4.7,1.1-7.1
		C591.8,187,593.3,185.5,596.1,186.8z"/>
	<path class="st0" d="M455.2,187.8c1,2.5,0.3,4.7-2.1,5.9c-2.4-0.1-5.3,0.8-4.8-2.8C450,188.4,452,186.6,455.2,187.8z"/>
	<path class="st0" d="M585.3,201.4c0.4,1.1,1,1.9,1.8,2.7c-0.5,2.2-3.3,3.7-4.9,5.1c-2.7,2-5.4,5.6-9.1,5.2
		c-2.9-0.1-5.9,1.8-8.5,3.1l-0.3,1.1c0.9,0.2,1.8,0.4,2.7,0.6c-3,1.8-7,3.7-10.5,4.3c0-0.6,0-1.2,0-1.8c2-1.2,4.4-1,4-4.1
		c3.2-1.8,7.2-2.8,10.1-4.8c0.9-0.1,1.6-0.3,2.3-0.8C576.9,208.3,580.6,204.1,585.3,201.4z"/>
	<path class="st0" d="M508,207.8c4.1,0.1,7.7,4.4,9.5,7.7c3.4,0.8,5.1,3.2,7.5,5.6c4,4.5,6.2,11.8,3.9,17.5c-0.2,1.8,0,3.4-0.9,5
		c-0.5,2.8-1,5.6-1.6,8.4c-2.1,5.5-4.3,11.3-5.8,17c0.1,4.4-3.5,8.2-7.5,9.4c-4.6,0.5-9.4,0.6-14,0.2c-1.5,0-3.7-0.6-5,0.3
		c-0.2,1.6,3,1.5,4.1,1.8c5.2,1.5,10.5,1.2,15.9,0.8c4.9-2.2,10.7-3.1,15.9-4.2c5.4-1.9,10.8-3.3,16.1-5.6c6.9,0.4,13.7-0.6,20-3.5
		c0.5-1,0.6-2.1,1.5-2.7c1.2,1.1,0.9,3.1,1.4,4.6c1.4,6.5,0.1,13.4,1.2,19.8c3.2,0.3,3.6-2.8,7-2.5c0.8-2,1.9-3.3,1.6-5.6
		c1.4-2.2,1.8-4.8,2.8-7.2c1.8-4.4,1.6-8.8,4.1-12.9c1.8-1.8,3.7-1.3,5.8-2.1c1.3-1.1,2.4-2.6,3.9-3.2c2.7-1.3,6.2,0,9-0.9
		c2.1-1.9,2.8-3.2,6-3.2c3-2.4,4.6-1.9,7.9-0.5c-0.5,2.8-2.4,4.4-3.7,6.9c-5.1,6.9-9.3,14.6-14.1,21.8c-2.2,1.8-2.4,4.7-4.5,6.5
		c-1.4,1.2-1.6,3-3,4.2c-2.5,1.9-3.9,4.7-6.1,6.9c-1.5,2.8-2.9,5.4-5.4,7.4c-3,0.3-6.2-0.5-8.7,1.3c-1.5,0.8-2.6,2-3.9,3.2
		c-3.8,2.4-7.6,0.3-11.5,2.7c-0.6-4.5-1.3-9.2-1.8-13.7c-0.1-1.5-0.4-5.5-2.6-3.2c-1.1,5.8-4.1,10.8-4.7,16.7c-1.5,2.3-4,2.2-4.8,5
		c-1,0-2,0-3-0.1c-0.8-0.5-1.9-2.6-2.9-1.8c-2.5,1.5-5.3,1.6-7.5,3.4c-2.9,2.1-5.6,3.8-9,5c-2.9,2.2-5.8,0.8-9.1,2
		c-6.6,1.8-12.1,0-19,0.1c-4.7,0.3-9-0.9-13.6-1.7c0-0.3,0-0.6,0.1-0.9c-4.5,0.6-8.1-0.9-12.5-1.3c-3.3-1-6.2-0.6-9.3-2.8
		c-1.6-2.8-3.1-5.6-4.6-8.4c-3.3-3.7-2.1-8.8-5.4-12.7c-2.9,1.9-1.8,3.7-2.2,6.6c-1.3,4.2-0.8,8.8-1.2,13.3
		c-3.7,0.9-8.3,0.4-12.2,0.2c-2.8-1.3-6.1-1.1-8.9-2.5c-2.1-1.1-5.2,0.5-7.1-0.9c-2.7-2.7-6.8-3.7-9.5-6.4c-4.8,0.7-6-4.6-8.8-7.3
		c-1.7-3.3-5.9-5.2-6.3-8.8c-2.2-2.7-3.2-5.9-5.1-8.7c-1.4-2-2.3-4.3-3.4-6.5c-2.1-3.6-2.2-7.8-4.3-11.4l0.1-1.1
		c1.8-2.4,0-4.8,1.2-7.3c2.2-0.9,5.2-0.2,6.9,1.5c4.1-0.4,4.5,3,7.9,4.4c1.5,0.6,2.9,2.1,4.5,2.1c3.6-0.3,6.9,2.6,6.7,6.2
		c2,6.4,4.5,12.8,7.6,18.7c1.6,3.1,4.2,4.8,4.7,8.3c0.5,1.7,2,1.4,3.4,1.6c-0.2-1.5,0.3-2.4,0.9-3.7c0.4-2-1.9-2.9-1.7-4.9
		c-0.3-6-0.7-12.5,0.1-18.4c2.1-0.1,2.5,1.5,2.9,3.1c1.3-0.5,2-1.7,3.3-2.3c3.1,0,6,1.2,9.1,1.3c2.8,0.2,5.4,0.9,7.7,2.5
		c5.2,0.3,10,0.7,14.8-1.7c3.3-2.1,7-1.2,10.2,0.7c1.3,0.1,2.6,0.1,3.9,0.2c-0.4-2-1.9-1.6-3.3-2.8c-0.9-0.9-0.9-2.2-1.9-3.1
		c-3.7-4.5-4-9.9-4.1-15.5c-2-4.9-6.5-10-6.2-15.4c-1.1-3.4-3.1-6.1-3.2-9.6c-0.1-2.1-0.9-5,0.1-6.9c2.2-5.7,9.5-8.6,14.8-10.8
		c5.8,0.1,11.6-0.2,17.4-0.1c1.1-0.9,2-1.8,3.6-1.7c4.2-0.2,8.3-0.2,12.5-0.1C504.1,209.8,505.5,208.2,508,207.8z"/>
	<path class="st0" d="M426.4,214.5c5.4-0.1,10.6,2.6,16,3.3c2.5,1,5.2,2,7.6,3.1c0.4,0.4,0.6,1,0.6,1.7c-5-1.9-10.6-4.1-16-4.5
		c-2.2-1-4.2-1.8-6.6-1.9C426.9,216.3,426.6,215.5,426.4,214.5z"/>
	<path class="st0" d="M416.5,215.6c3.1,0.2,6.4,2.3,9.1,3.9c2,1,3.7,3.3,6,3.2l0.1,0.9c-1.3-0.1-2.7-0.2-4-0.3
		c-3.5-2.7-7.2-4.1-11.2-5.8C416.4,216.8,416.4,216.2,416.5,215.6z"/>
	<path class="st0" d="M565,242.6c3.8-0.1,7.6-0.2,11.4,0.2c2.5,1.1,5.1,0.3,7.6,1.6c2.2,0.1,3.9,1.2,6,1.3c1.9-0.1,3.2,1.2,4.9,2
		c2,0.1,3.6-0.1,5.4,0.9c-2.2-0.2-4.4-0.3-6.6-0.3c-4-2.2-9.3-2.1-13.7-3.4c-5.8-0.8-11.8-0.6-17.7-0.4
		C562.2,243.1,564,242.8,565,242.6z"/>
	<path class="st1" d="M731.9,254.1c4.3,0.4,8,4.4,10.2,7.9c1.2,1.5,3,2.7,0,3.8c-3.1-1.8-5.5-4.3-8-6.8
		C733,257.7,730.1,255.9,731.9,254.1z"/>
	<path class="st0" d="M334.7,257.2c0.2,5.1-0.6,10.6,0.7,15.6c0.8-0.7,1.7-1.2,2.7-1.3c2.2,3,1.2,7.9,1.6,11.5
		c1.8,2.4,1.9,3.8,0.8,6.6c-0.7,0.4-1.4,0.9-2.1,1.3c0.7,2.6,1,4.7,3.2,6.5c1.3,1,2.9,3.6,4.7,3c0.9-1.8-1.7-3.6-2.8-4.9
		c-0.1-1-0.1-2.1-0.1-3.1c1.8-0.3,3.6-0.8,3.9,1.6c0.1,3,2,1.7,3.7,2.9c1.4,2.5,3.5,5.7,6.3,6.8c0.6,1.8,1.2,1.9,3,2
		c3,2.5,6.3,4.5,9.6,6.6c1.1,0.8,1.5,2.3,2.6,3.1c3.8,1.4,8.6,2.7,10.5,6.6c1.6,2.1,4.2,2.7,5.8,4.7c-1.7-0.3-3.1-1.2-4.8-1.6
		c-1.6-0.6-3.1-0.6-3.7-2.4c-3.9-0.4-8.4-3.2-11.9-4.9c-3.5-0.6-5.4-3.1-8.4-4.6c-2.1-1-3-2.1-4-4.1c-2.6-1.9-5.9-2.5-8.5-4.3
		c-3.3-1.5-5-4.2-9-4.2c-1.5-2.1-2.1-5.1-4-7c-1.1-1.2-2.2-2.4-2.7-4.1c-0.2-2.8,0.1-5.4-0.9-8c-0.5-7.2-0.1-14.6-0.2-21.9
		C332,258,332.6,257.2,334.7,257.2z"/>
	<path class="st1" d="M516.3,271.8c1,1.6-1.5,3.2-2.7,3.9c-4.5,2-9.7,3.2-14.7,2.4c1.9-3.1,8.6-1.6,11.1-4.1
		C511.5,272.6,514.2,270.8,516.3,271.8z"/>
	<path class="st1" d="M768.3,308.4c0.3,0.9,0.6,1.8,0.9,2.8c-0.9,0.4-2,0.6-3.1,0.6C766.5,310.1,766.4,308.9,768.3,308.4z"/>
	<path class="st1" d="M771.2,313.6c3.3,2.3,5.2,6.3,8,9.2c1.6,2.7,4.5,4.3,5.7,7.2c1.4,1.5,2.6,2.9,3.6,4.7
		c-1.8-0.6-3.1-2.5-4.5-3.7c-3.2-2.7-5.7-6-8.7-8.8c0.2,1.8,1.7,2.4,2.6,3.9c1.5,2.4,3.6,4.5,5.2,6.9c4.4,5.1,7.7,11.3,11.4,17.1
		c3.3,6.1,6.5,12.4,10,18.4c2.1,3.1,2.9,6.8,4.8,10c6.4,14.1,7.7,30.9,13.1,45.4c0.7,1.9,2,1.3,3.6,1.7c2.2,1.1,4.1,3.1,5,5.4
		c1.8,4,3.5,8.1,4.8,12.3c1.4,3.4,3,6.5,4,10c3.1,5.1,5.4,10.7,7.9,16.1c0.4,1.2,2.4,0.9,3.3,1.5c2.5,0.9,3.2,3.1,4.5,5.1
		c3.3,6.3,5.5,13.3,9,19.4c-3.3-1.1-7.3-6.3-11-4.9l0,1.3c1.8,1.8,4.1,3.4,6.1,5.1l0,1.5l-1.5,0.4c-8.9-3.2-18.9-7.1-28.5-6.4
		c-0.5,0.8-0.9,1.6-1.2,2.4c0.9,1.4,1.5,1.8,1.1,3.6c2.6,1,5.3,1,7.9,2.2c6.2,3.3,12.9,5.3,19.1,8.7c1.8,1.5,2.8,3.8,4.5,5.5
		c2.3,2.1,3.1,4.8,5.9,6.3c3.6,2.2,4.5,6,9.6,5.3c1.1,1.2,3.8,2.7,3.6,4.5l-1,0.2c-3.5-1-7.5-1.1-10.8-2.6c-2.9-0.2-6.3,0.2-9-1
		c-4.1-0.3-8.3-0.1-12.4-1c-2.6-0.6-5.1,0-7.6-1c-9.4-0.4-19-0.4-28.4-1.1c-9,0-18,0-27,0.1c-4.6,1.3-9.7,0.7-14.4,1.1
		c-3.4,1.6-7.4-0.1-10.6,1.6c-2.4,0.4-5,0.1-7.4,0.4c-2.1,1.3-4.5,0.4-6.6,1.6c-3.8,0.2-7.3,1.7-11,2.1c-3.4,1.6-7.3,0.7-10.7,2.9
		c3.3,0.1,5.1-1.7,8.6-1.2c4.9-2.4,10.1-1.2,15-3.5c4.1-0.4,8,0,12-1.3c5.8-0.1,11.3-0.7,17-1.7c17-0.7,34-0.8,51-0.2
		c5.4,1.1,11.1,0.2,16.6,1.5c3.1,0.3,6.3,0.1,9.5,0.4c3.9,1.6,8.5,0.2,12.5,1.6c2.4,0.2,4.7,0.4,7,1c3.3,0.4,6.5,0.2,9.6,1.7
		c0.3,1.3,0.5,2.5,1.2,3.6c1.9,3,3.5,6.3,5.2,9.5c2,4.9,2.5,10.2,1.8,15.4c-1.4,2.2-2.4,0.2-3.3-1c-3.3,0.4-1.6,4.4-1.1,6.4
		c-2,1.3-4.1,2.5-5.8,4.2c-0.8,0.9-2,1.5-1.8,2.9c1.1,1.5,1.9,1.5,1.2,3.7c1.4,0.1,2,0.1,2.8-1.2c0.2-1.6-2.5-1.9-0.6-3.5
		c2.3-1.6,5.4-4.5,8.2-4.6c1.6,1.3,3.1,1,5,1c3.6,1.9,6.2,4.7,8.9,7.7c3,4.5,6.5,7.4,7.6,13c1.2,6.3,5.4,12.5,4.8,19
		c0,2.5,0.7,5.1,0.2,7.6c-1,0-2.1,0-3.1,0c-0.3,2-0.1,3.9,0.1,5.9c1.7,1.6,3.4,3.2,4.9,5c0.7,9,2.7,18.4-0.8,27.1
		c-1.5-3.1-0.9-6.4-1.9-9.6c-2.2-8.5-3-19.8-8.2-27c-1-5-3.2-8.6-5.8-12.9c-1-1.6-0.2-2.6,0.4-4.1c-0.1-1-0.3-2-0.5-3
		c1-0.9,2.1-1.2,2.2-2.6c-2.5-0.4-3.5,1.5-5.7,1.7c-1.1-0.8-1.3-2.7-2.5-3.4c-0.9,0-1.7,0-2.6,0c-0.5-0.4-1-0.8-1.5-1.2
		c0.1,1.8,0.5,3.4-0.1,5.2l-1.4-0.3c-1.9-2.2-3.1-4.8-5.5-6.6c-1.9,0-4.1-0.6-6-0.2c-3.9,3.8,0,11.1-2.7,15.5
		c-0.2,5.1-0.1,11-1.8,15.9c-5.7,8.7-8.1,17.7-12.8,27.2c-0.9-0.1-1.4-0.8-1.6-2.1c-0.5-4.4-1.9-8.7-3.1-13
		c-1.6-6.5-3.4-13.4-4.2-20c-1.7-6.5-3.9-13.7-6.4-19.9c-1.8-2.3-1.7-5.4-3.8-7.2c-1.7-0.6-3-0.3-4-2c-0.6-1.7-1.1-3.5-1.9-5.1
		c-2.5-0.6-6.5-1.7-8.2,1.1c-2.3,2.8-3.5,6.8-5.1,10c-3.2-1.3-5.3-5.3-8.3-7.3c-1.7,0-3.4-0.3-5-0.1c-1.3,0.9-0.8,2.6-0.6,3.8
		c1.6,2.8,0.1,5.8,1.6,8.6c0.4,5.3,0.4,10.8,0.3,16.2c-3.8,3.5-2.4,7.8-4.9,11.9c-0.3,0.8-1,1.2-2,1c-1.7-5.1-2.3-10.7-3.4-16
		c0-1.9-4-1.9-3.9,0c0.2,8.2,4.1,16.4,4,24.6c-1.7-2.5-2.4-5.5-3.7-8.3c-0.5-3.2-2.2-6.2-2.3-9.4c0-2.4-1.2-4.7-1.8-7
		c-1.1-2.5-1.1-5.1-2.3-7.5c-0.6-0.4-1.2-0.7-1.8-1.1c-0.9-3.5-2-7-3.8-10.1c-1.6-5.6-5.4-10.8-8.9-15.3c-2.9-2.4-5.7-1-8.9-2.1
		c-1.2-0.4-2.3-0.3-3.5-0.4c-0.6,0.7-1.2,1.3-1.7,2c-0.1,1.2-0.3,2.5-0.7,3.6c-3.7,0.5-3.2,4.7-4.3,7.4c-1.2,3.2-1.4,7.7-4.1,10
		c-0.7,2.6-2,4.8-2.8,7.3c-2.2,2.9-2.5,6.5-4.4,9.6c-2.5,4.5-3.2,9.6-5.8,14.1c0.4,4.9-0.7,9.1-2.5,13.4c-0.1,2.6,1.7,0.8,2.6,2.9
		c0,2.9-2.1,5.1-3.1,7.7c-0.1,1.3-0.2,2.6-0.3,4c-1.4,0.1-2.7,0-4.1-0.1c0.5,5.3,4,11.5,4,16.9c-1,0.3-3.2,0.1-2.9,1.7
		c0.2,2.7,0.8,5,0.2,7.7c-3.2,0.8-1.9-3.3-4.2-3.4c0.1,1.7,0.2,3.4,0.3,5.1c2.5,3.8,3.4,8.1,6.6,11.6c0.6,5.6-0.5,11.5-0.8,17.1
		c1.2,2.9,0.5,6.2,1.2,9.3l1.7,0.4c-0.1,1.3-0.5,2.1-1.2,3.2c0.3,4.5,0.5,9,0.1,13.5c-4.2,0.6-5.8,5-6.9,8.6
		c-0.1,0.7-0.8,1.1-1.8,1.3c-0.3-0.8-0.4-1.8-0.3-2.7c-2.2-0.5-4.2-1.3-6.5-1.1c-2.7,0-5.2,0.8-7.5-0.9c-3-1.4-4.4-4.5-7.4-5.6
		c-3.7-1.3-5.1-5.3-8-8c-1.3-1.7-3.9-2.1-4.7-4c-1.5-2-0.1-4-1.4-6c-1.6-2.9-2.1-4.8-1.5-8.1c0.6-0.4,1.3-0.8,1.9-1.2
		c-0.2-0.6-0.4-1.2-0.6-1.8c3-0.9,6.7,0.2,9.6-1.1c1-0.5,4.1-1,2.6-2.6c-4.1,0.1-8.1,1.7-12.1,1.2c-1.8-0.7-3.6-0.5-5.5-0.9
		c-1.5-1.3-2.7-2.8-3.9-4.4c-0.7-1.6-0.1-3.7,0-5.4l-2.1,0c-0.9-2.1,0.7-3.6,0.9-5.6c0-2,2.1-3.1,0.6-5c-1.7-1.6,1.3-2.3,0.2-4.3
		c-1.7-2.4-0.8-4.5-0.8-7.2c-1.1-1.5-2.2-0.2-3.5-1.3c-0.8-0.9-1.6-1.8-2.5-2.6c-1.2-0.3-3.5,0.3-4.2-0.9c-1.7-1.8-0.7-3.6-1.3-5.7
		c-1.9-6-3.5-12.3-6.3-17.9c-0.9-2.2-1.5-4.2-3.2-6c-0.7-2.3-1.2-4.6-1.3-7c-1.6-5.4-0.7-11.7-1-17.4c-1.6-1.8-0.5-3.7-1.7-5.6
		c-0.1-2-0.6-3.6-1.2-5.4c-0.6-0.5-1.2-1-1.9-1.5c-0.2-2.8-0.1-5.7-0.3-8.6c-0.5-3.1-2.2-7.1,1.2-9.1c-0.2-2-0.1-4-0.2-5.9
		c-0.7-1.9-0.9-3.6-0.7-5.6c0.8-5.3,2.2-10.3,2.1-15.7c-0.8-0.1-1.4,0.1-1.7,0.6c-1.4,3.1-0.8,6.8-2.2,9.7c-0.5-1.2-0.9-2.4-1.3-3.6
		c-1.1-2.8-0.2-5.8-1.4-8.6c-0.6-3.8-0.2-7.7-1.2-11.4c-0.6-5-3-10-4.3-15c-0.8-3.1-1.8-6-2.8-9c-0.5-1.7,1-2.4,0.9-4
		c0.1-11.3-0.3-22.8,0.7-34c0-4.3,0.4-8.6,0.6-13c0.8-5.2,1.7-10.2,2-15.5c1.3-2.8,0.3-5.8,1.5-8.5c0.2-3.8,1.3-7.2,1.2-11
		c-0.1-3.6,0.8-7,1.7-10.5c0.7-7.6,3.3-15.1,5.4-22.6c1.1-2.4,0.7-4.8,0.9-7.4c1-2.5,2.5-4.8,3.9-7l0.9-0.1c1.5,2.8,0.5,5.7,1.6,8.6
		c0.7,2.2,0.7,5.2,2,7l1.2,0.2l0.4-1.1c-0.1-9-0.9-17.7,0-26.7c6.7,3.3,13.7,7.3,20.1,11.2c-0.6-3-3.6-5.6-5.7-7.6
		c-3.2-2.9-7.1-4.8-10.5-7.4c1.1-2,2-3,4-4.1c2.3-1.3,2.8-3.7,4.6-5.4c2.1-2.3,4.9-2.8,7.4-4.7c1.1-0.9,2.2-1.8,3.6-2.4
		c-0.2-0.9-0.5-1.8-0.7-2.7c2.3-1.8,4.8-4,7.7-4.9c3.8-1.4,6.7-3.9,10-6.1c1.5,0.2,2.4,1.2,3.6,2c-0.1,3-0.2,5.6-1,8.5
		c0,4.5-0.8,9.3,0.1,13.7l1.4-0.3c1.5-5.4,2.6-11.2,4.9-16.3l1.1,0.2c5.6,4.4,10.8,9.1,15.6,14.3c-1.4-8.2-8.1-15.7-14-21.1
		c-0.6-2.8,0.5-4.7,2-6.9c2.9-1.4,5.5-3.6,8.5-4.9c2.4-0.7,4.3-2.1,6.5-3.1c3-1.2,5.9-2.3,8.5-4.3c2.7-0.8,5.3-1.7,8-2.8
		c2.9,0.9,4.5,5.5,7.2,6.3c4,4.6,8.5,8.6,12.4,13.3c2.2,3,4,6.2,5.8,9.6c0.4-4.3-0.1-8-1.2-12c-2.5-3.7-4.8-7.6-8.2-10.6
		c-2-2.4-5.1-4.2-6.4-7c1-1.7,2.2-3.5,4.4-3.6C768,314.3,769.3,313,771.2,313.6z"/>
	<path class="st1" d="M278.7,316.4c3.6,3.7,7,7.7,10.7,11.2c0.8,2.5-2.2,4.9-4.3,3.2c-2.3-1.3-4.2-3.6-6.8-3.5
		c0.4,2.6,3.4,2.4,4.7,4.7c-1,1.4-3,1.8-4.5,2.6c-3.8,2.2-7.5,4.3-11.1,6.8c-1.4,1.1-3.8,2.1-4.1,4.1c1,0,2.1-0.1,3.1-0.2
		c6.6-3.2,13.2-7.8,20.2-10c-0.2,3.6-2.6,7.1-3,10.7c0,2.2-1.3,3.8-1,6c-0.4,6.6-0.6,12.7-0.1,19.3c0.9-1.8,0.8-3.4,1-5.3
		c1.1-1.9,0.9-3.9,1.2-5.9c2.2-5.5,3.5-11.1,5.9-16.5c0.7-1.5,0.8-3.6,2.4-4.4c2.8,2.2,5.7,5.1,7.2,8.4c0.8,2.7,2.3,5.1,3.8,7.4
		c0.4,0.4,0.8,0.5,1.4,0.6c0.3-0.8,0.6-1.6,1-2.4c2.9,3.2,4.3,8,6.3,11.8l-0.6,1c-11,3.2-20.7,9.5-28.7,17.6
		c4.6-3.1,9.4-6.1,14.9-7.5c4.4-2,9.2-3.3,14-4.3c1.2,1.9-1.8,5.3-2.7,7.1c-2.9,6.5-5.5,13.6-4.1,20.8l1.4-0.4
		c3.7-8.9,10.1-16.5,14.7-24.8c0.6,0,1.2,0,1.8-0.1c1.3,2.9,3.4,4.8,3.2,8.1c-1.8,0.8-2.9,1.9-4.2,3.3c0.1,1.7,0.5,3.7-0.1,5.3
		c-0.8,1.5-2.1,1.9-3.4,2.9c-1,2.2-2.5,4.5-2.6,6.9c-0.6,2.3-1.8,4.6-2,7c-0.7,2.6-1.9,4.9-2.1,7.5c-1,3-1.9,5.8-2,8.9
		c-0.8,1.3-0.8,2.4-1,3.9c-1.3,1.7-1.6,3.6-2,5.7c-1.9,7.7-4.2,16.3-4.9,24.2c-1.2,2.9-0.5,5.9-1.6,8.8c-0.6,2.1,0.5,5.1-1.1,6.6
		c-0.4,3.5,0.3,7-0.9,10.4c-0.6,2.3,0.7,5.9-1,7.6c-0.5,3.9,0.6,7.9-1,11.4c-0.1,9.5-0.1,19.9,0,29.3c1.7,1.8,0.1,4.2,1.6,6.2
		c0.4,4-0.3,8.6,0.8,12.5c0.7,7.8,2.5,16.2,3.6,24c0.4,1.4,0.3,2.8,1.6,3.7c-0.1,0.9,0.1,1.7,0.5,2.3c1.1,1.7-0.2,4.3,1,6
		c0.9,1.4,0,3.5,1,5c1.1,4,2.4,8.4,4.5,12.1c2.2,8,5.5,21.7,7.4,30c0.8,1.3,0.3,2.5,0,3.9c-0.5,2.5,0.7,4.5,0.6,7
		c0.2,4-0.5,7.6,0.9,11.5c0.3,3.6,0,7,0.8,10.5c0.7,3.7-0.2,7.5-3.2,10c-3.8,3.3-6.5,7.4-10.1,10.9c-4.3,3.1-9.2,5.1-14.5,5.6
		c-1.4,1.3-2.1,3.1-3.4,4.5c-1.7,1.6-3.8,2.7-5.5,4.3c-4.8,1.6-9.6,1.3-14.5,2.2c-2.9,1.1-5.9,1-9,1.2c-3.5,0.1-6.8,0-10-1.7
		c-1.9-1.7-3.9-3.5-5.4-5.5c-2.1-4.2-4.8-8.1-6.7-12.4c-3-4.5-4.6-9.6-7.6-14.1c-3-5.5-6-11.1-8.5-16.8c-1.1-1.8-2.1-3.5-2.7-5.5
		c-1.7-2-1.9-4.4-3.2-6.6c-1-1.5-0.7-3.6-0.8-5.3c-0.8-1.2-1.4-2.5-2.3-3.6c-3.8-3.9-4.1-10.5-6.9-15.1c-8.2-4.9-17.1-9-24.6-15.2
		c-4.1-2.2-7.3-5.4-10.5-8.6c-2.6-3-6-4.7-8.5-7.7c1.5,0.5,2.3,2.3,3.8,1c1.2-2.5-1.6-4.7-2.8-6.7c-3.8-2.9-7.7-5.5-10.8-9.2
		c-1.8-2.2-4.6-3.2-4.3-6.3c0.8-1.6,2.6-1.9,2.3-4c-0.2-3.5-2.5-4.6-5.1-6.3c-2.3-0.1-4.7-1.5-6.2,0.9c3.3,0.5,5.3,1.2,7.2,4
		c0.6,0.8,1.5,3.7-0.4,3.3c-2.3-1.4-4.4-4.1-7-4.5c-2.1-0.5-4-1.6-5.9,0.1c-3,2.9-6.2,5.7-9.1,8.7c-1.2,0.9-0.4,2.7-0.6,4
		c-1.6,8.7-1,18.3-2.9,27c-0.5,6,0.2,12.1-0.3,18.2c1.7,1.9,1.1,4.1,1.9,6.5c0.8,4.9,2.8,8.8,2.5,13.9c-0.7,0-1.3-0.1-2-0.1
		c-1.4-3.5-3.9-2.8-6.7-4.6c-1.2,0.5-2,1.5-3.2,0.4c-1.9-1.5-3.8-2.9-4.8-5.2c-2.1-2.6-4.8-5.3-8-6.5c-3.9-0.5-7-2.5-11-2.1
		c-3.1-0.5-3,2.4-4.4,4.1c-2.7,2-3.2,5.8-3.3,8.9c-0.8,4.3-0.4,8.3,0,12.6c-0.7,1.5-2.8,1.8-3.7,3.4c-0.2,3.4,1.1,6.3,1.1,9.6
		c0.1,2.4,1.9,4,0.8,6.6c-2-0.1-2.9-3-3.7-4.6c0.5-4.1-2.2-5.7-4.9-8c-0.7-9.1,3-16.3,7.2-24c2.9-4.3,1.5-11.8,5.3-15.6
		c0.9-3.6,1.7-6.1,4.3-8.9c1-0.1,2,0,3,0c1.4,1,2.4,3,4.1,3.3c1.4-4.1,3.4-7.8,6.3-10.9c1.2-1.6,2.5-3.8,0.7-5.5
		c-2.7,2.3-0.7,5.9-4.5,6.8c-3.1,0-6.1,1.6-7.7-2.2c1.8-4.5,4.2-8.3,6.2-12.7c-4.7,1.5-7.6,6.4-9.7,10.5c-1.5,2.8-5,1.4-6.9,4.1
		c-1.2,1-2.7,3.8-4.5,2.3c0.2-2.6,2.2-4.5,2.1-7.4c5.8-9.1,10.8-18.7,16.6-27.9c1-1.4,1.7-4.2,3.8-4l0.4,1.7
		c3.4-3.6,6.2-7.7,9.6-11.4c2.1-1.8,4.5-3.2,6.8-4.6c1.8-1.2,3.2-3.3,5.2-4.3c6-2.8,11.7-6.1,17.8-8.8c2.8-2.3,6.1-1.1,9.1-0.1
		c2.5-0.8,4.8-2.8,7.1-4c3.1-1.9,6.9-3.3,9.4-5.9c0.3-0.1,0.7-0.2,1-0.2c2.5-2.5,5-5,7.4-7.5c2.1-2.3,5.2-2.5,7.7-4.3
		c2.2-1.4,3.8-3.3,5.8-4.9c3.5,0.6,4.3-1.9,6.9-3.5c4.6-4.3,9.2-9.2,12.3-14.7c0.7-3.2,2.8-5.5,5.3-7.5c1.3-0.6,2.6-0.1,3.4-1.6
		c1.2-1.7,2-3.3,4-4.2c3-2.1,3.2-4.9,3.1-8.3c2.4-5.9,5.1-12.2,8.6-17.6c0.6-2.5,1.9-4.7,3-7c0.3-1.9,0.7-2.6,2.1-3.9
		c-0.4-2.1,1.2-2.7,1.6-4.5c1.7-8.3-0.3-16.9,1.4-25c0.1-1.4,0.1-2.7,0.4-4c2.1-9.1,3-19.1,5.5-28c0.2-4,1.6-7.9,2.2-12
		c0.4-3.8,1.9-7.2,2.2-11c1.1-1.9,0.5-4,1.4-6c1.2-4.3,1.7-8.4,3.3-12.5c1.7-3.9,2.4-7.6,5.2-11c0.9-1,1.5-2,2.9-2.1
		c-0.1,4.9-0.5,10.3,0.3,15.2c2.7,0.7,1.7-3,2.1-4.5c0.8-3,1.8-5.9,1.9-9c0-1.7,0.7-3.2,1.7-4.6c2.5,0,3.9,1.7,6.1,2.2
		C274.1,319.2,276.2,316,278.7,316.4z"/>
	<path class="st0" d="M461.5,324.4c3.6,0,6.8,2.1,10.5,2.1c1.9,0.3,4.5-0.6,5.7,1.1c-5.5,0.2-10.8,0.6-16.1-1.1
		C461.5,325.7,461.5,325,461.5,324.4z"/>
	<path class="st1" d="M293.5,335.5c2.6-0.9,3.6,2.5,4.3,4.3C296.2,339.6,293.2,337.2,293.5,335.5z"/>
	<path class="st1" d="M410,338.2c3.1-1.5,7.6,0.2,11,0.3c2.9,0,5.1,2,8,2.2c1,0.6,3.3,0.9,3,2.4c-1.4,0.9-3.2,0.1-4.6-0.3
		c-5-0.1-9.6-1.3-14.5-2.3C411.9,340.2,409.5,339.8,410,338.2z"/>
	<path class="st0" d="M533.1,347.3c0.9-0.4,1.8-0.4,2.8-0.1C536.2,348.6,532.6,348.7,533.1,347.3z"/>
	<path class="st1" d="M652.4,361.5c3.6,0,7.4-0.4,11,0.1c0.4,1.2,0.2,2.4-0.3,3.5c-2,0.9-4.9-1.6-7-1.7
		C654.7,363.1,652,363.7,652.4,361.5z"/>
	<path class="st1" d="M661.2,373.8c1.9,5.6-1.9,7.3-6.1,9.3c-1.1,2-2.7,3.4-5,3.7c-1-0.9,0.9-2.5,1.4-3.4c1.9-2.3,3-4.9,5.5-6.7
		C658.3,375.8,659.5,373.9,661.2,373.8z"/>
	<path class="st1" d="M442,431.7c2.1,0.8-0.6,3.3-1.8,3C440,433.2,440,431.6,442,431.7z"/>
	<path class="st0" d="M260.5,439.4c1.3,0.1,2.6,0.1,3.9,0.2c0.5,2.9-2.8,3.8-5.1,4C259.5,442,259.9,440.8,260.5,439.4z"/>
	<path class="st1" d="M840.5,498.6c4,0,8.3,1.4,11.8,3.1c0.1,0.9,0.1,1.9,0.2,2.8c-0.5-0.3-1-0.6-1.5-0.9c-3.7-0.9-6.8-3.6-10.5-4.2
		L840.5,498.6z"/>
	<path class="st1" d="M127.3,514.6c1.1,1,3.8,3.6,0.7,3.8c-2.1-1.1-4.4-3.2-6.8-3.3c1.6,1.9,4.4,2.8,6.4,4.2c1.4,1.3-0.1,2.7-1.5,3
		c-10.1,3.9-19.7,9.6-27.7,17c-1.3,1-2.4,2.8-4.1,3.2c0.4-1.8,2.2-2.8,2.9-4.6c0.8-1.8,2.6-3.9-0.3-5l-1.5,0.4c0,1,0,2,0,3
		c-1.6,3.2-4.2,6-6.2,8.8c-5.2,5-11.2,8.7-15.9,14.2c0.3-3.6,2.2-6.2,4.2-9c4-6.7,9.6-12.2,16.5-15.7l0.5-1.2
		c-2.9-1.4-6.9,2.4-9.5,3.7c-8.5,6.4-14.4,16.7-17.7,26.7c-1.9,6.4-4.7,12.3-6.9,18.6c0-4.8,1.7-9.4,2.2-14
		c2.1-3.6,2.8-7.8,4.7-11.6c3.6-10.5,8.7-21.2,15.9-29.7c4.1-3.9,7.4-8,12.5-10.6c3.5-2.4,7.5-2.8,11.4-4.3c2.2-0.3,4.5,0,6.7-0.1
		C117.7,509.8,124.1,512.1,127.3,514.6z"/>
	<path class="st1" d="M151.6,512.7c1-0.1,2.1-0.1,3.1-0.2c-4.7,2.4-7.6,7-13.5,5.2C144.1,515.3,148.5,514.5,151.6,512.7z"/>
	<path class="st1" d="M139.6,518.5l0.8,1.1c0.9,0.1,1.7,0.2,2.6,0.3c-0.3,1.4-1.9,2.3-2.8,3.2c-1.7,1.4-3.2,3.5-5.2,4.4
		c-5,2.3-9.6,5.4-14.4,8l0-0.7l1.4-0.7c4-4.4,8.4-8.2,12.6-12.4C136.4,521,140.4,521.3,139.6,518.5z"/>
	<path class="st1" d="M116.7,530.3c-3.9,3.9-7.9,7.7-11.2,12.2c-1,1.6-2.8,1.7-3.9,2.9c0.3,2.6-2.2,5.4-4.1,7
		c-4.3,2.9-7.8,6.8-11.6,10.4c-4,3.9-7,8.7-10.6,12.9c0.1-2,0-3.4,1.4-5c2.4-4.5,6.2-7.7,9.8-11.2c-0.4-0.5-0.7-1-1.1-1.5
		c4.3-4.9,8.4-10.1,13.3-14.3C104.3,539,110,533.4,116.7,530.3z"/>
	<path class="st1" d="M86.7,550.3l-0.4,1.1c-5.3,6-10,12.8-14.3,19.6c-1.6,2.8-4.2,4.6-5.4,7.6c0.2-3.3,1.5-6.5,2.6-9.6
		c3.3-5.6,8.1-10.7,13-14.9C83.8,552.9,85.3,551.9,86.7,550.3z"/>
	<path class="st0" d="M887.5,554.3l1.1,0c1.1,2.2,0.7,5.7-2.4,5.5C886.9,558,887.8,556.5,887.5,554.3z"/>
	<path class="st1" d="M140.9,563.9c-1.7,0.8-3.2,2.2-5,2.7c-1.3-1.2-2.6-1.2-4.3-1.5C131.7,560.7,140.4,559.2,140.9,563.9z"/>
	<path class="st1" d="M896.6,561.4c0.9,0.3,1.8,0.8,2.7,1.3c-0.1,0.9,0,1.9,0.1,2.9C896,565.6,896.7,564,896.6,561.4z"/>
	<path class="st1" d="M91.6,562.4c-4.6,7.7-9.1,15.4-12.8,23.6c-0.7,2-2.9,2.6-3.5,0.1c-0.2-5.4,4.4-11.1,7.6-15.2
		c2.1-2.9,4.6-5.3,7.2-7.8C90.5,562.8,91,562.5,91.6,562.4z"/>
	<path class="st0" d="M743.6,569.5c-0.1,1.3-0.2,2.1-1,3.1c-1.9,3.2-2.9,7-5.1,10c-0.4-4.5,0-8.5,3-12.1
		C741.4,569.4,742.3,569.6,743.6,569.5z"/>
	<path class="st1" d="M140.3,569.7l0.3,1.3c-0.6,0.7-1.2,1.2-2,1.7c0,1.4,0.3,3-0.1,4.4c-1.3,1.6-2.3,3.1-3.2,5
		c-0.8,1.3-1.6,3.4-3.4,3.1c-0.4-1-0.6-2-0.5-3.2c0.2-3.5-1-7.1,3.2-8.5c-1.6-0.7-2.8-0.4-2.5-2.6c1.3-0.6,2.9-0.3,4.3-0.5
		C137.5,569.1,138.8,568.9,140.3,569.7z"/>
	<path class="st1" d="M770.4,577.4c2.4,0,3,0.7,3.1,3c-1-0.1-2-0.1-3,0C770.5,579.4,770.4,578.4,770.4,577.4z"/>
	<path class="st1" d="M418.4,578.4l0,0.1c1.4,4.3,0.5,8.7,1.7,13c0.3,3.7,0.5,7.5,0.6,11.2c-0.8,0-1.7-0.1-2.5-0.1
		C417.9,594.6,418.5,586.5,418.4,578.4z"/>
	<path class="st0" d="M891.6,578.7c2,0,3.9,0,5.8,0c4.9,2.9,6.6,5.6,8.2,10.9c-1,0-1.6-0.4-2.1-1.1c-2.1-2.7-4.1-6.8-7.5-8
		c-3.9-0.5-5.6,1.9-8.7,3.2C887.1,581.4,890.1,580.2,891.6,578.7z"/>
	<path class="st1" d="M832,583.4l0.3,0.1c1.2,2.4,2.1,4.6,0.2,6.9c-1.9,0-2.9,1-4.2,2.2C828.6,589.4,830.5,586.3,832,583.4z"/>
	<path class="st1" d="M72.5,584.2c-0.1,3.6,1.8,4,4.4,5.6c-1.4,4.3-3.9,7.6-3.1,12.4c-3.5,3.5-6.6,7.4-9.4,11.5c0-1.4,0-2.8,0.2-4.2
		c2.2-8,3.6-16.5,6.9-24C71.7,585,72.1,584.6,72.5,584.2z"/>
	<path class="st1" d="M815.5,591.5L815.5,591.5c1.7,1.8,3.3,3.4,4.9,5.1c0,2.2-1.3,3.7-2.2,5.8c-0.5,0.8-0.6,2-1.6,2.2
		C817.1,600,815.9,596,815.5,591.5z"/>
	<path class="st1" d="M66.4,592.4h0.3c-1.4,5.7-3.4,13.3-4.4,19.1c-1.1,2.1-1.3,4.8-0.7,7.1c1.6-0.8,3.1-1,4.8-1.1
		c0.2-1.9,0.7-3.6,2.1-4.9c1.8-1.8,3.1-4.1,5-5.9c4,1.2,4.5-5.7,8-6.4c-1.1,2.9-4.7,5.2-6.9,7.3c-2.5,2-2.5,4.6-4.2,7.2
		c-2.3,3.8-3.9,7.8-5.9,11.7c0.3-1.8-0.3-2.5-2-2.3c0.3-2.6,0.4-3.3-1.8-4.9C60.5,610.2,63.3,600.9,66.4,592.4z"/>
	<path class="st1" d="M127.5,595.2l0.3,0.2c1.3,2.1,0.6,5.1,0.8,7.5c1.5,7.4,0.6,14.4,0,21.7l-0.9-0.1c0.1-2.1-0.3-4-0.8-6.1
		C126,610.7,125.9,602.9,127.5,595.2z"/>
	<path class="st0" d="M726.6,597.5c0.7-0.1,1.4-0.1,2.1-0.1c0,0.8,0.1,1.6,0,2.3c-0.7,0-1.4-0.1-2.2-0.1
		C726.5,598.8,726.6,598.2,726.6,597.5z"/>
	<path class="st1" d="M881.7,597.6c0.5,0,1.1,0,1.6,0c0.3,1.3,1,2,2,3c-0.1,2.6,2.1,3.1,1.2,5.9c-1.6,2.8-0.3,5.7-1.8,8.5
		c-0.5,1-0.7,3.4-2,3.6c-0.5-5.2,2.1-9.5,2-14.6c0.3-2.3-1.4-2.1-3-2.7C881.8,600.1,881.8,598.9,881.7,597.6z"/>
	<path class="st1" d="M753.8,599.2c1.2,1.2,1.5,2.1,1,3.8c-1.7,7-3.5,13.9-4.3,21.1c-1.2,4.8-0.9,8.9-4.7,12.8
		c-1.2,1.3-2.7,3.1-3.5,0.3c1.4-7.8,3.8-15.1,6.4-22.6c1.9-3.2,2.9-6.6,4-10.1c-0.7,0.3-1.3,0.5-2,0.8c-0.5-1.1-0.3-2.4,0.6-3.8
		C751.5,600.1,752,596.9,753.8,599.2z"/>
	<path class="st1" d="M129.8,602.9l0.9,0.3c3.9,7.3,3.1,14.3,5.6,21.8c0.1,1.7,0,3.1,0.9,4.6c0.2,1.6,0,2.6,1,4
		c0.4,6.7,4.3,13.5,4.6,20.1c-0.8-0.1-1.6-0.2-2.3-0.3c0-2.8,0.6-5.8,0.1-8.4c-1-1.6-1-3.4-1.4-5.2c-1.6-1.3-3.3,0.4-4.7-1.2
		c-1.7-4.8-1.7-9.8-3-14.5c-0.4-3,0.1-5.8-1-8.7C130.4,611.2,129.1,606.8,129.8,602.9z"/>
	<path class="st0" d="M398,604.6c2.2-0.2,4.3-0.3,6.5-0.2c0.1,0.7,0.2,1.4,0.1,2.1c-2.8-0.1-5.5,0-8.3,0
		C396.5,605.5,396.9,604.7,398,604.6z"/>
	<path class="st1" d="M420,605.2c2.6,0.4,1.3,4.3,1.8,6.2c1.4,2.8,0.2,5.8,1.5,8.6c0.2,5.8,2,11.2,2.3,17c0.9,3.8,1.5,7.6,2.1,11.5
		c0.3,1.4,1.5,3.4,0.4,4.6c-1.7,0.7-2.6,0.3-2.8-1c-1.5-4-1.6-8.1-2.6-12.1c-1.3-9-3.2-17.8-3.7-27
		C418.9,611.1,417.3,605.6,420,605.2z"/>
	<path class="st1" d="M816.7,612.5c0.8-0.1,2.8,1.7,2.7,2.5c-2.5,5.1-4,10.5-6.8,15.5c-1.1,3.9-2.4,7.4-4.2,11.1
		c-0.5-4,1-7.1,1.5-11C812.5,624.7,813.9,618.3,816.7,612.5z"/>
	<path class="st0" d="M634.4,626.4c0.7,0,1.4,0.1,2.1,0.1c1.4,0.9,0.7,3.5,1,5C633.6,631.9,634.8,629.1,634.4,626.4z"/>
	<path class="st1" d="M55.7,627.5c2.5,0.5,1.2,5.6,2.3,7.5c0.4,3,3.1,4,2,7c-0.6,1.9-0.3,4.2-1.2,5.9c-1.8,0.6-1.9-1.8-2.2-2.9
		C55.8,639.6,54.5,632.9,55.7,627.5z"/>
	<path class="st1" d="M114.1,636c2.7,3.3,7.9,6.5,8.7,10.8c-1.9-0.5-3.9-2.7-5-4.3c-1.4-3.3-4.6-4.8-6.5-7.5
		C110.7,632.7,113.6,635.4,114.1,636z"/>
	<path class="st1" d="M213.4,642.4c1.6-0.2,2.1,1.2,3,2.2c4.6,7.2,7,15.4,9.9,23.3c2.6,4.5,4.5,9.2,7.1,13.7c-0.2,3,1.6,5,2.1,7.8
		c-3.8-8.3-8.7-16-12.4-24.4c-2.6-4.1-4-8.8-6.5-13C215.9,648.7,213.5,645.7,213.4,642.4z"/>
	<path class="st1" d="M203.4,644.5c0.7,0,1.4,0,2.1,0c0.6,0.7,1.1,1.3,1.7,2c0,2.1,0.1,4.1,0.3,6.2
		C206.5,650,203.2,647.4,203.4,644.5z"/>
	<path class="st1" d="M323.6,649.3c0.6,1.1,1.1,2.2,1.7,3.3c0.1,1.6,0.2,3.3,0.1,4.9c-0.7,1.3-1.7,0.9-3,1c0.2-2.7,0.1-5.4,0.1-8.1
		C322.9,650.1,323.2,649.7,323.6,649.3z"/>
	<path class="st1" d="M88.7,653.5c1.2,0.1,2-0.4,2.6,1c0.1,2.7,0.1,5.4,0.3,8c-0.7-1.9-1.3-3.7-2.7-5.2
		C88.8,656.1,88.8,654.8,88.7,653.5z"/>
	<path class="st1" d="M910.3,654.4l0.3,0c1.1,6.8,2,13.7,2.1,20.6c1.4,8.2,0.3,16.7,0.6,25c-0.7,2.3-0.7,4.3-0.6,6.7h-0.5
		c0.2-5.3,0.4-10.5,0.5-15.8l-0.9-1.5c-0.2-5.2,0.2-10.8-1.1-15.8C910.5,667.1,910.8,660.8,910.3,654.4z"/>
	<path class="st1" d="M430.2,658c1.3,7.8,4.5,15.4,6.8,23.1c1.6,2.7,2.2,5.7,3.6,8.4c0.7,1,0.9,1.9,1.1,3.2c-1.3,1-2.5,0.8-4,0.8
		c-1.2-2.1-0.9-4.4-2-6.4c-2-3.9-2.7-8.1-4.4-12.2c-2-5.8-3.1-12.3-5-18C427.7,654.7,429.8,655.8,430.2,658z"/>
	<path class="st1" d="M145,659.4c2.3,1.7,3,6.1,3.7,8.8l-0.6,1c-2.6-0.2-2.5-2.2-3.4-4.1C144.2,663.2,141.8,660,145,659.4z"/>
	<path class="st1" d="M797.4,661.3v0.2c0.7,3.5,1.5,7.4,2.1,11.1c-1-0.4-1.9-0.9-2.9-1.3c0.3-2.9,0.1-5.8,0.1-8.8L797.4,661.3z"/>
	<path class="st0" d="M422,662.2c1.1-0.3,1.6,2.9,1,3.5C421.7,666,421.4,662.9,422,662.2z"/>
	<path class="st1" d="M129.5,663.5c1-0.5,2-0.1,2.9,1.1c1.4,2.7,2.6,5.6,3.9,8.3c0.8,1.5,2.6,3.6,2,5.3l-1.2-0.4
		c-1.8-2.6-3.8-4.7-6.1-6.9C129.8,668.8,128.9,665.9,129.5,663.5z"/>
	<path class="st1" d="M808.6,679.4c1,0.4,2,0.9,2.9,1.3c0.3,7.2-0.6,14.4-0.4,21.6c-1.6,1.9-0.4,3.7-1.2,5.7
		c-1.5,9.9-2.5,21.2-4.7,31c-1.1,2.5-0.3,5.1-1.5,7.6c-0.4,1.4,0.2,5.7-2,5.5c-1-1.8,0.3-4.4-0.8-6.1c-0.5-0.8-0.8-1.8-0.7-3
		c0.5-5.2,3.1-9.8,3.4-15c0.4-3.8,2.3-7.2,2.8-11C809.3,704.9,809,691.8,808.6,679.4z"/>
	<path class="st1" d="M659,680.2l1.5,0.3c0.7,2.9,0,6.1,0.1,9.1c-1.7,1.4-3.7,0.7-5.6,1.9l-1.2-0.2c-0.3-2.8,2.4-6.3,3.7-8.8
		C657.9,681.7,658.5,680.9,659,680.2z"/>
	<path class="st0" d="M640.4,686.3l0.1,0.2c-0.5,3.4-3,6.6-4.4,9.9c-4.2,5.2-7,11.2-11.6,16.2c-2.5,3.5-5.5,6.5-8.5,9.5
		c-4.7,4.8-9.2,9.4-15.1,12.9c-1.7,0.9-3.1,2.2-4.6,3.3c-3.3,1.2-6,3.8-9.4,4.9c-2.6,1-4.9,2.7-7.6,3.5l-0.2,1
		c4,0.4,7.9-2.3,11.8-2.2c1.7,0.2,2.5-0.7,3.6-1.8c2.6-0.6,4.6-1.3,7.3-1.4c1.7-1.2,3.8-0.8,5.9-1l-0.7,0.9
		c-3.8,2.1-7.9,3.3-11.7,5.1c-5,1.4-10.5,2.6-15.6,3.5c-2.6,1.3-5.3,0.2-7.9,1.5c-3.1,0.3-6,0-9,1c-1.7-0.1-4.5,0.8-5.9-0.3
		c-0.2-2.2,1.4-1.2,2.8-2.1c3.2-1.4,6.3-2.9,9-4.9c3.4-2.3,7.4-2.5,10.6-5.3c4.9-1,9.4-4.6,13.5-7.3c3.6-2.1,7-4.5,9.9-7.4
		c3.9-3.1,7.4-6.5,10.5-10.5c3.2-2.9,5.7-6.2,8.4-9.6c0.9-1,1.4-2.1,1.7-3.3c2.9-2.3,6.8-3.9,9.1-6.9
		C636.1,693.7,638.8,689.9,640.4,686.3z"/>
	<path class="st0" d="M586,686.5c1.5-0.3,5,0.6,4.9,2.5c-5.3,1.8-12.1,1.8-17.7,1.7c1.1-1.5,3.2-0.8,4.8-1.8
		C580.6,687.6,583,686.3,586,686.5z"/>
	<path class="st1" d="M863.7,688.3c0.3,0.6,0.6,1.2,0.8,1.8c2.6,9.4,4,20.8,2.9,30.4l-1.3,0.1c-2-3.2-1-9,0.1-12.6
		c-0.6-4.3-1.9-8.6-2.7-12.9C862.3,692.7,862.7,690.6,863.7,688.3z"/>
	<path class="st1" d="M224.4,693.4l0.1,0.2c1.8,3.5,3.9,6.6,5.6,10.1c2.4,3.6,5,7.3,7.3,10.9c4.1,4.2,7.3,9.3,11.5,13.5
		c1,1.6,2.2,3.1,3.1,4.8c3,5.5,7.4,10.1,10.3,15.7c1.9,3.4,4.7,6.6,6.4,10c-3.5-1.4-6.5-5.6-8.6-8.6c-3.3-4.2-6.4-8.5-9.2-13
		c-4.1-5.3-7.8-10.9-11.1-16.7c-1.1-1.9-3-3.3-3.3-5.4C232.1,708.3,227.7,700.5,224.4,693.4z"/>
	<path class="st1" d="M309.5,694.5l0.1,0.1c-0.1,0.6-0.2,1.3-0.3,1.9c-2.9,4.8-5.9,9.4-9,14c-1.3,0-2.6-1.7-4-2
		c0.1-0.5,0.4-1,0.7-1.4C301.1,702.8,305.7,698.9,309.5,694.5z"/>
	<path class="st1" d="M433.4,697.5c0.7,0,1.4,0,2.1,0.1c1.5,1.8,2,4.6,3.2,6.6c1.8,3.2,3,6.6,4.6,9.9c0.7,4.5,5.1,8.8,5,13.1
		c-2.1-0.1-2.5-2.6-3.5-4.1c-4-7.1-7.6-14.5-10.7-22.1C433.5,699.7,433.3,698.8,433.4,697.5z"/>
	<path class="st0" d="M720.7,697.4c-0.3,1.6-3,2.8-4.4,3.3C716,698.5,718.7,697.2,720.7,697.4z"/>
	<path class="st1" d="M751.5,698.5L751.5,698.5c-0.2,6.4-0.6,12.8,0.2,19.2c-0.7-0.1-1.3-0.1-2-0.2c0.2-1.6,0.2-3.2,0.2-4.8
		c1.5-2.2,0.5-5.4,1-8C751.5,702.6,751.6,700.7,751.5,698.5z"/>
	<path class="st1" d="M861.2,698.1l1-0.1c1.7,5.7,1.3,12.1,1.4,18c-2.6-0.5-1.9-2.4-2-4.4c1.4-1.6,3.3-3.5,0-4.2
		C861.5,704.4,860.2,700.8,861.2,698.1z"/>
	<path class="st1" d="M855.5,699.4L855.5,699.4l0.7,1.2c0.4,8,1.5,16.5-1.3,24.2c-0.9,1.2-1.1,2.5-1.5,4c-0.6-3.9,0.4-7.4,1-11.2
		C854.4,711.5,855.7,705.4,855.5,699.4z"/>
	<path class="st1" d="M894.5,701.4l0.9,0c-0.3,3.3-0.1,6.6-0.2,9.9c-1.4,1.9-0.7,4-2,6.1l-0.7,0c1.3-4,1.1-7.7,1.3-11.8
		C894.6,704.2,894.6,703,894.5,701.4z"/>
	<path class="st1" d="M294.5,710.3c0,0.6-0.1,1.3-0.1,1.9c-1.8,1.6-4.1,2.5-5.9,4c-2.9,0.1-5.9,0.4-8.8-0.1c-0.8-0.4-2-0.5-2.3-1.5
		c2.6-0.1,4.9-2,7.6-1.9c1.5,0.5,2.8,1.2,4.1,2.1C291.2,713.7,292.3,711,294.5,710.3z"/>
	<path class="st0" d="M721.7,711.3c0.2,0.9,0.2,1.8,0.1,2.7c-1.5,2.5-1.9,5.3-3.3,8c-0.4,1.8-2.4,2.3-2.8,4
		c-0.1,0.9-0.1,1.8-0.2,2.7c-2.8-0.2-3.1-5.1-3.1-7.1c1.8-1,6.1-2.5,6.5-4.6c-2-0.9-4.4,0.8-6.6-0.2c0.2-1.2-0.2-2.4,1.1-3
		C716.2,712.9,718.9,711.5,721.7,711.3z"/>
	<path class="st0" d="M361.3,723.3c1.5-0.3,2.5,1.2,3.7,1.9c2.2,0.3,3,2,4.5,3.3c1.3,1.4,3.2,2.1,4.6,3.4c1.5,1.1,3.1,1.1,3.9,3
		c2.5,1.1,4.2,3.1,6.9,3.7c2.5,0.6,3.9,2.8,6.4,3.1c2.3,1,4.6,2,6.5,3.6c0.8,0.1,1.7,0.1,2.5,0.2c1.1,0.7,2.1,1.8,3.5,1.8
		c2,0.2,3.7,1.5,5.6,2.1c4.2,1.8,9.8,1.9,13.4,4.8c1.5,0.1,3,0.2,4.5,0.3c0.8,0.6,1.6,1.2,2.4,1.8c2.4,0,4.5-0.2,6.6,1.2
		c2.1,1.4,4.4,0.1,6.5,1.7c2,0.2,4,0.1,6,0.3c3.4,1.4,7,1.8,10.6,1.7l0,0.2c-2.9,0.1-5.7-0.1-8.6-0.2c-2.2-0.2-4,0.5-5.9-0.9
		c-2.2-0.3-4.1,0.4-6-0.9c-4.7,0.1-8.8-2.6-13.5-2.2c-0.8-0.6-1.6-1.2-2.4-1.8c-1.5-0.1-3-0.1-4.5-0.2c-4.8-3.4-11.7-2.9-16.7-6.1
		c-2.1-0.9-4-1.9-6.3-1.9c-3.3-2.9-7.4-3.4-10.9-5.1c-1-1.4-1.5-1.7-3.2-1.9c-2.6-2.2-6.1-3-8.5-5.3c-3.5-3.7-8.2-5.5-11.4-9.5
		C361.4,724.8,361.4,724,361.3,723.3z"/>
	<path class="st1" d="M170.4,724.3c0.6,0,1.1,0.3,1.3,0.7c2.9,4.7,7.6,6.5,10.6,11.1c0.8,1.5,1.2,2.4,3,2.6l-0.1,1.3
		c1.9,2.7,4.8,4.6,6.5,7.4c-3.9-2.6-7.6-4.5-10.4-8.6c-1.8-4.3-5.4-7.6-9.4-9.9C170.9,727.6,170.4,726.2,170.4,724.3z"/>
	<path class="st1" d="M460,727.9c2,1.5,4.2,4.2,5.4,6.4c-4.6,1.8-7.5-1.2-8.4-5.5C458,728.5,459,728.2,460,727.9z"/>
	<path class="st1" d="M429.9,731.4c2.7-0.1,5.5-0.1,8.2,0c1.2,0.6,2.3,1.4,3.5,1.8c2.4,0.1,5.1-0.2,7.4,0.4c1.3,0.7,2.6,0.9,4,1.2
		c2.5,3.1,4.3,6.9,6.5,10.2l-0.2,1c-2.6-0.7-5.5,0-7.8-1.5c-3-0.1-6.9-0.8-9.1-2.9c-3.6,0.5-5-2.9-8.5-3.2c-1.9-1.1-3.7-2.9-5.5-4.3
		C428.2,732.5,428.7,731.5,429.9,731.4z"/>
	<path class="st0" d="M723.6,732.2c0.4,2.3,0.8,4.2,0.1,6.5c-0.7-0.1-1.4-0.2-2.1-0.2c-0.6-0.8-2.7-1.8-2.1-3
		C720.8,734.5,721.9,732.7,723.6,732.2z"/>
	<path class="st1" d="M750.6,736.3c-0.1,1.4-0.1,2.8-0.2,4.2c-1.2,1.3-2.5,2.2-4.1,3.1C746.6,741,746.4,735.4,750.6,736.3z"/>
	<path class="st1" d="M200.4,737.3c2,0.6,2.9,2.8,4.9,3.5c1.6,1.5,3.6,2,5.1,3.7c4.1,2.8,9.6,4.3,14,7.1l0.2,0.9
		c-3.9,0.2-7.2-2.8-11.1-3.3c-1.7-1.5-2.8-3.2-4.9-4.2c-2.8-2.3-5.3-5.2-8-7.6L200.4,737.3z"/>
	<path class="st1" d="M469,739.3c4.8,0.8,10.2,2,14.9,3.7l0,1c-2.3,2-6,3.2-8.8,4.5c-1.5,0.1-3.8,0.6-5-0.5c-2.1-3.3-5-5.8-6.9-9.2
		C463.4,736.8,467.8,739,469,739.3z"/>
	<path class="st1" d="M228.4,755.6c6.2,6.3,12.4,12.3,18.5,18.6c2.3,0.7,3.2,2.9,5.5,3.6c2.8,2.3,5.8,5,9.2,6.6
		c-0.7-0.1-1.4-0.1-2.1-0.2c-1.7-2-4.3-1.9-6.1-3.7c-2-1.4-3.6-3.2-5.3-4.9c-2.4-0.6-3.3-2.5-5-4c-1.8-0.9-3.6-1.4-5-3
		c-4-1.5-6.1-6.4-9.4-9.3c0-2-1-3.5-2.1-5C226.4,754,228.2,755.3,228.4,755.6z"/>
	<path class="st1" d="M849.7,757.5l0.9-0.1c-0.7,4.8-3.2,9.2-4.5,13.9c-0.7,3.2-2.5,5.6-4.4,8.2c-4.4,6.9-8.7,13.9-13.7,20.4
		c-1.5,1.9-2.3,4.2-4.3,5.7c-1.7,1.5-2.7,4.4-4.8,5.2c-0.9,2.8-3.7,3.7-5,6.1c-1.2,2.5-3.7,4.2-5.5,6.3c-1.2,1.1-2.3,2.9-4,3.3
		c2.7-2.7,5.5-5.3,8.2-8c1.2-1.2,1.2-2.5,1.2-4.1c2-2.1,3.9-4.1,5.3-6.5c1.9-2.1,3.3-5.6,6-6.6c2.2-0.8,2.2-2.6,2.9-4.5
		c1.6-2.8,3-5.7,4.7-8.4C839.5,778.7,844.2,768.1,849.7,757.5z"/>
	<path class="st1" d="M861.3,757.5l0.2-0.1c0.2,2.6-1.3,4.1-1.2,6.6c-1.2,3-0.6,6-1.8,9c0.2,2.5-1,4.2-1.1,6.6
		c-1.2-0.1-2.2,0.3-2.8-1c0-1.6,0.1-3.2,0.2-4.8c0.8-1.5,1.6-3,2-4.7c0.6-1.9,2-3.2,2.1-5.4C860.3,761.7,860.4,759.5,861.3,757.5z"
		/>
	<path class="st1" d="M786.2,781.7c1.7,2.6-2,4.6-1.7,7.3c0.3,2.5-1.5,3.8-1.4,6.4c-3.1,3.9-4.5,9.3-7,13.6c-1.8,2.8-2.7,5.8-5.2,8
		c-8.2,13.9-17.5,26.8-31.2,35.7c-0.6,0.6-2.1,1.3-2.2,2.2c0.4,0.7,0.9,1.4,1.4,2c-1.7,2.3-4.7,3.8-7.1,5.5
		c-2.3,1.6-5.3,0.8-7.8,0.3c-2.4-0.5-4.5,0-6.6-1.2c-2.6-1.5-5.5-2.4-8-3.9c-2.4-1.1-4.2-2.6-7-2.1c-2.7,1-4.5,3.2-5.2,5.9
		c-0.7,1.7-0.2,3.3-2.2,4c-2.2,1.1-4.6,3.2-7.1,3.4c-2.3-2.6-3.5-6.1-6.6-8.2c-1.9-0.8-3.4-1-5.5-0.6c-1.7-1.5-2-3.6-4.5-3.9
		c0.4-0.8,0.7-1.4,1.6-1.6c3.2-0.9,5.6-2.9,9-3.2c5.2-2.1,10.7-3,16-4.7c2.8-1.2,5.4-0.5,7.6-2.8c4.3-0.6,8.5-2.4,12.4-4.1
		c3.8-1.4,7.6-2.5,10.8-5.1c4.6-2.7,7.9-6.7,12.6-9.1c1.9,2.7,5,0.1,6.9-1.2c5.4-4.8,10.2-10.4,15.6-15.3c2-1.7,2.5-4,4.1-6
		c1.8-1.9,3-4.2,4.9-6c2.9-2.6,4.2-6.3,7.1-9C782.1,786.2,783.4,782.3,786.2,781.7z"/>
	<path class="st1" d="M846.7,786.9c-1,2.6-1.7,5.2-2.9,7.8c-0.2,2.3-0.3,3.3-2.1,4.9c-0.3,3.6-2.7,7-3.6,10.5
		c-1,2.1-2.2,4.1-2.8,6.4c-0.9,0-1.8,0.1-2.7,0.1c-1.3,2.3-2.8,4.5-4.2,6.8c1,0.7,3,1.4,3.1,2.7c0.9,3.4-2,6.1-3.2,9
		c-1.1,2.9-3,5.2-4.5,7.8c-3.2,5.9-7.7,10.9-11.5,16.5c-1.9,1.9-3.1,5-5.5,6.2c-1.2-2.4-3.3-5.2-5.3-7c-2.8-1.6-4.3-4.1-7.5-4.9
		c-3-0.4-6.5-0.4-9.5,0c-2.1,0.7-3.8,1.8-6.1,2c3.3-3.1,6.6-6.2,10-9.2c8-5.6,15.6-9.7,22.2-16.8c5-3.7,9.1-8.2,13.3-12.7
		c4.1-5.4,9-10.8,12.2-16.8c0.7-0.9,1.5-1.7,2.2-2.7c1.5-3.2,3.8-5.6,5.1-9C844,787.3,845.6,784.4,846.7,786.9z"/>
	<path class="st1" d="M757.6,810.4c-0.2,1.1-0.9,1.7-1.7,2.5c-3.2,3.4-7.4,6.9-11.7,8.8c1.1-2.3,2.8-5.2,4.7-6.9
		C751.9,813.4,754.7,811.8,757.6,810.4z"/>
	<path class="st1" d="M301.4,814.7c2.5,0.2,5,0,7.6,0c4.2,1.5,7.4,3.1,11.4,5.1l0.3,0.6c-6.2-0.2-11.6-2.9-17.6-4.1
		C302,816.2,301.7,815.6,301.4,814.7z"/>
	<path class="st1" d="M487.6,815.1c1.2,3.3,0.7,6.5,1.2,9.9c0.5,1.7,0.7,3.3,0.8,5.1c-0.7,0.9-1.4,1.9-2.1,2.8
		c0.2,3-0.2,6.3,0.8,9.1c0.5,1.6,0.3,3.4,0.4,5c-0.2,1.3,0.4,2.3-1.1,2.9c-2-6.6-0.2-13.3-1.8-19.9c0.1-3.6-0.4-7.5,0.5-11
		C486.6,817.7,485.8,815.5,487.6,815.1z"/>
	<path class="st1" d="M843.5,817.5l0.2-0.1c0.3,3.6-1.9,5.7-2.4,9c-3.5,4-4,9.2-7.4,13.6c-2.7,3.3-5,6.2-7.6,9.6
		c1-2.7,3-4.8,4.2-7.5c3.5-6.2,6.7-12.6,9.6-19.1C840.9,820.8,842.1,819.3,843.5,817.5z"/>
	<path class="st0" d="M654.6,829.8c1.7-0.1,3.4-0.2,5.1-0.3c-0.1,1.5-1.2,2-2.2,3c-1.7-0.1-2.8-0.3-4.2,0.8c-1.5-0.2-5.1,1-4.9-1.6
		C650.4,830.3,652.6,830.9,654.6,829.8z"/>
	<path class="st1" d="M205.4,831.7c4.2,3.8,9.1,5.1,13.6,8.3c4.3,2.4,8.2,5.2,12.4,7.8l0.5,1.3c-2.5,0.8-5.4,0.3-7.5-1.4
		c-1,0-2-0.1-3-0.1l0.1,0.7c2.9,1.2,5.6,3.2,8.1,5.1c1.8,0,2.8,0.8,4,2c1.8,1.7,4.1,2.6,6,4.1c-2.9,1-4.1,3.1-5.6,5.6
		c-1.3,1-3.7,0.3-4.9-0.7c-2.3,0.2-5-0.1-7.2,0.5c-0.7,2.3,0.5,5-0.6,7.5c-1.7,0.7-2.6-1-3.8-1.9c-2.3-2.3-4.6-4.3-5.8-7.5
		c-0.6-2.8,0.1-5.3,0-8c-1.9-3.1-4.3-6-6.3-9.1c-1.8-3.3-1.1-6.4-0.8-10c0.2-1.8-1.8-2.4-1.3-4.3C204,831.5,204.7,831.5,205.4,831.7
		z"/>
	<path class="st0" d="M647.5,844.5c0,1,0,2,0,3c-1.5-0.2-2.9,0.3-4-1C643.3,844.1,645.9,844.7,647.5,844.5z"/>
	<path class="st1" d="M336.5,852.6c1.8,1.6,3.9,3.1,5.2,5.1c-2.2-0.4-4.4-2.2-6.7-2.1c-1.6,0-3.3,1.2-4.7,0.1
		C331.3,853.2,333.9,852.1,336.5,852.6z"/>
	<path class="st1" d="M654.6,856.5c-0.3,2-3,3.3-4.2,4.9c-1.6-0.2-3.9,0.6-4.8-0.9c-0.4-1.3,0.4-1.6,1.5-1.9
		C649.7,858.1,652,856.8,654.6,856.5z"/>
	<path class="st0" d="M217.4,858.4c2.2,0.3,5.8-0.8,7.3,1c-2.9,0.3-1,1.9-0.8,3.6c-1.8,1.1-5-1-7.1-0.8
		C216.1,861,216.4,859.8,217.4,858.4z"/>
	<path class="st1" d="M659.6,861.6c0.8-0.4,1.6-0.8,2.5-1.3c1.2,0.9,2.3,1.9,2.8,3.4c-2.5-0.1-4.9-0.2-7.4-0.2
		C658.2,863,658.9,862.3,659.6,861.6z"/>
	<path class="st1" d="M246.4,862.3c2,1,3.4,1.4,5.6,1.2c0.6-0.6,1.3-1.2,1.9-1.7c1.2-0.8,2.8,0.7,4,1.1c1.8,1,3.7,0.3,5.4,1.5
		c1.5,1,3,0.9,4.6,1.4c2,1.7,2.2,5,3.6,7.2c-1.6,2.1-3.5,3.5-6,4.5c-0.2-1.6-2.6-2.7-2.2-4c1.3-1.2,1.3-2.4,1-4.1
		c-3-3-4.7-6.2-9.5-5.8c-2.6-0.3-3,2.7-5.4,1.7c-1-0.9-2-1.9-3-2.9L246.4,862.3z"/>
	<path class="st1" d="M761.6,867.3c-3.2,3.3-6.7,6.4-9.3,10.1c-1.4,0.4-0.6-2-2.8-2.1c0-0.5,0-1.1,0-1.6
		C753.6,871.8,757.4,868.9,761.6,867.3z"/>
	<path class="st1" d="M325.3,870.4c1.7,3.4,3.5,6.1,3.1,10.1c-2-0.1-4.1-0.1-6.1-0.1c0.4-1.4,1.6-2.1,2.3-3.4c0.1-1.8,0.1-3.1-1-4.7
		C322.9,871.2,324.4,870.7,325.3,870.4z"/>
	<path class="st1" d="M654.5,872.5c-0.2,1.8,0.7,4.6-1.6,5.4c-1.7-0.3-5.7,0.5-5.8-1.7C647.5,873.4,652,869.6,654.5,872.5z"/>
	<path class="st1" d="M180.7,874.3c-1,3.6-5.3,3.2-8.3,3.1l0-0.7C175.3,875.2,177.4,874,180.7,874.3z"/>
	<path class="st1" d="M769.4,877.4c2.6-0.3,4.7,0.7,7.1,1.2v0.9c-2.4,0.3-4.6-0.1-6.7,1.4c-2.6,1.2-4.1,3.7-6.4,5.5
		c-0.7,0-1.4,0.1-2.1,0.1C763.8,883.4,766.6,880.2,769.4,877.4z"/>
	<path class="st1" d="M482.2,877.9c0.4,0.8,0.5,1.7,0.6,2.6c0.6,0.8,1.3,1.7,1.9,2.5c-1,1.8-1.9,3.9-3.2,5.4
		c-3.7,4.7-11.1,6.1-16,8.9c-2,0.1-4.1,0.2-6.1,0.3c0-1.4,1-1.5,2-2.2c6.8-4.1,12.2-9.6,17.6-15.4
		C479.9,878.9,480.6,877.9,482.2,877.9z"/>
	<path class="st1" d="M628.4,878.4c-0.1,2.6,0.5,4.8-1.1,7.1c-0.6,0-1.2,0-1.8,0c0.2-2,1.3-3.4,1.2-5.4
		C626.7,878.9,627.5,878.6,628.4,878.4z"/>
	<path class="st1" d="M180.7,880.7c2.9-1.5,6.3,0.2,8.9,1.6c2.3-0.1,3.6,0.3,5.4,1.6c2.6,2.5,5.8,4.2,8.6,6.5c1,1,2.5,1,2.5,2.7
		c-1,0.5-2,1-2.9,1.5c-2.6-0.3-4.2-0.8-6.1,1.3c-2.8-1.9-2.5-5.9-6-7.6c-2.6-2.1-5.7,0.3-8.1-1C180.2,885.7,182.1,883.3,180.7,880.7
		z"/>
	<path class="st1" d="M344.5,886.5c1,0,2,0,3,0c-0.2,2.3-0.2,4.6-0.2,6.9c-0.4,0.7-0.7,1.4-1,2.1l-0.7,0
		C346.3,891.9,344.5,889.8,344.5,886.5z"/>
	<path class="st1" d="M383.6,893.8c5.3-0.1,11.1-0.7,16.4,0.6c2.3,0,4.1,1.3,6.4,1.4c4.2,2.2,8.9,3.7,13.1,5.8
		c1.5,1.6,3.3,2.1,5.2,2.9c-2,1.1-4.3,0.6-6.3,1.8c-3.4,0.4-7,0.1-10.4-0.1c-3.9-1.9-9,0-13-1.6c-7-0.7-14,0-21-0.7
		c-6.1-0.5-12,1.1-17.8-0.4c6.4-4.1,12.4-5.4,19.3-7.8C378.3,895.2,381,894.9,383.6,893.8z"/>
	<path class="st1" d="M554.3,893.3c5,0.3,7.8,3.7,12.4,6.3c-2.7,0.2-4.5-1.2-7.1-1.4C557.3,896.7,553.4,897,554.3,893.3z"/>
	<path class="st1" d="M581.4,894.4c1.4,0,2.8,0,4.2,0c0,0.7,0,1.4,0,2.2c-1.4,0-2.8,0-4.2,0C581.4,895.9,581.4,895.1,581.4,894.4z"
		/>
	<path class="st1" d="M492.6,897.7c0.7-0.1,1.4-0.2,2-0.2c0.1,0.8,0.1,1.5,0,2.2c-3,3-6.6,4.5-10.1,6.7c-3.4,1.8-7.1,2.7-10.5,4.6
		c-1.8,0.6-2.9,2.3-4.6,0.6c2.2-2.6,5-3.9,8-5.3C482.5,903.7,488.2,901.3,492.6,897.7z"/>
	<path class="st1" d="M323.5,899.5c0.8-0.2,1.6-0.3,2.4-0.5c0.4,1.8,0.5,3.2,1.7,4.6c-1.1,0.9-2.9,0.6-4.2,0.8
		C322,902.8,322.5,901.2,323.5,899.5z"/>
	<path class="st1" d="M227.4,901.5c2.2,0.3,4.2-0.1,6.2,1.1c-0.8,1.5-2.4,3.5-4.1,4.1C229.9,903.8,230.2,903,227.4,901.5
		L227.4,901.5z"/>
	<path class="st1" d="M451.5,901.7c3.7-0.2,7.4-0.2,11.1-0.2c-4.7,1.9-9.3,3.6-14.5,3.2C449,903.4,450.4,902.6,451.5,901.7z"/>
	<path class="st1" d="M557.4,901.4c3.7,1.3,7.2,3.4,11.1,4.5c1,0.7,1.9,1.5,3.1,1.9l0,0.7c-4.1,0-8.4-2.2-12-4.1
		C558.4,903.5,557.2,902.9,557.4,901.4z"/>
	<path class="st1" d="M334.1,906c0.6,1.3-0.5,3-0.7,4.4c-3.2,1.5-6.5-0.3-9.9,0l0.1-0.9C327.1,909.2,330.8,907.4,334.1,906z"/>
	<path class="st1" d="M496.3,905.7c1.9,3.4-1.6,6.5-3.8,8.6c-1.2,0.2-2.3,0.4-3.4,0.5c-2.8,0.8-6.6,1.2-9.4,0.4l-0.1-1.3
		c4.4-2,8.9-3.6,13-6.4C493.8,906.8,494.7,905.6,496.3,905.7z"/>
	<path class="st1" d="M350.4,907.6c11.2-0.1,22.4,0.1,33.5,0.2c4,1.3,7.8,0.7,12,0.9c5.3,1.3,11.1,0.5,16.5,1c2.4,0.8,4.5,0.9,7,0.8
		c0,0.6,0,1.2-0.1,1.8c-2.5-0.1-4.1,1.8-6.4,1.9c-2.4,0.2-4.6,0.7-6.7,1.9c-1.8,0.1-3.4,0.1-5,0.9c-12.1,0.6-23.8,0.2-35.6,0.1
		c-1.6-1.3-3.2-0.7-5-1c-2.7-1.2-6.1-0.8-9.1-1c-2.1-1.1-0.1-1.9,0.5-3.2c-0.3-1.1-1.2-1.6-2.7-1.6
		C349.5,909.2,349.5,908.5,350.4,907.6z"/>
	<path class="st1" d="M718.5,910.6c2.4,0.3,4.7,0.1,7.1,0c-0.7,2.3-5.3,1.7-7.2,1.9C718.5,911.8,718.5,911.2,718.5,910.6z"/>
	<path class="st1" d="M589.5,912.7c1.9,0.9,3.7,3.3,0.5,4.1c-1.6-1.1-3-2.5-4.5-3.8C586.2,911.9,588.3,912.6,589.5,912.7z"/>
	<path class="st1" d="M828.5,914.5c2.3,1.2,4.3,3.3,6.2,5.1c-2.8,0-5.2-1.3-8-1.5c-1.8-0.9-3.7-0.2-4.3-2.3
		C824.5,914.7,826.1,913.7,828.5,914.5z"/>
	<path class="st1" d="M162.6,915.3c0,0.7,0,1.4-0.1,2.1c-1.7,0-3.5,0-5.2,0C159.1,916.3,160.4,915,162.6,915.3z"/>
	<path class="st1" d="M592.6,915.6c2.3-1.2,4.1,0.7,6,1.7c1.2,0,2.3,0.1,3.5,0.2c2.6,1.7,5.7,0.3,8.5,1.8c3.1,0.4,6.5,0,9.6,0.6
		c0.9,4.5,7.8,6.6,10.6,9.8c-12.6-0.3-25.3-4.1-36.4-10.1C592.5,918.6,591.7,917.9,592.6,915.6z"/>
	<path class="st1" d="M343.4,917.5c7.1-0.6,13.1,2.7,19.9,3.3c1,0.7,2.1,1.1,3.3,1.6c-3-0.2-6.1,0.3-9.1-0.1
		c-1.5-0.4-2.9-0.8-4.5-0.8c-3.8,0.1-6.9-1.7-10.7-2.1C342.6,918.8,342.9,918.1,343.4,917.5z"/>
	<path class="st1" d="M747.3,917.5c4-0.3,6.8,2,10.6,2.2c2.1,0.4,2.7,2.1,2.6,4c-2.9-1-5.6-2.1-8.6-2.8
		C750.4,920,747.4,919.7,747.3,917.5z"/>
	<path class="st1" d="M465.6,918.7c4.7-0.6,9.2-0.5,13.9-0.1l0,0.8c-1.6,0-3,0.2-4.5,0.6c-2.6,0.7-5.3,0.4-8,1
		c-1.3,0.3-2.6,0.2-4-0.4C463.8,920,464.7,919.3,465.6,918.7z"/>
	<path class="st1" d="M106.6,920.6l0.2-0.1c-2.4,3.7-5,7.1-7.5,10.8c-2.6,2.3-4.9,5.1-7.1,7.8c-1.2,1.4-1.7,3-3.6,3.5
		c0-0.7,0.1-1.4,0.2-2c3.7-4.3,6.6-9.1,10.8-13.1c1.7-1.9,3.9-3.5,5.3-5.6C105.4,921.5,106,921.1,106.6,920.6z"/>
	<path class="st1" d="M435.5,920.8c1.7,0,3.3-0.1,5-0.2l0,0.6c-4,2-8.2,3.3-12.5,4.7c-0.5,0.4-1,0.9-1.6,1.4c-3.5,0.1-6,2.3-9.4,2.7
		c-5.2,2.2-10.7,2.5-16,4.2c-4.6,0.2-9.4,1.4-14,2.1c-9.6,0.3-18.7,0.8-28.4,0c-2.3-1.3-4.6-0.3-7-1c-1.5-0.7-3-0.8-4.6-1
		c-3.1-1-6.2-2.8-9.5-2.9c-0.8-0.6-1.5-1.2-2.3-1.8c2.4,0.3,4.5-0.1,6.6,1c5,0.1,10.2,2.4,15.1,0.3c5.1,0,10-0.3,14.9-1.8
		c1.1-0.7,2.4-0.5,3.8-0.6c-0.5,0.6-0.9,1.1-1.3,1.7c0,2.3,3.2,1.5,4.6,1.1c3.6-1,7.3-2.2,11-2.7c4,0.5,7.8,1.5,12,1.3
		c3.1,0.5,9,1.7,10.8-1.8c-0.5-2.6-4-1.1-5.8-1c-2.2-0.3-4.3-0.6-6.5-0.6l0-0.8c3.6-1.7,7.7-0.9,11.5-1.8c4.9,1.2,8.9-1.8,14-1.5
		C429.1,921.3,432.4,921.7,435.5,920.8z"/>
	<path class="st1" d="M339.7,922.7c3.1-1.1,5.2,0.7,8.3,0.8c2.2,1.3,4.8,0.2,6.9,1.3c0.6,2.3-2.1,1.5-3.4,1.9
		c-3.4,1.3-8.2,1.1-11.2-1.2C339.2,924.6,339,923.7,339.7,922.7z"/>
	<path class="st1" d="M853,923.3c1.2,1.3,1.8,3.1,3.3,4.3c0.1,0.7,0.1,1.3,0.2,2c-2.9-2-6-3.3-9.1-5
		C848.6,923.2,851.2,923.4,853,923.3z"/>
	<path class="st1" d="M666.9,923.3c1.8,0.1,4.3,0.1,4.8,2.2c0.8,1.7,3.3,0,2.8,2.8c-2.2,0.6-4.4,0.5-6.6,1c-1.7-0.8-5-1.7-5.6-3.7
		C664.3,925.5,665.4,924.3,666.9,923.3z"/>
	<path class="st1" d="M193.5,948.4c0,0.7-0.1,1.4-0.1,2.2c-0.8,0.8-1.3,1.7-2.5,1.9c-5,1.1-9.5,3.9-14.4,5.1l0.1-0.6
		c2.8-1.2,5.7-3.1,8-5.1c1.2,0,2.4-0.1,3.5-0.2C190.4,950.5,190.7,948.2,193.5,948.4z"/>
	<path class="st1" d="M792.4,956.5c1.4,0,2.8-0.1,4.3-0.2c2.1,2,2.6,5.5,2.9,8.3c-1.6-0.4-2.7-2.3-3.9-3.3
		C794.2,959.6,792.2,959.1,792.4,956.5z"/>
	<path class="st0" d="M252.4,963.8c1.1,0.5,2.1,0.8,3.2,0.8c-0.3,0.7-0.6,2-1.7,1.9c-1.7-0.2-5.3,0.8-5.6-1.8
		C249.7,964.2,251,963.1,252.4,963.8z"/>
</g>
</svg>
